<?xml version="1.0" encoding="UTF-8"?>
<svg id="Capa_1" data-name="Capa 1" xmlns="http://www.w3.org/2000/svg" viewBox="0 0 608 158">
  <defs>
    <style>
      .cls-1, .cls-2 {
        fill: none;
      }

      .cls-3 {
        fill-rule: evenodd;
      }

      .cls-3, .cls-4 {
        fill: #0776ec;
      }

      .cls-2 {
        stroke: rgba(0, 0, 0, 0);
      }
    </style>
  </defs>
  <g>
    <path class="cls-4" d="M119.55,122.81V28.72h10.76v41.53h4.56l38.85-41.53h13.85l-43.29,46.23,43.69,47.86h-14.25l-38.98-43.15h-4.43v43.15h-10.76ZM196.18,122.81V55.6h9.94v67.21h-9.94ZM201.28,42.16c-2.06,0-3.77-.67-5.11-2.02-1.35-1.34-2.02-3-2.02-4.97s.67-3.77,2.02-5.11c1.34-1.35,3.04-2.02,5.11-2.02,1.88,0,3.52.67,4.9,2.02,1.39,1.34,2.09,3.04,2.09,5.11s-.7,3.63-2.09,4.97c-1.39,1.35-3.02,2.02-4.9,2.02M251.54,123.76c-6.54,0-12.27-1.43-17.2-4.3-4.93-2.87-8.76-6.88-11.49-12.03-2.73-5.15-4.1-11.13-4.1-17.94s1.37-12.98,4.1-18.22,6.56-9.32,11.49-12.23c4.93-2.91,10.67-4.37,17.2-4.37,6.9,0,12.96,1.59,18.15,4.78,5.2,3.18,8.96,7.59,11.29,13.24l-9.27,3.23c-1.34-3.58-3.78-6.43-7.32-8.54-3.54-2.11-7.64-3.16-12.3-3.16s-8.54,1.03-11.89,3.09-5.96,4.98-7.79,8.74c-1.84,3.76-2.76,8.19-2.76,13.31,0,7.52,2.01,13.55,6.04,18.07,4.04,4.53,9.41,6.79,16.13,6.79,4.57,0,8.65-1.03,12.23-3.09,3.58-2.06,6.23-4.83,7.93-8.33l9.14,3.22c-2.42,5.56-6.22,9.91-11.42,13.05-5.2,3.13-11.25,4.7-18.15,4.7M319.97,123.76c-6.27,0-11.85-1.52-16.73-4.57-4.89-3.04-8.72-7.21-11.5-12.49-2.77-5.29-4.16-11.34-4.16-18.15s1.39-12.36,4.16-17.47c2.78-5.11,6.59-9.12,11.43-12.03,4.84-2.91,10.35-4.37,16.54-4.37s11.53,1.34,16.32,4.03c4.8,2.69,8.54,6.41,11.23,11.16,2.69,4.75,3.94,10.17,3.76,16.27,0,.99-.05,2.02-.14,3.09l-.26,3.49h-52.03c.18,4.21,1.21,7.93,3.09,11.16,1.88,3.22,4.37,5.75,7.46,7.59,3.09,1.84,6.61,2.76,10.56,2.76,5.2,0,9.61-.99,13.24-2.96,3.63-1.97,6.25-4.79,7.86-8.46l8.73,3.49c-2.69,5.65-6.59,9.97-11.69,12.97-5.11,3-11.07,4.51-17.88,4.51M298.73,83.97h41.27c.08-3.86-.75-7.26-2.5-10.22-1.75-2.95-4.19-5.28-7.32-6.99-3.14-1.7-6.77-2.55-10.89-2.55-3.58,0-6.86.85-9.82,2.55-2.95,1.71-5.39,4.06-7.32,7.06-1.93,3-3.07,6.39-3.43,10.15M361.63,122.81V55.6h9.28l.53,9.54c2.15-3.32,4.98-5.9,8.47-7.74,3.49-1.84,7.57-2.76,12.23-2.76,5.11,0,9.59,1.1,13.44,3.3,3.85,2.2,6.85,5.47,9,9.82s3.23,9.79,3.23,16.33v38.71h-10.09v-37.5c0-6.99-1.5-12.31-4.51-15.94-3-3.62-7.32-5.43-12.97-5.43s-10.37,1.92-13.65,5.77c-3.27,3.86-4.9,9.55-4.9,17.08v36.02h-10.09ZM425.63,55.6h10.08v-18.82h10.09v18.82h17.88v9.41h-17.88v36.16c0,4.12.87,7.12,2.62,9,1.75,1.88,3.99,3,6.72,3.37,2.73.35,5.58.35,8.54,0v8.73c-3.5.81-6.93,1.03-10.29.68-3.36-.36-6.36-1.37-9-3.03-2.64-1.66-4.75-4.01-6.31-7.06-1.57-3.04-2.36-6.94-2.36-11.69v-36.16h-10.08v-9.41ZM501.04,123.76c-6.27,0-11.85-1.52-16.74-4.57-4.88-3.04-8.71-7.21-11.49-12.49s-4.17-11.34-4.17-18.15,1.39-12.36,4.17-17.47c2.78-5.11,6.59-9.12,11.42-12.03,4.84-2.91,10.35-4.37,16.54-4.37s11.54,1.34,16.33,4.03c4.79,2.69,8.53,6.41,11.22,11.16,2.69,4.75,3.95,10.17,3.77,16.27,0,.99-.05,2.02-.14,3.09-.09,1.08-.18,2.24-.27,3.49h-52.02c.17,4.21,1.2,7.93,3.08,11.16,1.88,3.22,4.37,5.75,7.47,7.59,3.09,1.84,6.6,2.76,10.55,2.76,5.2,0,9.61-.99,13.24-2.96,3.63-1.97,6.25-4.79,7.86-8.46l8.74,3.49c-2.69,5.65-6.59,9.97-11.7,12.97-5.11,3-11.06,4.51-17.87,4.51M479.8,83.97h41.26c.09-3.86-.74-7.26-2.49-10.22-1.75-2.95-4.19-5.28-7.33-6.99-3.13-1.7-6.76-2.55-10.89-2.55-3.58,0-6.85.85-9.81,2.55-2.96,1.71-5.4,4.06-7.33,7.06-1.93,3-3.07,6.39-3.42,10.15M542.71,122.81V55.6h9.27l.53,9.81c1.79-2.42,3.97-4.48,6.53-6.18,2.55-1.7,5.37-2.89,8.46-3.56,3.09-.68,6.39-.7,9.88-.07v10.08c-3.77-.72-7.15-.72-10.15,0-3,.72-5.57,2.06-7.73,4.03-2.15,1.97-3.8,4.46-4.97,7.47-1.17,3-1.75,6.47-1.75,10.42v35.22h-10.08Z"/>
    <rect class="cls-1" x="108.61" y="3.05" width="488.68" height="151.89"/>
    <path class="cls-3" d="M44.06,63.19l-3.74-3.4-7.49,8.51c-1.46,1.96-4.23,2.36-6.19.9-.09-.07-.19-.14-.27-.22-1.87-1.57-2.12-4.36-.55-6.23.07-.08.14-.16.21-.23l10.55-11.91c1.46-1.96,4.23-2.36,6.19-.9.09.07.19.14.27.22l20.42,18.04,7.49-8.51c1.52-1.85,4.24-2.15,6.13-.68,2.04,2.04,2.27,4.2.68,6.47l-10.89,11.91c-1.62,1.74-4.32,1.89-6.13.34l-6.81-5.44-7.49,10.21,4.42,3.4c2.27,2.27,2.61,4.54,1.02,6.81l-10.89,14.97c-1.72,2.23-4.92,2.65-7.16.93-2.2-1.69-2.64-4.82-1.01-7.06l7.83-10.55-3.06-2.38-18.72,25.18c-1.66,2.05-4.61,2.49-6.81,1.02-2.16-1.56-2.76-4.53-1.36-6.81l33.35-44.58ZM66.52,42.43c4.89,2.44,6.87,8.39,4.42,13.27-2.44,4.89-8.39,6.87-13.27,4.42h0c-4.89-2.44-6.87-8.39-4.42-13.27,2.44-4.89,8.39-6.87,13.27-4.42"/>
  </g>
  <path class="cls-2" d="M.5.5h607v157H.5V.5Z"/>
</svg>