<?xml version="1.0" standalone="no"?>
<!DOCTYPE svg PUBLIC "-//W3C//DTD SVG 20010904//EN"
 "http://www.w3.org/TR/2001/REC-SVG-20010904/DTD/svg10.dtd">
<svg version="1.0" xmlns="http://www.w3.org/2000/svg"
 width="388.000000pt" height="391.000000pt" viewBox="0 0 388.000000 391.000000"
 preserveAspectRatio="xMidYMid meet">

<g transform="translate(0.000000,391.000000) scale(0.100000,-0.100000)"
fill="#000000" stroke="none">
<path d="M1340 3623 c0 -5 6 -28 14 -53 10 -33 12 -87 8 -205 -3 -88 -7 -154
-9 -147 -6 17 -24 15 -53 -8 -14 -11 -34 -20 -45 -20 -22 0 -125 -37 -138 -49
-4 -5 -22 6 -40 22 -18 17 -59 50 -92 75 -52 38 -126 119 -214 233 -23 29 -25
30 -38 13 -19 -26 -16 -128 6 -209 11 -39 44 -122 74 -186 45 -94 62 -122 98
-149 59 -47 61 -50 39 -88 -11 -18 -22 -44 -24 -59 -5 -23 -49 -82 -69 -91 -4
-2 -21 -23 -37 -47 -16 -23 -63 -79 -104 -124 -103 -113 -111 -144 -72 -289
16 -58 16 -66 1 -119 -19 -64 -74 -178 -116 -239 -15 -23 -26 -44 -23 -47 3
-3 -10 -10 -29 -16 -48 -16 -113 -75 -120 -108 -3 -15 -2 -48 3 -72 7 -39 4
-53 -30 -125 -20 -45 -43 -99 -50 -121 -7 -22 -19 -45 -26 -53 -8 -7 -13 -30
-13 -50 1 -20 -4 -50 -11 -67 -28 -71 -28 -113 -3 -221 28 -117 62 -174 118
-201 19 -9 39 -29 46 -45 6 -16 24 -35 38 -42 34 -17 121 -30 199 -29 120 1
203 72 231 196 l13 58 46 -34 c48 -36 111 -69 149 -81 18 -6 21 -4 16 16 -4
20 -3 21 7 5 6 -9 8 -27 5 -40 -5 -19 -4 -20 7 -6 7 9 30 18 51 21 24 3 34 1
27 -6 -6 -6 -10 -18 -10 -28 0 -28 -32 -39 -55 -20 -19 16 -19 16 -4 -3 9 -11
19 -33 23 -48 4 -16 18 -46 31 -67 16 -25 20 -41 13 -48 -12 -12 -7 -47 7 -46
6 1 20 -15 33 -35 13 -20 21 -27 18 -16 -13 50 -41 121 -53 133 -12 13 -17 27
-14 44 0 5 -3 8 -9 8 -5 0 -10 8 -10 18 0 14 2 15 10 2 5 -8 10 -10 10 -5 1 6
12 -12 26 -38 20 -38 28 -46 39 -37 14 12 11 61 -7 93 -7 14 -5 24 7 37 10 11
15 26 11 35 -3 9 -2 14 3 11 12 -8 58 30 66 53 3 10 15 23 28 30 15 8 16 10 3
6 -16 -5 -17 -3 -6 10 7 8 18 15 25 15 14 0 75 65 165 179 38 49 79 89 100 99
19 9 39 26 44 38 5 12 30 34 55 50 25 16 62 46 82 66 l36 37 64 -116 c85 -156
109 -210 102 -230 -4 -10 -2 -14 4 -10 7 5 9 0 6 -13 -3 -10 0 -41 6 -67 14
-58 20 -98 26 -183 2 -35 7 -77 10 -92 4 -17 2 -28 -4 -28 -6 0 -11 9 -11 19
0 28 -20 37 -21 9 -1 -13 -1 -27 0 -32 4 -21 -11 -66 -21 -60 -5 3 -8 15 -5
25 3 10 1 22 -4 25 -5 3 -9 -5 -9 -17 0 -12 -3 -19 -6 -16 -4 3 -6 28 -6 54 1
26 -3 55 -9 63 -9 12 -10 12 -5 -4 4 -12 -2 -26 -20 -43 -14 -13 -28 -23 -30
-21 -2 2 6 37 17 78 12 41 30 111 42 155 11 44 23 82 26 85 11 9 5 70 -7 82
-9 9 -20 -7 -47 -68 -20 -43 -40 -86 -46 -94 -51 -79 -152 -407 -184 -597 l-7
-43 499 0 498 0 97 54 c284 157 526 377 700 637 63 94 66 101 56 132 -6 18
-14 34 -18 37 -4 3 -13 16 -20 29 -8 16 -14 20 -20 12 -4 -8 -20 13 -43 57
-20 41 -32 74 -27 82 6 9 10 8 19 -6 6 -11 11 -16 11 -13 0 13 -50 94 -58 94
-5 0 -21 14 -35 30 -15 17 -27 24 -27 18 0 -7 5 -13 11 -13 6 0 9 -6 6 -13 -3
-7 2 -29 11 -48 8 -18 16 -38 18 -44 20 -73 44 -171 44 -179 0 -6 -9 4 -20 22
-11 18 -20 42 -20 53 0 11 -5 29 -10 39 -6 10 -11 30 -12 44 -1 15 -6 26 -10
26 -4 0 -8 13 -8 29 0 42 -59 165 -114 236 -25 33 -46 65 -46 70 0 6 5 3 10
-5 9 -13 10 -13 10 0 0 26 -81 116 -163 181 -51 41 -72 43 -61 6 5 -19 2 -17
-22 8 -16 17 -37 29 -46 27 -10 -2 -18 2 -18 8 0 6 -5 8 -12 4 -8 -5 -9 -2 -5
9 3 10 2 17 -3 17 -6 0 -10 6 -10 14 0 22 -19 30 -26 11 -4 -9 2 -25 12 -37
11 -12 13 -18 7 -14 -16 9 -16 -4 -3 -40 6 -15 14 -24 17 -20 4 3 12 -6 18
-21 l12 -28 0 33 c0 32 17 61 29 50 3 -4 6 -22 7 -42 0 -19 5 -33 9 -30 4 3 7
-3 6 -13 -3 -40 3 -70 18 -89 8 -10 13 -14 10 -7 -4 6 -2 14 3 17 5 3 14 -8
20 -24 5 -17 13 -30 17 -30 3 0 3 7 0 16 -3 9 -2 12 5 9 5 -4 7 -15 4 -25 -5
-14 0 -19 20 -22 14 -2 24 -7 23 -13 -2 -5 -9 -9 -16 -8 -8 0 -1 -12 14 -28
31 -32 26 -37 -11 -13 -24 16 -25 15 -35 -11 -6 -17 -7 -39 -2 -59 7 -23 5
-35 -4 -44 -8 -7 -14 -22 -14 -32 0 -11 -3 -20 -7 -20 -5 0 -9 -18 -10 -40 0
-22 2 -40 7 -40 4 0 10 -17 14 -39 3 -21 12 -44 20 -50 8 -7 12 -19 9 -27 -3
-8 0 -14 6 -14 6 0 11 -11 11 -25 0 -14 4 -25 8 -25 15 0 23 -210 9 -228 -8
-10 -15 -4 -29 25 l-18 38 5 -55 c3 -37 2 -50 -5 -40 -5 8 -10 31 -11 50 -2
33 -2 32 -9 -10 -4 -25 -8 -35 -8 -22 -1 13 -6 21 -11 17 -5 -3 -3 8 5 25 11
21 12 34 5 47 -6 10 -11 14 -11 8 -1 -24 -20 23 -20 50 0 44 -38 217 -48 224
-5 3 -17 29 -26 56 -10 28 -22 58 -27 67 -5 10 -9 25 -9 33 0 22 -28 111 -51
162 -10 24 -19 52 -19 63 0 14 -4 19 -12 14 -8 -5 -9 -2 -3 12 4 10 7 28 7 39
-2 38 -35 160 -57 210 -13 28 -35 84 -50 125 -30 86 -96 221 -130 265 -12 17
-23 34 -23 38 -1 13 -35 36 -44 31 -4 -3 -5 2 -2 10 8 20 -33 86 -52 86 -9 0
-12 5 -8 12 5 7 3 8 -5 4 -7 -5 -10 -14 -7 -22 10 -26 -3 -14 -34 32 -18 25
-34 43 -38 40 -3 -3 -20 16 -39 44 -31 47 -201 205 -210 196 -7 -7 65 -97 118
-148 49 -47 57 -58 40 -58 -5 0 -12 8 -14 18 -4 15 -5 15 -6 -2 -1 -13 -6 -16
-18 -12 -15 5 -14 3 2 -10 12 -10 14 -15 5 -12 -8 3 -20 14 -26 26 -6 12 -14
19 -19 14 -4 -4 -5 1 -2 11 6 15 3 17 -16 13 -12 -3 -16 -3 -9 0 6 3 12 11 12
17 0 13 -40 43 -53 39 -5 -1 -6 6 -2 17 3 11 1 22 -4 26 -7 3 -8 0 -5 -9 9
-23 -5 -19 -50 12 -43 29 -61 57 -29 45 10 -4 3 6 -14 23 -29 26 -31 31 -18
48 14 18 15 18 44 -7 16 -13 27 -29 23 -33 -4 -5 1 -2 11 6 18 13 18 15 1 27
-10 7 -14 13 -10 13 10 0 83 -53 197 -142 47 -38 93 -68 101 -68 17 0 65 -49
107 -112 35 -53 45 -60 37 -25 -3 12 -3 16 0 9 3 -6 10 -10 15 -7 5 4 6 -1 3
-10 -4 -10 -2 -14 8 -10 14 5 78 -55 78 -74 0 -5 12 -23 27 -38 l27 -28 -24
40 c-48 80 -70 109 -168 214 -56 59 -133 145 -173 192 -39 46 -81 93 -93 104
-12 11 -32 35 -45 53 -12 17 -28 32 -34 32 -7 0 -41 20 -77 45 -36 25 -70 45
-76 45 -22 0 -74 32 -98 60 -14 17 -31 30 -39 30 -8 0 -38 22 -67 50 -44 42
-57 49 -88 47 -32 -2 -38 2 -64 43 -15 25 -37 78 -48 119 -11 40 -29 90 -39
110 -27 52 -114 131 -146 131 -14 0 -25 -3 -25 -7z m389 -587 c11 -23 23 -63
27 -91 4 -27 15 -72 25 -98 23 -59 24 -69 2 -65 -10 2 -18 13 -19 25 -1 12 -9
34 -18 47 -9 14 -16 40 -16 58 0 25 3 29 10 18 9 -13 10 -13 10 1 0 25 -26 53
-43 46 -21 -8 -34 10 -41 58 -4 30 -3 34 3 15 8 -22 9 -22 11 -5 1 11 2 23 2
26 -1 3 6 6 13 6 8 0 24 -19 34 -41z m101 -111 c36 -74 51 -120 59 -179 10
-71 9 -97 -3 -85 -3 2 -10 41 -17 87 -8 45 -17 82 -21 82 -4 0 -8 7 -8 16 0
19 -55 138 -81 176 -25 35 -24 46 2 22 12 -10 43 -64 69 -119z m-126 -21 c9
-3 16 -12 16 -20 0 -12 -4 -12 -20 -2 -30 19 -27 34 4 22z m143 -166 c-3 -8
-6 -5 -6 6 -1 11 2 17 5 13 3 -3 4 -12 1 -19z m140 16 c-3 -3 -12 -4 -19 -1
-8 3 -5 6 6 6 11 1 17 -2 13 -5z m-452 -44 c3 -5 2 -10 -4 -10 -6 0 -8 -6 -5
-14 3 -8 1 -17 -5 -21 -6 -3 -11 0 -11 9 0 8 -3 21 -6 30 -7 18 21 23 31 6z
m-610 -86 c-43 -71 -52 -80 -29 -29 15 34 51 85 60 85 1 0 -13 -25 -31 -56z
m605 16 c0 -5 -5 -10 -11 -10 -5 0 -7 5 -4 10 3 6 8 10 11 10 2 0 4 -4 4 -10z
m115 -20 c0 -8 -8 -16 -17 -18 -13 -3 -16 1 -11 14 4 11 3 15 -5 10 -6 -3 -14
-1 -17 5 -5 7 3 9 21 7 18 -2 29 -9 29 -18z m92 -37 c8 -19 12 -38 9 -41 -8
-7 -9 -4 -28 46 -19 50 -3 46 19 -5z m-287 17 c0 -5 -7 -7 -15 -4 -8 4 -12 10
-9 15 6 11 24 2 24 -11z m485 -106 c26 -38 41 -96 31 -113 -7 -11 -49 27 -67
60 -9 17 -8 24 2 31 11 8 11 9 -1 5 -8 -2 -16 -16 -18 -30 -4 -37 16 -133 31
-145 26 -22 40 -16 52 23 l13 40 1 -38 c1 -21 -4 -47 -9 -57 -9 -16 -15 -17
-40 -8 -47 16 -65 59 -63 153 2 135 7 165 23 166 12 0 12 2 1 6 -11 5 -11 7 0
14 11 6 15 -1 17 -32 2 -22 14 -56 27 -75z m-475 40 c20 -20 22 -24 7 -24 -9
0 -17 5 -17 11 0 5 -4 8 -9 4 -5 -3 -13 0 -17 6 -3 6 -20 17 -38 25 l-31 15
40 -6 c22 -4 51 -17 65 -31z m27 -76 c-3 -8 -6 -5 -6 6 -1 11 2 17 5 13 3 -3
4 -12 1 -19z m29 -43 c10 -26 -5 -65 -25 -65 -13 0 -21 -10 -27 -32 l-8 -33
-4 35 c-2 22 2 38 11 45 7 5 17 22 21 38 7 30 23 36 32 12z m919 -5 c3 -6 -1
-7 -9 -4 -18 7 -21 14 -7 14 6 0 13 -4 16 -10z m-920 -112 c-3 -11 -6 -23 -9
-25 -8 -9 -28 39 -22 54 9 23 36 -3 31 -29z m108 -22 c3 3 5 -6 3 -20 -1 -15
-6 -26 -10 -26 -4 0 -14 -6 -22 -15 -9 -8 -21 -12 -27 -8 -7 4 -4 9 8 13 16 5
16 7 3 12 -9 4 -20 2 -26 -4 -6 -6 -12 -6 -16 1 -4 6 4 15 19 21 14 5 28 17
31 25 5 11 10 13 19 5 6 -5 15 -7 18 -4z m298 -79 c-13 -13 -26 -3 -16 12 3 6
11 8 17 5 6 -4 6 -10 -1 -17z m58 -103 c12 -53 20 -98 18 -101 -2 -2 -12 8
-22 23 -9 15 -12 23 -6 20 14 -9 14 -9 -3 50 -8 27 -17 60 -20 74 -2 14 -4 6
-3 -17 2 -24 -2 -43 -8 -43 -5 0 -4 -4 4 -9 9 -6 15 -28 15 -63 l1 -53 -22 23
c-19 19 -23 33 -22 79 1 32 -3 59 -9 61 -17 5 -1 41 22 45 11 2 24 5 27 6 3 0
16 -42 28 -95z m-164 -86 c-14 -10 -19 17 -9 50 7 27 8 27 13 -8 4 -20 2 -38
-4 -42z m52 -100 c0 -10 -7 -18 -15 -18 -11 0 -12 3 -3 14 8 10 9 16 1 21 -5
3 -10 14 -10 23 0 14 2 13 14 -3 7 -11 13 -28 13 -37z m69 -20 c0 -18 3 -72 7
-120 5 -60 4 -88 -4 -88 -5 0 -7 5 -4 10 4 6 1 17 -5 25 -7 8 -8 15 -3 15 13
0 -7 153 -21 163 -8 5 -6 10 4 17 23 15 27 12 26 -22z m-286 9 c0 -2 -10 -12
-22 -23 l-23 -19 19 23 c18 21 26 27 26 19z m-1031 -71 c-15 -8 -39 -11 -60
-7 l-34 6 45 6 c73 10 76 10 49 -5z m941 1 c0 -2 -10 -12 -22 -23 l-23 -19 19
23 c18 21 26 27 26 19z m-765 -47 c3 -6 -1 -7 -9 -4 -18 7 -21 14 -7 14 6 0
13 -4 16 -10z m690 -16 c-29 -24 -77 -54 -64 -40 11 12 84 65 89 65 3 0 -8
-11 -25 -25z m1502 4 c-3 -8 -6 -5 -6 6 -1 11 2 17 5 13 3 -3 4 -12 1 -19z
m53 -100 c0 -23 -35 31 -36 56 -1 28 -1 28 17 -9 11 -21 19 -42 19 -47z m-50
32 c0 -5 -4 -10 -10 -10 -5 0 -10 5 -10 10 0 6 5 10 10 10 6 0 10 -4 10 -10z
m-2065 -17 c9 4 14 3 11 -1 -2 -4 9 -18 26 -32 83 -69 108 -93 103 -98 -3 -3
-15 3 -28 14 -12 11 -40 32 -63 47 -53 36 -84 65 -84 80 0 8 3 7 9 -2 5 -8 16
-11 26 -8z m405 -32 c-60 -43 -120 -79 -107 -65 15 16 142 102 152 103 5 1
-15 -17 -45 -38z m1734 4 c3 -8 1 -15 -4 -15 -6 0 -10 7 -10 15 0 8 2 15 4 15
2 0 6 -7 10 -15z m-1910 -114 c-6 -32 25 -96 46 -95 12 1 15 -7 12 -34 -3 -23
-7 -30 -13 -21 -13 22 -82 -49 -76 -78 2 -14 -1 -23 -8 -23 -33 0 -94 109 -95
169 0 32 1 33 18 18 17 -16 20 -15 50 16 37 38 40 53 12 62 -34 11 -22 21 20
17 36 -4 39 -6 34 -31z m56 35 c0 -2 -8 -10 -17 -17 -16 -13 -17 -12 -4 4 13
16 21 21 21 13z m1900 -27 c0 -6 -4 -7 -10 -4 -5 3 -10 11 -10 16 0 6 5 7 10
4 6 -3 10 -11 10 -16z m-20 -73 c0 -6 -8 -1 -18 12 -13 16 -21 20 -30 12 -8
-7 -9 -7 -3 1 5 6 7 19 3 28 -3 9 6 3 21 -13 15 -16 27 -34 27 -40z m-2290
-127 c0 -11 7 -19 15 -19 18 0 17 3 6 -38 -12 -39 3 -43 17 -4 8 25 42 42 42
21 0 -4 13 -21 29 -38 28 -29 28 -31 8 -31 -16 0 -18 -3 -8 -9 9 -6 10 -11 3
-15 -11 -7 -5 -37 10 -47 4 -3 2 -23 -6 -45 -8 -21 -15 -33 -15 -26 -1 6 -7
12 -15 12 -26 0 -61 -25 -58 -42 2 -9 -2 -19 -7 -23 -6 -3 -8 0 -5 8 3 8 1 18
-5 21 -6 4 -8 13 -4 21 3 8 0 15 -6 15 -6 0 -11 -4 -11 -10 0 -5 -7 -10 -15
-10 -9 0 -15 9 -15 21 0 17 -5 20 -23 17 -31 -6 -53 17 -37 37 9 11 9 15 1 15
-6 0 -11 -4 -11 -10 0 -15 -30 -12 -30 3 0 6 -9 1 -19 -12 -10 -13 -23 -21
-28 -18 -6 4 -13 -3 -16 -15 -5 -18 -8 -19 -21 -9 -15 13 -15 24 -1 106 6 35
3 46 -24 82 -35 48 -36 53 -18 53 22 0 88 -35 81 -43 -4 -4 10 -7 32 -6 34 1
36 2 14 9 -19 6 -20 8 -6 9 11 1 16 6 13 15 -4 9 0 12 12 9 11 -3 30 6 46 21
25 24 28 24 51 9 13 -8 24 -24 24 -34z m449 -5 c14 -18 18 -31 12 -42 -5 -8
-7 -24 -4 -36 3 -16 2 -17 -4 -4 -5 9 -20 30 -34 46 -20 21 -24 33 -17 45 13
23 23 21 47 -9z m263 -120 c4 -3 8 -11 8 -18 0 -20 -137 -171 -181 -200 l-39
-26 -2 80 c-1 44 -2 87 -2 95 -1 9 26 30 64 50 52 28 73 33 104 29 22 -2 43
-7 48 -10z m-283 -141 l0 -58 -18 45 c-12 30 -14 49 -8 58 19 24 27 11 26 -45z
m-75 -40 c9 -26 16 -64 16 -86 0 -34 -2 -39 -20 -34 -11 3 -18 2 -17 -1 2 -4
-4 -15 -15 -24 -10 -10 -18 -14 -18 -9 0 6 5 13 11 16 5 4 -7 15 -28 26 -21
10 -51 30 -68 43 l-30 24 44 39 c45 38 90 63 103 57 3 -2 13 -25 22 -51z
m-360 -9 c3 -8 2 -12 -4 -9 -6 3 -10 10 -10 16 0 14 7 11 14 -7z m526 -118
c-14 -7 -36 -16 -50 -20 -14 -3 -7 3 15 14 45 22 74 27 35 6z m-930 -20 c0 -2
-8 -10 -17 -17 -16 -13 -17 -12 -4 4 13 16 21 21 21 13z m1745 -93 c8 -20 13
-38 11 -41 -4 -3 -36 63 -36 74 0 14 12 -2 25 -33z m931 10 c-10 -10 -19 5
-10 18 6 11 8 11 12 0 2 -7 1 -15 -2 -18z m-1826 -34 c0 -6 -4 -7 -10 -4 -5 3
-10 11 -10 16 0 6 5 7 10 4 6 -3 10 -11 10 -16z m-75 -39 c3 -6 -1 -7 -9 -4
-18 7 -21 14 -7 14 6 0 13 -4 16 -10z m1015 -44 c0 -18 -17 8 -24 34 l-7 25
15 -25 c9 -14 15 -29 16 -34z"/>
<path d="M1098 1476 c-16 -19 -28 -42 -28 -51 0 -17 27 -75 36 -75 9 0 64 61
64 71 0 9 -38 89 -43 89 -1 0 -14 -16 -29 -34z"/>
<path d="M2510 2440 c0 -5 5 -10 10 -10 6 0 10 5 10 10 0 6 -4 10 -10 10 -5 0
-10 -4 -10 -10z"/>
<path d="M2520 2405 c7 -9 15 -13 17 -11 7 7 -7 26 -19 26 -6 0 -6 -6 2 -15z"/>
<path d="M2526 2368 c3 -4 9 -8 15 -8 5 0 9 4 9 8 0 5 -7 9 -15 9 -8 0 -12 -4
-9 -9z"/>
<path d="M2547 2339 c7 -7 15 -10 18 -7 3 3 -2 9 -12 12 -14 6 -15 5 -6 -5z"/>
<path d="M2606 2247 c3 -10 9 -15 12 -12 3 3 0 11 -7 18 -10 9 -11 8 -5 -6z"/>
<path d="M2626 2172 c9 -20 20 -47 25 -59 12 -31 27 -29 25 2 0 14 -4 25 -7
25 -4 0 -12 13 -19 29 -6 16 -18 32 -26 35 -12 4 -11 -1 2 -32z"/>
<path d="M2755 2050 c-6 -10 24 -59 36 -60 3 0 5 -11 4 -25 -2 -17 2 -25 12
-25 17 0 9 35 -13 61 -8 8 -14 23 -14 32 0 19 -16 31 -25 17z"/>
<path d="M2810 1911 c0 -5 5 -13 10 -16 6 -3 10 -2 10 4 0 5 -4 13 -10 16 -5
3 -10 2 -10 -4z"/>
<path d="M2917 1806 c-5 -12 -3 -15 5 -10 8 5 9 1 4 -12 -5 -14 -4 -16 4 -7 8
7 9 17 3 28 -9 16 -10 16 -16 1z"/>
<path d="M3242 1615 c13 -22 40 -73 58 -112 19 -43 39 -73 48 -73 12 0 12 3 2
15 -11 13 -10 14 6 8 18 -7 18 -6 1 20 -9 14 -17 31 -17 37 0 20 -64 99 -104
130 -16 12 -15 8 6 -25z"/>
<path d="M3695 1440 c24 -11 41 -15 44 -9 5 15 1 16 -44 22 l-40 6 40 -19z"/>
<path d="M3010 1441 c0 -7 -5 -9 -12 -5 -7 5 -8 3 -3 -5 5 -9 10 -10 18 -2 6
6 8 14 4 18 -4 3 -7 1 -7 -6z"/>
<path d="M3670 1419 c0 -5 5 -9 11 -9 5 0 8 -4 5 -8 -6 -10 40 -10 50 1 4 4 5
7 3 7 -2 0 -19 4 -37 9 -20 6 -32 6 -32 0z"/>
<path d="M1255 620 c-15 -28 -14 -32 5 -52 11 -12 39 -50 61 -84 55 -85 90
-97 69 -24 -8 29 -107 190 -116 190 -2 0 -10 -14 -19 -30z"/>
<path d="M1256 489 c3 -5 0 -9 -7 -9 -7 0 -10 -2 -8 -5 3 -2 18 -1 35 4 l29 8
-27 5 c-15 3 -25 1 -22 -3z"/>
<path d="M1283 453 c-17 -6 -17 -43 0 -43 7 0 18 5 23 10 8 8 15 6 23 -4 10
-12 8 -16 -8 -21 -23 -7 -27 -25 -9 -43 8 -8 9 -12 1 -12 -6 0 -21 12 -32 26
-12 15 -21 22 -21 16 0 -6 5 -14 10 -17 6 -3 10 -16 10 -28 0 -12 9 -37 20
-54 l20 -33 96 0 97 0 -19 21 c-14 16 -26 19 -51 14 -37 -7 -55 14 -34 39 15
18 -2 49 -37 68 -13 7 -30 25 -38 40 -14 27 -25 32 -51 21z m27 -13 c-20 -13
-33 -13 -25 0 3 6 14 10 23 10 15 0 15 -2 2 -10z"/>
</g>
</svg>
