<?xml version="1.0" standalone="no"?>
<!DOCTYPE svg PUBLIC "-//W3C//DTD SVG 20010904//EN"
 "http://www.w3.org/TR/2001/REC-SVG-20010904/DTD/svg10.dtd">
<svg version="1.0" xmlns="http://www.w3.org/2000/svg"
 width="1024.000000pt" height="1024.000000pt" viewBox="0 0 1024.000000 1024.000000"
 preserveAspectRatio="xMidYMid meet">

<g transform="translate(0.000000,1024.000000) scale(0.100000,-0.100000)"
fill="#000000" stroke="none">
<path d="M4670 9495 c-578 -59 -1095 -209 -1570 -453 -407 -210 -709 -427
-1029 -737 -601 -583 -996 -1282 -1170 -2070 -77 -350 -95 -524 -96 -930 0
-337 7 -450 46 -694 30 -189 95 -477 118 -519 5 -8 38 33 93 116 l86 129 -18
85 c-55 247 -79 454 -87 753 -13 539 65 1016 247 1511 57 155 199 453 286 601
284 485 730 959 1204 1280 380 258 841 463 1299 578 543 137 1184 156 1761 54
421 -74 909 -252 1299 -474 460 -260 911 -658 1226 -1080 92 -123 199 -285
192 -291 -2 -3 -26 5 -53 16 -27 12 -85 28 -129 37 -97 18 -335 20 -455 3
-105 -14 -301 -60 -399 -94 -41 -14 -75 -25 -76 -23 -2 1 1 27 6 57 21 149 5
346 -41 480 -86 253 -343 472 -619 527 -42 8 -100 29 -131 46 -87 49 -155 43
-240 -23 -19 -14 -64 -37 -100 -49 -280 -98 -475 -305 -552 -586 -17 -64 -22
-110 -23 -234 l-2 -153 -89 -37 c-164 -69 -189 -83 -192 -113 -5 -41 32 -53
208 -73 85 -9 166 -22 180 -28 57 -28 80 -135 67 -310 -9 -111 -8 -120 10
-145 29 -39 63 -48 126 -35 28 6 59 14 68 18 12 4 24 -12 53 -69 71 -144 165
-233 272 -257 67 -15 120 -5 236 46 73 33 118 38 118 16 0 -5 -41 -39 -92 -77
-51 -37 -175 -132 -276 -211 -160 -124 -187 -142 -210 -137 -25 6 -661 172
-1022 266 -278 73 -310 79 -330 68 -25 -13 -33 -30 -55 -113 -10 -38 -24 -71
-31 -74 -8 -3 -135 27 -282 66 -318 85 -461 116 -471 105 -4 -5 -22 -52 -40
-104 -48 -140 -114 -254 -217 -376 l-52 -61 56 -77 c162 -220 271 -489 303
-749 12 -97 7 -275 -11 -366 -5 -30 -9 -56 -7 -57 4 -5 161 185 249 301 265
351 500 746 653 1100 31 72 59 133 63 137 7 7 384 -93 847 -223 39 -11 360
-98 715 -195 355 -96 740 -201 855 -234 116 -32 365 -102 555 -155 424 -119
1112 -324 1124 -335 9 -9 -16 -207 -36 -287 l-10 -42 -72 72 c-47 49 -99 88
-156 120 -104 58 -384 169 -580 230 -264 82 -1032 294 -1690 467 -114 30 -146
38 -715 190 -209 55 -445 118 -525 140 -80 21 -159 41 -175 44 l-31 7 -74
-158 c-165 -348 -408 -731 -674 -1063 -507 -632 -959 -967 -1476 -1090 -109
-26 -304 -52 -327 -43 -32 11 -53 35 -53 60 0 57 25 72 155 93 153 24 350 86
510 160 251 115 565 366 654 522 79 140 111 301 93 471 -23 213 -61 345 -153
532 -239 486 -715 801 -1269 840 -118 9 -276 -9 -303 -33 -30 -27 -170 -223
-220 -309 -26 -44 -73 -144 -106 -224 -95 -234 -249 -530 -511 -989 -293 -510
-374 -646 -526 -879 -144 -220 -170 -299 -144 -448 19 -114 99 -262 246 -453
99 -129 102 -132 177 -188 150 -114 330 -132 495 -48 72 36 189 136 362 307
232 230 363 320 585 399 89 32 93 33 330 40 195 6 255 12 320 29 210 55 385
151 595 325 63 53 120 96 127 96 19 0 294 -143 373 -195 325 -214 575 -478
686 -725 l25 -55 -20 -90 c-69 -304 -101 -612 -108 -1057 -5 -336 -7 -358 -24
-358 -35 0 -336 41 -449 61 -561 101 -1164 349 -1615 664 -261 183 -544 439
-778 703 -37 42 -38 43 -60 25 -56 -44 -157 -137 -157 -145 0 -12 197 -232
282 -314 323 -315 662 -559 1063 -765 854 -439 1848 -582 2770 -398 1090 217
2107 882 2728 1784 369 534 594 1129 699 1845 20 138 22 194 22 510 1 277 -3
387 -17 500 -76 628 -266 1199 -567 1703 -172 289 -359 527 -625 793 -297 298
-555 493 -940 712 -491 280 -993 445 -1589 523 -201 27 -774 35 -976 14z
m-1609 -4061 c175 -96 242 -370 145 -598 -28 -67 -82 -123 -151 -157 -58 -29
-70 -31 -142 -27 -91 4 -136 23 -193 80 -196 196 -132 632 106 723 61 23 171
13 235 -21z"/>
<path d="M2836 5159 c-88 -24 -124 -148 -65 -223 63 -81 171 -69 211 22 50
112 -36 230 -146 201z"/>
<path d="M3047 7028 c-141 -140 -667 -709 -667 -722 0 -3 39 -6 86 -6 172 0
433 -52 609 -122 184 -72 339 -164 468 -277 32 -28 62 -51 67 -51 17 0 130
154 169 230 87 169 126 303 177 608 38 232 41 274 18 296 -37 38 -56 27 -454
-270 -273 -204 -262 -197 -284 -181 -17 12 -17 26 -2 277 18 304 17 310 -54
310 -36 0 -47 -7 -133 -92z"/>
</g>
</svg>
