<?xml version="1.0" encoding="UTF-8"?>
<svg version="1.1" xmlns="http://www.w3.org/2000/svg" width="943" height="264">
<path d="M0 0 C0.81496445 0.0199855 1.62992889 0.03997101 2.46958923 0.06056213 C3.39046829 0.08065842 4.31134735 0.1007547 5.26013184 0.12145996 C6.76168068 0.16201256 6.76168068 0.16201256 8.29356384 0.2033844 C9.31316696 0.22699539 10.33277008 0.25060638 11.38327026 0.27493286 C14.65428364 0.35178172 17.92507276 0.43571427 21.19590759 0.51979065 C23.407485 0.57299011 25.61907349 0.62573062 27.83067322 0.67799377 C33.26505812 0.80742538 38.69927518 0.94268015 44.13340759 1.08229065 C53.11112485 27.6854726 61.71419106 54.40014891 70.2063446 81.16181946 C72.53965092 88.51229506 74.87869241 95.86094878 77.21684265 103.20988464 C78.0671507 105.8829802 78.9169641 108.55623263 79.76670837 111.22950745 C82.99820101 121.39257364 86.24199328 131.55163026 89.49668884 141.70729065 C89.86297897 142.85050278 90.2292691 143.9937149 90.60665894 145.17156982 C92.39652269 150.75729054 94.18766586 156.34259597 95.9808197 161.92726135 C96.63067727 163.95418647 97.2805 165.98112275 97.93028259 168.0080719 C98.3730529 169.38473022 98.3730529 169.38473022 98.82476807 170.78919983 C104.18567144 187.52543017 104.18567144 187.52543017 102.05601501 192.70021057 C100.13340759 195.08229065 100.13340759 195.08229065 96.9471283 195.6499176 C95.66410828 195.62373352 94.38108826 195.59754944 93.05918884 195.5705719 C92.37535629 195.56349716 91.69152374 195.55642242 90.98696899 195.5491333 C88.805496 195.52117069 86.62660265 195.45844129 84.44590759 195.39479065 C82.966127 195.36970962 81.4863061 195.34689609 80.00645447 195.32643127 C76.38126896 195.271342 72.75759006 195.18506173 69.13340759 195.08229065 C67.14663527 189.88545109 65.30759196 184.68239408 63.65293884 179.37135315 C63.43522324 178.67714264 63.21750763 177.98293213 62.99319458 177.26768494 C62.53920465 175.81773246 62.08635837 174.36742143 61.6346283 172.91676331 C60.9407613 170.69078093 60.2413842 168.46657861 59.54161072 166.2424469 C59.09922283 164.82718561 58.65715381 163.4118246 58.21543884 161.99635315 C58.00611221 161.33181122 57.79678558 160.66726929 57.58111572 159.98258972 C56.13340759 155.31183035 56.13340759 155.31183035 56.13340759 153.08229065 C55.41016296 153.11782043 54.68691833 153.15335022 53.9417572 153.18995667 C28.31214356 154.37755925 2.77107111 153.80741954 -22.86659241 153.08229065 C-23.00468323 154.3261554 -23.14277405 155.57002014 -23.28504944 156.85157776 C-23.67924494 160.4023271 -24.63593913 163.44380113 -25.97499084 166.77027893 C-28.33500726 172.89003672 -30.12113314 179.24149683 -32.08143616 185.49830627 C-32.42561584 186.58691956 -32.76979553 187.67553284 -33.12440491 188.7971344 C-33.4352301 189.7883429 -33.7460553 190.77955139 -34.06629944 191.80079651 C-34.86659241 194.08229065 -34.86659241 194.08229065 -35.86659241 195.08229065 C-40.08610304 195.37253126 -44.31148709 195.39629569 -48.53968811 195.43238831 C-49.96075336 195.44892929 -51.38173604 195.47619586 -52.80238342 195.51441956 C-54.85156882 195.56928076 -56.89880215 195.59107368 -58.94862366 195.60572815 C-60.17814758 195.62554749 -61.40767151 195.64536682 -62.67445374 195.66578674 C-65.86659241 195.08229065 -65.86659241 195.08229065 -68.30751038 192.76173401 C-70.92136944 188.26954748 -69.23730182 184.5633879 -68.03456116 179.7580719 C-65.81253131 172.13588984 -63.42477537 164.59750635 -60.86659241 157.08229065 C-59.88361454 154.14605885 -58.90649936 151.20788088 -57.92909241 148.26979065 C-56.4614674 143.86183893 -54.99304361 139.45421033 -53.51112366 135.05104065 C-49.93097722 124.38771219 -46.46535443 113.71347891 -43.67518616 102.8127594 C-43.03666428 100.65659133 -42.28206118 98.5348195 -41.48744202 96.4311676 C-39.90828969 92.24811695 -38.49554662 88.02487278 -37.12440491 83.76979065 C-36.87415558 82.99780334 -36.62390625 82.22581604 -36.36607361 81.43043518 C-35.83917189 79.80376368 -35.31315274 78.17680605 -34.78797913 76.54957581 C-34.00241118 74.11580829 -33.21405022 71.68296027 -32.42518616 69.2502594 C-29.79305205 61.12179234 -27.19746424 52.98323426 -24.65925598 44.82495117 C-22.56104761 38.08498362 -20.40544219 31.36391729 -18.24159241 24.64479065 C-17.86002991 23.45691956 -17.47846741 22.26904846 -17.08534241 21.04518127 C-16.01659526 17.72285178 -14.94278819 14.40221371 -13.86659241 11.08229065 C-13.56785217 10.15400452 -13.26911194 9.22571838 -12.96131897 8.26930237 C-10.98292152 2.19861976 -10.98292152 2.19861976 -9.86659241 1.08229065 C-7.53325907 1.08229065 -5.19992574 1.08229065 -2.86659241 1.08229065 C-1.86659241 0.08229065 -1.86659241 0.08229065 0 0 Z M15.13340759 34.08229065 C11.54053402 42.47737093 8.82358447 51.11801887 6.13340759 59.83229065 C5.17271004 62.93303089 4.21009406 66.03317195 3.24668884 69.1330719 C2.99816666 69.93398758 2.74964447 70.73490326 2.49359131 71.56008911 C0.60658788 77.62006047 -1.34909823 83.65582123 -3.32362366 89.6877594 C-4.16778461 92.28630783 -5.01053941 94.88530732 -5.85267639 97.48451233 C-6.40220806 99.1703651 -6.95687427 100.85455309 -7.51673889 102.53700256 C-8.29914035 104.89040534 -9.06318154 107.24906101 -9.82362366 109.6096344 C-10.06152115 110.30912704 -10.29941864 111.00861969 -10.54452515 111.72930908 C-11.90853035 116.03985459 -12.00355294 116.80836958 -9.86659241 121.08229065 C8.61340759 121.08229065 27.09340759 121.08229065 46.13340759 121.08229065 C44.86337287 115.36713441 43.60009725 110.06208585 41.84825134 104.5315094 C41.52276558 103.49879662 41.52276558 103.49879662 41.19070435 102.44522095 C40.48788395 100.21886148 39.7795534 97.99430203 39.07090759 95.76979065 C38.5776509 94.21225432 38.08465282 92.65463607 37.59190369 91.09693909 C36.11180015 86.42345158 34.62358236 81.75257507 33.13340759 77.08229065 C32.91199097 76.3877478 32.69057434 75.69320496 32.46244812 74.97761536 C28.10705209 61.31700302 23.72994323 47.66401404 19.13340759 34.08229065 C17.81340759 34.08229065 16.49340759 34.08229065 15.13340759 34.08229065 Z " fill="#685491" transform="translate(81.86659240722656,35.91770935058594)"/>
<path d="M0 0 C0.76927889 -0.0093992 1.53855778 -0.01879841 2.33114815 -0.02848244 C6.39741613 -0.07571407 10.46356168 -0.10953069 14.5300293 -0.13354492 C17.86590616 -0.15577921 21.19975467 -0.20461214 24.53491211 -0.27709961 C28.60035474 -0.36545284 32.66398457 -0.40848851 36.73034859 -0.42005348 C38.26409572 -0.43152724 39.79781716 -0.45807724 41.331007 -0.50098228 C52.86151524 -0.80475506 58.96991325 1.58580041 67.59765625 9.51171875 C68.5250914 10.05705765 69.45252655 10.60239655 70.4080658 11.16426086 C73.40969549 14.38230526 73.11462105 16.6940118 73.03710938 20.97265625 C72.99521484 21.89304687 72.95332031 22.8134375 72.91015625 23.76171875 C72.87631836 25.16550781 72.87631836 25.16550781 72.84179688 26.59765625 C72.7829622 28.90397549 72.70082771 31.20702713 72.59765625 33.51171875 C71.52912415 33.52202621 70.46059204 33.53233368 69.35968018 33.54295349 C59.29502631 33.64066446 49.23043459 33.74339644 39.16588211 33.85105801 C33.99146903 33.90624749 28.81705025 33.95966119 23.64257812 34.0090332 C18.64994133 34.0567353 13.65737291 34.10908032 8.66481781 34.1646595 C6.75903779 34.18505654 4.85323903 34.20377399 2.94742584 34.22079277 C0.28031132 34.2448954 -2.38667441 34.27494203 -5.05371094 34.30639648 C-5.84349335 34.31215195 -6.63327576 34.31790741 -7.44699097 34.32383728 C-10.92882266 34.37058296 -14.05103381 34.58157939 -17.40234375 35.51171875 C-19.25386941 41.80102813 -19.70862875 47.47327823 -19.65234375 54.01171875 C-19.66007812 54.91019531 -19.6678125 55.80867188 -19.67578125 56.734375 C-19.67191406 58.06275391 -19.67191406 58.06275391 -19.66796875 59.41796875 C-19.66571289 60.20494141 -19.66345703 60.99191406 -19.66113281 61.80273438 C-19.30752829 65.50423981 -18.36184618 68.91953984 -17.40234375 72.51171875 C-8.34441527 74.95141139 0.72523714 76.99144525 9.94921875 78.6953125 C10.94499939 78.87977936 11.94078003 79.06424622 12.96673584 79.25430298 C17.08963839 80.01413554 21.21352036 80.76798844 25.33984375 81.5090332 C62.1600542 88.14907588 62.1600542 88.14907588 71.97265625 101.88671875 C77.20050269 110.37291824 78.74345569 119.22764831 78.8359375 129.07421875 C78.84400925 129.90195801 78.85208099 130.72969727 78.86039734 131.58251953 C78.87419754 133.33412612 78.88493778 135.08575914 78.89282227 136.83740234 C78.90428595 138.60603878 78.92464773 140.37464217 78.9543457 142.14306641 C79.20128194 156.87370983 78.12344032 170.43438538 68.59765625 182.51171875 C59.66724341 191.5816693 48.04953686 194.55788702 35.66479492 194.81567383 C34.88021912 194.83509537 34.09564331 194.85451691 33.28729248 194.87452698 C26.04264404 195.0434133 18.79659211 195.1401254 11.55042553 195.2155962 C6.69599862 195.26683534 1.84444196 195.34099755 -3.00854492 195.47192383 C-7.72198871 195.59854312 -12.43285368 195.6641317 -17.14789391 195.68918419 C-18.92969558 195.70861284 -20.7114138 195.74861824 -22.49222755 195.81104469 C-36.1047076 196.26576587 -43.92288179 192.98386865 -54.13019848 183.93470287 C-57.58058903 180.07519792 -56.57747109 174.33501755 -56.40234375 169.51171875 C-56.22762003 167.07869101 -55.91246182 164.90927366 -55.40234375 162.51171875 C-52.22065251 160.92087313 -48.79150548 161.40932713 -45.30004883 161.44580078 C-44.46244019 161.45047363 -43.62483154 161.45514648 -42.76184082 161.45996094 C-40.93881258 161.47047935 -39.1157958 161.48314717 -37.29279518 161.49768448 C-34.40488614 161.51966053 -31.51704234 161.53377076 -28.6290741 161.54537964 C-20.41628056 161.57901194 -12.20359439 161.62047526 -3.9909668 161.68310547 C1.02987202 161.72082944 6.05059848 161.74380168 11.071558 161.75741196 C12.98328081 161.76545228 14.89498882 161.77904143 16.80663109 161.79834366 C19.48735633 161.82492696 22.16754761 161.83272552 24.84838867 161.83642578 C26.02619652 161.85496109 26.02619652 161.85496109 27.22779846 161.87387085 C32.39068937 161.85514968 36.04916533 161.02634022 40.59765625 158.51171875 C42.28831941 153.43972927 41.82297645 148.05088067 41.83789062 142.74267578 C41.8475902 140.65096169 41.87862387 138.56023338 41.91015625 136.46875 C41.91668765 135.13151622 41.92193758 133.79427545 41.92578125 132.45703125 C41.93512695 131.24547363 41.94447266 130.03391602 41.95410156 128.78564453 C41.55475265 125.11765212 40.98467323 123.32135513 38.59765625 120.51171875 C35.84917752 119.19798129 35.84917752 119.19798129 32.484375 118.5078125 C31.84030197 118.35154892 31.19622894 118.19528534 30.53263855 118.0342865 C18.79559015 115.27463595 6.88839861 113.16615483 -4.95874023 110.94165039 C-39.68958486 104.39463418 -39.68958486 104.39463418 -48.9609375 91.3125 C-59.73213461 72.99826872 -58.24081367 48.08217964 -53.84765625 27.97265625 C-51.41803444 19.24401494 -44.91878342 11.47712435 -37.40234375 6.51171875 C-25.67695163 0.41773279 -12.93169752 0.14326973 0 0 Z " fill="#685491" transform="translate(370.40234375,36.48828125)"/>
<path d="M0 0 C3.93857472 0.04208977 7.87544552 0.04103354 11.81420898 0.03417969 C14.34872594 0.04466733 16.8832342 0.05760312 19.41772461 0.07324219 C20.5794368 0.0734436 21.74114899 0.07364502 22.93806458 0.07385254 C35.16664861 0.2493503 46.63264035 2.83390455 55.69116211 11.53417969 C68.92417097 26.23752287 67.00492483 44.30828986 66.80444336 62.91699219 C66.74256836 71.04324219 66.68069336 79.16949219 66.61694336 87.54199219 C36.25694336 87.54199219 5.89694336 87.54199219 -25.38305664 87.54199219 C-25.89494861 101.98963372 -25.89494861 101.98963372 -20.73968506 116.45246887 C-17.41479702 117.98964079 -14.27021977 117.98148438 -10.67700195 117.97436523 C-9.52032768 117.98965271 -9.52032768 117.98965271 -8.34028625 118.00524902 C-5.79717757 118.03538922 -3.2544455 118.04464635 -0.71118164 118.05371094 C1.05431369 118.0705569 2.81979702 118.08870703 4.58526611 118.10810852 C9.2278061 118.15562379 13.87029742 118.18542324 18.51300049 118.21154785 C23.25217294 118.24134568 27.99117774 118.28787868 32.73022461 118.33300781 C42.02570985 118.41905828 51.32122958 118.48639581 60.61694336 118.54199219 C61.67215541 122.41234216 61.85428252 126.02286497 61.92944336 130.04199219 C61.98551758 132.00652344 61.98551758 132.00652344 62.04272461 134.01074219 C61.61694336 137.54199219 61.61694336 137.54199219 59.74975586 139.91699219 C57.46172395 141.66025459 55.09858186 143.08932575 52.61694336 144.54199219 C51.88564209 145.21762207 51.15434082 145.89325195 50.40087891 146.58935547 C46.91296729 149.03575704 44.74723309 149.13108327 40.51147461 149.28417969 C39.81802444 149.31269012 39.12457428 149.34120056 38.41011047 149.37057495 C36.14561389 149.45350146 33.88259954 149.5027368 31.61694336 149.54199219 C30.85331482 149.55653442 30.08968628 149.57107666 29.30291748 149.58605957 C24.46527965 149.66667213 19.62924543 149.68472633 14.79101562 149.67236328 C12.31691297 149.66701912 9.84299359 149.67234008 7.36889648 149.67871094 C-0.98410282 149.68320583 -9.3200945 149.53436954 -17.66430664 149.13964844 C-18.43418411 149.10666656 -19.20406158 149.07368469 -19.99726868 149.03970337 C-30.35872926 148.48628492 -39.70413189 145.81583605 -47.38305664 138.54199219 C-47.92446289 138.04054687 -48.46586914 137.53910156 -49.02368164 137.02246094 C-57.56742997 128.15508578 -59.48045625 116.45374676 -59.73461914 104.67871094 C-59.75836105 103.70628448 -59.78210297 102.73385803 -59.80656433 101.73196411 C-59.88056541 98.56457943 -59.94578496 95.39712837 -60.00805664 92.22949219 C-60.02951752 91.15275238 -60.05097839 90.07601257 -60.0730896 88.96664429 C-60.3191568 76.08688988 -60.54271962 63.20319357 -60.24090576 50.32266235 C-60.19717837 48.42487593 -60.16896871 46.52675142 -60.14135742 44.62866211 C-59.75822475 32.82636704 -57.06809931 21.74239538 -49.38305664 12.54199219 C-48.85454102 11.90519531 -48.32602539 11.26839844 -47.78149414 10.61230469 C-35.61423901 -1.8765519 -15.9226556 -0.17956757 0 0 Z M-22.38305664 33.54199219 C-27.70257089 41.52126357 -25.38305664 51.18053514 -25.38305664 60.54199219 C-6.24305664 60.54199219 12.89694336 60.54199219 32.61694336 60.54199219 C32.63606766 51.87581497 32.63606766 51.87581497 32.36694336 43.22949219 C32.32053711 42.07835937 32.27413086 40.92722656 32.22631836 39.74121094 C31.50697879 35.96467821 30.31352402 34.24349362 27.61694336 31.54199219 C24.90697962 30.63867094 23.28824573 30.40713897 20.50024414 30.38085938 C19.26348434 30.36644806 19.26348434 30.36644806 18.0017395 30.35174561 C17.1142099 30.34749573 16.2266803 30.34324585 15.31225586 30.33886719 C14.39612518 30.33316711 13.47999451 30.32746704 12.53610229 30.32159424 C10.59772902 30.31214892 8.65933972 30.30561211 6.72094727 30.30175781 C3.76021234 30.29205208 0.80017163 30.26102432 -2.16040039 30.22949219 C-4.04451086 30.22296189 -5.92862628 30.21771152 -7.81274414 30.21386719 C-8.69622528 30.20152039 -9.57970642 30.18917358 -10.48995972 30.17645264 C-15.26896801 30.19371562 -18.53683915 30.3786613 -22.38305664 33.54199219 Z " fill="#685491" transform="translate(541.383056640625,82.4580078125)"/>
<path d="M0 0 C0.95213882 -0.00302124 1.90427765 -0.00604248 2.88526917 -0.00915527 C3.91095505 -0.00202515 4.93664093 0.00510498 5.9934082 0.01245117 C7.6107914 0.01239075 7.6107914 0.01239075 9.260849 0.0123291 C12.77208664 0.01572402 16.28301487 0.03459774 19.79418945 0.05541992 C22.20548444 0.06428753 24.61678003 0.07299458 27.02807617 0.08154297 C34.05453221 0.11287146 41.0805392 0.17107762 48.10668945 0.24291992 C49.07257996 0.25258789 50.03847046 0.26225586 51.03363037 0.2722168 C55.89957122 0.32460799 60.76433424 0.39722064 65.62930298 0.50839233 C67.00956691 0.539267 68.38992808 0.56611089 69.77035522 0.58853149 C82.5443703 0.81257447 95.76948785 2.80497135 105.6652832 11.64916992 C118.0568224 25.35038399 117.26727602 44.10666397 117.23950195 61.43041992 C117.24052008 62.76994351 117.24186096 64.10946689 117.24349976 65.44898987 C117.24616512 68.9872467 117.24179361 72.5254587 117.23526001 76.06370926 C117.23167521 78.25161114 117.2300682 80.43950643 117.22900391 82.62741089 C117.21556048 104.84369938 116.9684439 127.04128331 116.10668945 149.24291992 C112.87826276 149.44483967 109.64897143 149.62660082 106.41918945 149.80541992 C105.52651367 149.86149414 104.63383789 149.91756836 103.71411133 149.9753418 C98.50003149 150.25367346 93.44722593 150.1813817 88.24023438 149.75048828 C87.08657883 149.6565831 85.93292328 149.56267792 84.74430847 149.46592712 C83.8738942 149.39233475 83.00347992 149.31874237 82.10668945 149.24291992 C82.10337931 148.68669386 82.10006916 148.1304678 82.09665871 147.5573864 C82.01536903 134.01093107 81.9231329 120.46458816 81.81916237 106.91828728 C81.76921263 100.36734002 81.72288224 93.81640879 81.68481445 87.26538086 C81.64794528 80.94351146 81.60158046 74.62177654 81.54862595 68.30002213 C81.53009076 65.88792403 81.51497957 63.47579711 81.50334549 61.06365585 C81.4864684 57.68560765 81.457429 54.30786683 81.42553711 50.92993164 C81.42337692 49.9322728 81.42121674 48.93461395 81.41899109 47.90672302 C81.34359949 40.86349939 81.34359949 40.86349939 79.10668945 34.24291992 C76.28611573 32.14391183 73.83656166 32.00024055 70.38574219 32.03173828 C68.98925697 32.03680641 68.98925697 32.03680641 67.56455994 32.04197693 C66.06754295 32.06216637 66.06754295 32.06216637 64.5402832 32.08276367 C63.5098439 32.08796524 62.4794046 32.09316681 61.41773987 32.098526 C58.1264129 32.11633566 54.8353974 32.14751024 51.54418945 32.18041992 C48.24944144 32.20803021 44.95473735 32.23273831 41.65992737 32.25160217 C39.60986871 32.26386548 37.55983375 32.2814751 35.50987244 32.30491638 C34.11811546 32.31471275 34.11811546 32.31471275 32.69824219 32.32470703 C31.88201889 32.33296005 31.06579559 32.34121307 30.22483826 32.34971619 C28.10668945 32.24291992 28.10668945 32.24291992 25.10668945 31.24291992 C25.10668945 70.18291992 25.10668945 109.12291992 25.10668945 149.24291992 C8.77168945 149.73791992 8.77168945 149.73791992 -7.89331055 150.24291992 C-9.89331055 148.24291992 -9.89331055 148.24291992 -10.1394062 145.71668816 C-10.13756262 144.64187754 -10.13571903 143.56706692 -10.13381958 142.45968628 C-10.13656891 141.22847046 -10.13931824 139.99725464 -10.14215088 138.72872925 C-10.13507214 137.35699366 -10.12780251 135.98525906 -10.12036133 134.61352539 C-10.11979743 133.17482511 -10.12011336 131.73612426 -10.12124634 130.29742432 C-10.12182168 126.38439431 -10.11003816 122.47148617 -10.09609842 118.55848455 C-10.08362118 114.47186744 -10.08242294 110.38524773 -10.08004761 106.2986145 C-10.07382397 98.55672362 -10.05740125 90.81488902 -10.03734863 83.07302296 C-10.01501706 74.26057658 -10.00400311 65.44812755 -9.99395776 56.63565993 C-9.97303576 38.50471465 -9.93784268 20.37382181 -9.89331055 2.24291992 C-6.40297499 0.78122134 -3.79574582 -0.00653352 0 0 Z " fill="#685491" transform="translate(654.893310546875,81.757080078125)"/>
<path d="M0 0 C2.60786896 -0.03812437 5.2155057 -0.0995016 7.82226562 -0.18457031 C34.26877972 -1.03887012 34.26877972 -1.03887012 43.19633484 6.52323914 C47.40494086 11.06302237 47.71745485 15.94792885 47.61206055 21.94262695 C47.43355207 24.91277834 47.12275026 27.80123349 46.73706055 30.75512695 C45.56981194 30.76392632 45.56981194 30.76392632 44.37898254 30.77290344 C37.03696881 30.83086433 29.69529312 30.90296004 22.35358143 30.99084187 C18.57933001 31.03552432 14.805186 31.07478484 11.03076172 31.1015625 C7.38658876 31.12761714 3.7428296 31.16803404 0.09891319 31.21831322 C-1.2896541 31.23496748 -2.67829294 31.24649076 -4.06694603 31.25274086 C-6.01544965 31.26239667 -7.96382187 31.29216956 -9.91210938 31.32275391 C-11.57423714 31.33940849 -11.57423714 31.33940849 -13.26994324 31.35639954 C-16.63832455 31.80513581 -18.53278017 32.76658944 -21.26293945 34.75512695 C-24.18201153 39.00586031 -23.76373771 43.80191924 -23.26293945 48.75512695 C-21.57564399 53.63940328 -19.8376679 55.49627291 -15.26293945 57.75512695 C-12.50503204 58.35763076 -9.85401834 58.83602002 -7.06762695 59.2199707 C-6.27953644 59.33941544 -5.49144592 59.45886017 -4.67947388 59.58192444 C-1.33073074 60.08923771 2.02148905 60.57145981 5.3737793 61.0546875 C21.459265 63.39838317 36.37710878 66.33218686 47.2331543 79.5559082 C51.66221634 86.03269244 53.43412031 93.004906 53.73706055 100.75512695 C53.78862305 101.67036133 53.84018555 102.5855957 53.89331055 103.52856445 C54.29784411 116.37250501 51.56923299 127.94474638 42.9909668 137.7512207 C35.02069491 145.4563692 24.39863537 148.74674837 13.51660156 149.02734375 C11.66295738 149.07564583 11.66295738 149.07564583 9.77186584 149.12492371 C4.85434371 149.22778657 -0.06361759 149.3018634 -4.98191738 149.35538006 C-8.70183029 149.39620008 -12.41908065 149.4562316 -16.13769531 149.56445312 C-46.03699528 150.41222573 -46.03699528 150.41222573 -54.84545898 142.98736572 C-57.63487779 140.16276439 -59.10686264 137.5709825 -59.6652832 133.6574707 C-59.54223633 131.17114258 -59.54223633 131.17114258 -59.20043945 128.69262695 C-59.1456543 127.83991211 -59.09086914 126.98719727 -59.03442383 126.10864258 C-58.58766918 120.07985668 -58.58766918 120.07985668 -57.26293945 118.75512695 C-55.14232403 118.6469606 -53.01811697 118.60882526 -50.89477539 118.59741211 C-49.89710899 118.58979103 -49.89710899 118.58979103 -48.87928772 118.58201599 C-47.43004436 118.57129027 -45.98078421 118.56267878 -44.53151703 118.55589676 C-42.23643777 118.54413371 -39.94154892 118.52468616 -37.64654541 118.5027771 C-31.11949013 118.44108575 -24.59245156 118.38716671 -18.06518555 118.35375977 C-14.07625957 118.33279166 -10.08767582 118.29746606 -6.09894562 118.25300217 C-4.57918585 118.2388526 -3.05936547 118.23012207 -1.53954315 118.22694778 C0.59110678 118.22202848 2.7208527 118.19884446 4.85131836 118.17163086 C6.06297668 118.16354401 7.27463501 118.15545715 8.52301025 118.14712524 C12.02934331 117.71947899 13.92878569 116.86115222 16.73706055 114.75512695 C19.19649621 109.83625563 18.6682306 101.73487111 17.0534668 96.56762695 C14.73482187 92.71925363 11.87172232 91.91715411 7.73706055 90.75512695 C5.0548281 90.2615037 2.39400169 89.81777607 -0.30200195 89.4230957 C-1.86850017 89.17954586 -3.43490353 88.93538526 -5.0012207 88.69067383 C-7.43536357 88.31572117 -9.86989876 87.94528771 -12.30639648 87.5859375 C-27.1802802 85.37651006 -41.43889033 82.2340218 -51.51293945 70.13012695 C-59.54050016 58.43971751 -59.58992059 44.77876962 -57.7902832 31.18481445 C-55.54800329 20.68503667 -49.89016464 13.01761178 -41.26293945 6.75512695 C-28.93357323 -1.05754075 -14.03109783 0.15219637 0 0 Z " fill="#685491" transform="translate(864.262939453125,82.244873046875)"/>
<path d="M0 0 C1.85927919 -0.04148231 3.71823393 -0.10267728 5.57617188 -0.18457031 C17.72043966 -0.7097571 25.96249697 0.14757248 35.45507812 8.16845703 C39.49320863 12.26770342 39.02840518 16.31593411 38.99975586 21.74975586 C39.00362305 22.4909668 39.00749023 23.23217773 39.01147461 23.99584961 C39.00141566 29.49809606 39.00141566 29.49809606 37.87475586 30.62475586 C34.85570882 30.76059578 31.85641631 30.8354837 28.83569336 30.87084961 C26.95678285 30.90381059 25.07787671 30.93702183 23.19897461 30.97045898 C20.23009505 31.0177279 17.2612303 31.06210336 14.29223633 31.1015625 C11.43152357 31.14148721 8.57119268 31.19300729 5.71069336 31.24584961 C4.83126068 31.25426376 3.951828 31.26267792 3.04574585 31.27134705 C2.20863068 31.28798904 1.3715155 31.30463104 0.5090332 31.32177734 C-0.2185318 31.33208481 -0.9460968 31.34239227 -1.69570923 31.35301208 C-4.96555627 31.71874487 -7.98512943 32.66515779 -11.12524414 33.62475586 C-11.12432235 34.21135955 -11.12340055 34.79796324 -11.12245083 35.4023428 C-11.10039482 49.65629374 -11.08383221 63.91024214 -11.07343197 78.1642065 C-11.0682692 85.05723113 -11.06122686 91.95024439 -11.04980469 98.84326172 C-11.03879714 105.48921751 -11.03296792 112.13516455 -11.0303669 118.78112984 C-11.02851213 121.32298532 -11.02489054 123.86484012 -11.01951408 126.4066906 C-11.01230747 129.95327048 -11.01125304 133.49980076 -11.01171875 137.04638672 C-11.00812347 138.10877563 -11.0045282 139.17116455 -11.00082397 140.26574707 C-11.00219864 141.2263353 -11.0035733 142.18692352 -11.00498962 143.17662048 C-11.00406783 144.01637389 -11.00314604 144.8561273 -11.00219631 145.72132778 C-11.12524414 147.62475586 -11.12524414 147.62475586 -12.12524414 148.62475586 C-16.6762321 149.01362647 -21.24844405 149.09587762 -25.81274414 149.24975586 C-27.09342773 149.30131836 -28.37411133 149.35288086 -29.69360352 149.40600586 C-30.93303711 149.44983398 -32.1724707 149.49366211 -33.44946289 149.53881836 C-35.15235474 149.59996826 -35.15235474 149.59996826 -36.88964844 149.66235352 C-40.0813093 149.62526638 -42.98911188 149.18259076 -46.12524414 148.62475586 C-46.24205184 131.5005076 -46.33021954 114.37638369 -46.384305 97.25182819 C-46.41008548 89.30056248 -46.44523269 81.34954432 -46.50244141 73.3984375 C-46.55228157 66.46813946 -46.5845363 59.53802069 -46.59568661 52.60754842 C-46.60220449 48.93789584 -46.61751897 45.26875613 -46.65389442 41.59926796 C-46.69417627 37.50247078 -46.69519321 33.40656487 -46.69287109 29.30957031 C-46.71084747 28.09324921 -46.72882385 26.8769281 -46.74734497 25.62374878 C-46.69106791 16.47359354 -46.69106791 16.47359354 -43.70549011 13.43571472 C-42.85400894 12.8380983 -42.00252777 12.24048187 -41.12524414 11.62475586 C-40.2087207 10.80297852 -40.2087207 10.80297852 -39.27368164 9.96459961 C-27.57536368 0.71416756 -14.25844886 0.24783224 0 0 Z " fill="#685591" transform="translate(255.125244140625,82.375244140625)"/>
<path d="M0 0 C1.35106087 0.0001133 1.35106087 0.0001133 2.72941589 0.00022888 C3.69825211 0.00539017 4.66708832 0.01055145 5.6652832 0.01586914 C7.15714897 0.01799156 7.15714897 0.01799156 8.67915344 0.02015686 C11.85815428 0.02575779 15.03708488 0.03831043 18.21606445 0.05102539 C20.37036031 0.05604027 22.52465727 0.0606032 24.67895508 0.06469727 C29.9621822 0.07572751 35.24536831 0.09246653 40.52856445 0.11352539 C40.19856445 0.77352539 39.86856445 1.43352539 39.52856445 2.11352539 C38.29291748 2.13334473 37.05727051 2.15316406 35.78417969 2.17358398 C31.17883696 2.24993113 26.57379823 2.33860296 21.96875 2.4309082 C19.97955346 2.469078 17.99029071 2.50395137 16.00097656 2.53540039 C13.13363056 2.58131236 10.26673558 2.63926286 7.3996582 2.69946289 C6.0758036 2.7167897 6.0758036 2.7167897 4.72520447 2.73446655 C3.46469017 2.76427109 3.46469017 2.76427109 2.17871094 2.79467773 C1.44812973 2.8080014 0.71754852 2.82132507 -0.03517151 2.83505249 C-3.30556622 3.20886924 -6.3295346 4.15405571 -9.47143555 5.11352539 C-9.47051375 5.70012908 -9.46959196 6.28673277 -9.46864223 6.89111233 C-9.44658622 21.14506327 -9.43002361 35.39901167 -9.41962337 49.65297604 C-9.4144606 56.54600066 -9.40741826 63.43901392 -9.39599609 70.33203125 C-9.38498854 76.97798704 -9.37915933 83.62393408 -9.3765583 90.26989937 C-9.37470353 92.81175485 -9.37108194 95.35360965 -9.36570549 97.89546013 C-9.35849887 101.44204001 -9.35744444 104.98857029 -9.35791016 108.53515625 C-9.35431488 109.59754517 -9.3507196 110.65993408 -9.34701538 111.7545166 C-9.34839005 112.71510483 -9.34976471 113.67569305 -9.35118103 114.66539001 C-9.35025924 115.50514342 -9.34933744 116.34489683 -9.34838772 117.21009731 C-9.47143555 119.11352539 -9.47143555 119.11352539 -10.47143555 120.11352539 C-15.02242351 120.502396 -19.59463545 120.58464715 -24.15893555 120.73852539 C-25.43961914 120.79008789 -26.72030273 120.84165039 -28.03979492 120.89477539 C-29.27922852 120.93860352 -30.51866211 120.98243164 -31.7956543 121.02758789 C-32.93091553 121.06835449 -34.06617676 121.10912109 -35.23583984 121.15112305 C-38.42349494 121.11408246 -41.34744539 120.72479863 -44.47143555 120.11352539 C-43.97643555 119.12352539 -43.97643555 119.12352539 -43.47143555 118.11352539 C-39.43173499 117.18204996 -35.55001968 116.99456362 -31.41674805 117.01586914 C-30.41659668 117.0183667 -29.41644531 117.02086426 -28.38598633 117.0234375 C-27.13543457 117.0325415 -25.88488281 117.04164551 -24.59643555 117.05102539 C-22.43351419 117.06252244 -20.27059084 117.07364762 -18.10766602 117.08447266 C-16.22892253 117.0941569 -14.35017904 117.10384115 -12.47143555 117.11352539 C-12.38757228 93.19443209 -12.61623612 69.28448827 -12.93499756 45.36773682 C-12.99684162 40.69317546 -13.05628402 36.01858351 -13.1159668 31.34399414 C-13.23219027 22.26714092 -13.35093851 13.19032282 -13.47143555 4.11352539 C-12.48143555 4.11352539 -11.49143555 4.11352539 -10.47143555 4.11352539 C-9.45039004 3.13502344 -8.45082345 2.13372112 -7.47143555 1.11352539 C-4.64131428 0.17015163 -2.92843637 -0.0082029 0 0 Z " fill="#5C4B83" transform="translate(253.471435546875,110.886474609375)"/>
<path d="M0 0 C0 30.33333333 0 60.66666667 0 91 C0.01169091 93.15364598 0.0234145 95.30729179 0.03515625 97.4609375 C0.04208655 99.42122279 0.04898993 101.38150834 0.05493164 103.34179688 C0.05996391 104.69369281 0.06679031 106.0455833 0.07543945 107.39746094 C0.08762715 109.35609587 0.09272009 111.31477087 0.09765625 113.2734375 C0.10289307 114.44310059 0.10812988 115.61276367 0.11352539 116.81787109 C0.01136453 119.68145089 -0.37575001 122.21355541 -1 125 C-1 125.66 -1 126.32 -1 127 C0.98 127.66 2.96 128.32 5 129 C5 129.33 5 129.66 5 130 C2.125 130.625 2.125 130.625 -1 131 C-3 129 -3 129 -3.24609566 126.75488091 C-3.24425207 125.81280848 -3.24240849 124.87073605 -3.24050903 123.90011597 C-3.24325836 122.82035492 -3.24600769 121.74059387 -3.24884033 120.62811279 C-3.2380545 118.84355682 -3.2380545 118.84355682 -3.22705078 117.02294922 C-3.22734283 115.77420013 -3.22763489 114.52545105 -3.22793579 113.23886108 C-3.22677902 109.80924301 -3.21673053 106.37986403 -3.20278788 102.9502883 C-3.19030758 99.36816197 -3.18911216 95.78603265 -3.18673706 92.20388794 C-3.18051433 85.41822436 -3.16409283 78.63262501 -3.14403808 71.84698975 C-3.12170371 64.12279466 -3.11069186 56.39859654 -3.10064721 48.6743772 C-3.07972725 32.7828809 -3.04453592 16.89144872 -3 1 C-1 0 -1 0 0 0 Z " fill="#615187" transform="translate(648,101)"/>
<path d="M0 0 C0.33 0 0.66 0 1 0 C1 16.83 1 33.66 1 51 C-29.36 51 -59.72 51 -91 51 C-91 57.6 -91 64.2 -91 71 C-91.99 71.495 -91.99 71.495 -93 72 C-93.02887512 68.35418313 -93.04675585 64.70839537 -93.0625 61.0625 C-93.07087891 60.02158203 -93.07925781 58.98066406 -93.08789062 57.90820312 C-93.09272461 56.42416992 -93.09272461 56.42416992 -93.09765625 54.91015625 C-93.10289307 53.99371338 -93.10812988 53.07727051 -93.11352539 52.13305664 C-93 50 -93 50 -92 49 C-89.13908182 48.90477582 -86.30236379 48.87446674 -83.44116211 48.88647461 C-82.54368759 48.88632858 -81.64621307 48.88618256 -80.72154236 48.8860321 C-77.74011866 48.88673158 -74.7587566 48.89452559 -71.77734375 48.90234375 C-69.71611058 48.90420781 -67.65487696 48.90563177 -65.59364319 48.90663147 C-60.1569599 48.91045763 -54.72030314 48.92028874 -49.28363037 48.93133545 C-42.76668598 48.94334157 -36.24973273 48.94795134 -29.73278046 48.95378876 C-19.82183516 48.96350045 -9.91094813 48.98265632 0 49 C0 32.83 0 16.66 0 0 Z " fill="#5E4D82" transform="translate(607,119)"/>
<path d="M0 0 C0.66 0 1.32 0 2 0 C2.33 34.65 2.66 69.3 3 105 C10.92 105.99 10.92 105.99 19 107 C16 109 16 109 0 108 C0 72.36 0 36.72 0 0 Z " fill="#5B4C7B" transform="translate(737,123)"/>
<path d="M0 0 C0.0825 0.61875 0.165 1.2375 0.25 1.875 C0.80603954 4.13472902 0.80603954 4.13472902 2.8125 5.1875 C4.86376758 5.94939939 6.86154631 6.54175992 9 7 C9 7.66 9 8.32 9 9 C16.41596929 15.53242487 24.75831582 14.71549165 34.08203125 14.671875 C35.74494514 14.68246538 37.40784569 14.69538122 39.07072449 14.71051025 C43.4277946 14.74459433 47.78441632 14.75009619 52.14160156 14.74859619 C58.29709806 14.75183148 64.45247155 14.79452344 70.60783386 14.83233643 C73.88207351 14.85232764 77.15607604 14.86168389 80.43037415 14.86248779 C81.9207866 14.86630766 83.411199 14.87015156 84.90161133 14.87402344 C86.2031868 14.87448669 87.50476227 14.87494995 88.84577942 14.87542725 C92 15 92 15 95 16 C95 15.34 95 14.68 95 14 C97.64 14.33 100.28 14.66 103 15 C103 15.33 103 15.66 103 16 C98.69682484 17.03275287 94.4704396 17.21230094 90.06713867 17.30395508 C89.28256287 17.32337662 88.49798706 17.34279816 87.68963623 17.36280823 C80.44498779 17.53169455 73.19893586 17.62840665 65.95276928 17.70387745 C61.09834237 17.75511659 56.24678571 17.8292788 51.39379883 17.96020508 C46.68035504 18.08682437 41.96949007 18.15241295 37.25444984 18.17746544 C35.47264817 18.19689409 33.69092995 18.23689949 31.9101162 18.29932594 C18.34468329 18.75247553 10.49121939 15.49712247 0.27214527 6.53650951 C-1.21990684 4.73439437 -1.59974001 3.28283641 -2 1 C-1.34 0.67 -0.68 0.34 0 0 Z M9 3 C9.66 4.32 10.32 5.64 11 7 C10.34 7 9.68 7 9 7 C9 5.68 9 4.36 9 3 Z " fill="#615381" transform="translate(316,214)"/>
<path d="M0 0 C2.31769885 3.47654828 2.24837193 4.80246952 2.24291992 8.90380859 C2.24595627 10.1267009 2.24899261 11.3495932 2.25212097 12.60954285 C2.24519385 13.95584259 2.23796776 15.30214082 2.23046875 16.6484375 C2.22961209 18.047185 2.22953043 19.44593317 2.23017883 20.84468079 C2.22902755 24.58374609 2.21470812 28.32265174 2.19723511 32.06167221 C2.18753223 34.36734027 2.18168046 36.67298438 2.17724609 38.97866821 C2.13340095 61.66352853 1.8642152 84.32978342 1 107 C-2.96 107 -6.92 107 -11 107 C-11 106.34 -11 105.68 -11 105 C-7.7 105 -4.4 105 -1 105 C-0.97634926 96.81695156 -0.95882662 88.63391846 -0.94818783 80.45084381 C-0.94307001 76.6470668 -0.93618772 72.8433139 -0.92456055 69.03955078 C-0.91134556 64.62011587 -0.90463657 60.20070361 -0.90234375 55.78125 C-0.90165264 55.04935455 -0.90096153 54.31745911 -0.90024948 53.56338501 C-0.89839413 45.31973994 -0.99378514 37.09002346 -1.29736328 28.8515625 C-1.32406507 28.11435722 -1.35076685 27.37715195 -1.37827778 26.61760712 C-1.50850663 23.11057647 -1.65414937 19.6051017 -1.82322693 16.09973145 C-1.87455276 14.85832397 -1.9258786 13.6169165 -1.97875977 12.33789062 C-2.03073013 11.25463501 -2.0827005 10.17137939 -2.13624573 9.05529785 C-1.98741794 5.71784839 -1.19436234 3.10585532 0 0 Z " fill="#5E4E7E" transform="translate(770,124)"/>
<path d="M0 0 C0.33 1.32 0.66 2.64 1 4 C2.0725 3.814375 3.145 3.62875 4.25 3.4375 C7.70219657 3.03474373 8.83871894 3.20770169 12 4 C16.45536971 4.22809714 20.91438466 4.18515724 25.375 4.1875 C27.20417969 4.20586914 27.20417969 4.20586914 29.0703125 4.22460938 C30.84148438 4.22750977 30.84148438 4.22750977 32.6484375 4.23046875 C34.25984619 4.23663208 34.25984619 4.23663208 35.90380859 4.24291992 C39.21339145 3.98325781 41.86843636 3.05899196 45 2 C48.875 2.375 48.875 2.375 52 3 C52.33 2.34 52.66 1.68 53 1 C53.66 1.515625 54.32 2.03125 55 2.5625 C59.14659826 4.54941167 61.53020565 3.83335149 66 3 C66.495 4.485 66.495 4.485 67 6 C56.04329026 6.83253926 45.15999835 7.15844324 34.17407227 7.13037109 C31.69996961 7.12502693 29.22605023 7.13034789 26.75195312 7.13671875 C15.47309761 7.14090153 4.25644817 6.69653686 -7 6 C-7 5.01 -7 4.02 -7 3 C-6.01 3.33 -5.02 3.66 -4 4 C-3.67 3.34 -3.34 2.68 -3 2 C-2.01 1.34 -1.02 0.68 0 0 Z " fill="#625184" transform="translate(522,225)"/>
<path d="M0 0 C0 0.66 0 1.32 0 2 C-5.72803603 3.63410297 -10.77214996 4.28279535 -16.7109375 4.22705078 C-17.54115921 4.22734283 -18.37138092 4.22763489 -19.22676086 4.22793579 C-21.94295073 4.22655385 -24.65885866 4.21104671 -27.375 4.1953125 C-29.26928559 4.19157832 -31.16357311 4.18873326 -33.05786133 4.18673706 C-38.02265842 4.17913246 -42.98733689 4.15951146 -47.9520874 4.1373291 C-53.0266357 4.11680206 -58.10120332 4.10772072 -63.17578125 4.09765625 C-73.11723937 4.07626238 -83.05860979 4.04216505 -93 4 C-93.33 5.98 -93.66 7.96 -94 10 C-94.66 9.67 -95.32 9.34 -96 9 C-95.74438677 6.6568787 -95.40729228 4.32156597 -95 2 C-91.80795287 0.40397643 -88.35438695 0.87971451 -84.85009766 0.90234375 C-84.00767014 0.90380402 -83.16524261 0.90526428 -82.29728699 0.9067688 C-80.46443728 0.91057992 -78.63159127 0.91670185 -76.79875565 0.92483521 C-73.89906326 0.93756585 -70.99941647 0.94410619 -68.09970093 0.94897461 C-60.89576881 0.96236834 -53.69187986 0.98654844 -46.48797607 1.01037598 C-40.40580872 1.03009127 -34.3236575 1.04574036 -28.24146652 1.05593872 C-25.38308584 1.06242843 -22.52477119 1.07493833 -19.66641235 1.08764648 C-17.91383929 1.09127921 -16.16126562 1.09463092 -14.40869141 1.09765625 C-13.61270035 1.10282257 -12.81670929 1.10798889 -11.99659729 1.11331177 C-7.87766046 1.11370702 -4.01563196 0 0 0 Z " fill="#60507F" transform="translate(410,197)"/>
<path d="M0 0 C0.95208344 -0.00303635 1.90416687 -0.00607269 2.88510132 -0.00920105 C4.42371323 0.0015168 4.42371323 0.0015168 5.9934082 0.01245117 C7.61153915 0.01259468 7.61153915 0.01259468 9.26235962 0.01274109 C12.77308248 0.01646424 16.28352475 0.03538811 19.79418945 0.05541992 C22.19742745 0.06226751 24.60066643 0.06877678 27.00390625 0.07495117 C45.38284272 0.14246858 63.74258995 0.50355795 82.10668945 1.24291992 C82.10668945 1.57291992 82.10668945 1.90291992 82.10668945 2.24291992 C77.25668099 3.21086604 72.5490607 3.37935053 67.62280273 3.35644531 C66.37790825 3.35666435 66.37790825 3.35666435 65.10786438 3.35688782 C62.3808831 3.35619445 59.65397121 3.34842915 56.92700195 3.34057617 C55.02985674 3.33870994 53.13271105 3.33728701 51.23556519 3.33628845 C46.25434019 3.33247941 41.27314458 3.32266293 36.29193115 3.31158447 C31.2041463 3.30133564 26.11635667 3.2967834 21.02856445 3.29174805 C11.05459324 3.28103917 1.0806438 3.26398217 -8.89331055 3.24291992 C-8.89331055 4.89291992 -8.89331055 6.54291992 -8.89331055 8.24291992 C-9.22331055 8.24291992 -9.55331055 8.24291992 -9.89331055 8.24291992 C-9.89331055 6.26291992 -9.89331055 4.28291992 -9.89331055 2.24291992 C-6.45111229 0.6979439 -3.76754117 -0.00648497 0 0 Z " fill="#5C4D7E" transform="translate(654.893310546875,81.757080078125)"/>
<path d="M0 0 C25.74 0 51.48 0 78 0 C78.94644447 3.7857779 78.9693628 5.95261384 78.5625 9.75 C78.46066406 10.73484375 78.35882812 11.7196875 78.25390625 12.734375 C78.12822266 13.85585937 78.12822266 13.85585937 78 15 C77.67 15 77.34 15 77 15 C76.67 10.71 76.34 6.42 76 2 C55.94991689 1.86623369 35.93927533 2.14296277 15.8972168 2.73217773 C14.10205153 2.78111471 12.30688555 2.83002547 10.51171875 2.87890625 C9.67974976 2.90594635 8.84778076 2.93298645 7.99060059 2.96084595 C2.22580042 3.11290021 2.22580042 3.11290021 0 2 C0 1.34 0 0.68 0 0 Z " fill="#615582" transform="translate(524,201)"/>
<path d="M0 0 C0.33 0 0.66 0 1 0 C1 38.61 1 77.22 1 117 C-12.365 117.495 -12.365 117.495 -26 118 C-25.01 117.01 -24.02 116.02 -23 115 C-15.74 115 -8.48 115 -1 115 C-0.67 77.05 -0.34 39.1 0 0 Z " fill="#5E507E" transform="translate(679,114)"/>
<path d="M0 0 C1.24858795 0.00091644 2.4971759 0.00183289 3.78359985 0.0027771 C6.3969508 0.00876882 9.01029633 0.02437907 11.62353516 0.04931641 C15.61281075 0.08604105 19.60041768 0.09033343 23.58984375 0.08984375 C26.14323715 0.09966934 28.69662432 0.1113239 31.25 0.125 C32.43347015 0.12722565 33.61694031 0.12945129 34.83627319 0.13174438 C40.97601216 0.20197967 46.34816292 0.65628413 52.2265625 2.4609375 C50.9065625 3.1209375 49.5865625 3.7809375 48.2265625 4.4609375 C48.2265625 3.8009375 48.2265625 3.1409375 48.2265625 2.4609375 C47.3190625 2.6465625 46.4115625 2.8321875 45.4765625 3.0234375 C42.35637947 3.44346214 41.14867288 3.19951274 38.2265625 2.4609375 C36.63406905 2.3984767 35.03894055 2.39071413 33.44555664 2.42333984 C32.50100113 2.44020844 31.55644562 2.45707703 30.58326721 2.47445679 C29.56965622 2.4983548 28.55604523 2.52225281 27.51171875 2.546875 C25.93988075 2.57873398 25.93988075 2.57873398 24.33628845 2.61123657 C22.12135265 2.65746544 19.90647173 2.70639098 17.69165039 2.7578125 C14.30561457 2.83555746 10.91948658 2.90278184 7.53320312 2.96875 C5.3801947 3.0149944 3.22719927 3.06184911 1.07421875 3.109375 C-0.44316139 3.13914932 -0.44316139 3.13914932 -1.99119568 3.16952515 C-2.93890335 3.19269806 -3.88661102 3.21587097 -4.86303711 3.23974609 C-5.69258408 3.25830658 -6.52213104 3.27686707 -7.3768158 3.29598999 C-9.91094847 3.47040169 -12.28730069 3.95320881 -14.7734375 4.4609375 C-15.7634375 4.4609375 -16.7534375 4.4609375 -17.7734375 4.4609375 C-22.7590211 5.55752219 -22.7590211 5.55752219 -26.7734375 8.4609375 C-29.3984375 8.5859375 -29.3984375 8.5859375 -31.7734375 8.4609375 C-24.26157326 -0.27342533 -10.69667499 -0.13123795 0 0 Z " fill="#605081" transform="translate(529.7734375,82.5390625)"/>
<path d="M0 0 C1.46022163 0.95545366 2.91811468 1.91446678 4.375 2.875 C5.18710937 3.40867187 5.99921875 3.94234375 6.8359375 4.4921875 C9 6 9 6 11 8 C11.22705078 9.97119141 11.22705078 9.97119141 11.1953125 12.3515625 C11.18886719 13.20234375 11.18242188 14.053125 11.17578125 14.9296875 C11.15064453 16.26386719 11.15064453 16.26386719 11.125 17.625 C11.11597656 18.5221875 11.10695313 19.419375 11.09765625 20.34375 C11.0740497 22.56276586 11.0411231 24.78125077 11 27 C9.83275139 27.00879936 9.83275139 27.00879936 8.641922 27.01777649 C1.29990826 27.07573738 -6.04176743 27.14783308 -13.38347912 27.23571491 C-17.15773053 27.28039737 -20.93187454 27.31965788 -24.70629883 27.34643555 C-28.35047178 27.37249018 -31.99423095 27.41290709 -35.63814735 27.46318626 C-37.02671464 27.47984053 -38.41535348 27.4913638 -39.80400658 27.49761391 C-41.7525102 27.50726972 -43.70088242 27.53704261 -45.64916992 27.56762695 C-46.7572551 27.57873001 -47.86534027 27.58983307 -49.00700378 27.60127258 C-53.340567 28.17859054 -55.94879036 29.94879036 -59 33 C-58.38722388 30.03824877 -57.74627478 28.61941217 -56 26 C-51.9757507 24.99580239 -48.12511336 24.89710476 -43.99462891 24.97827148 C-42.83387848 24.99836777 -41.67312805 25.01846405 -40.47720337 25.03916931 C-38.62063614 25.07972191 -38.62063614 25.07972191 -36.7265625 25.12109375 C-35.44768158 25.14470474 -34.16880066 25.16831573 -32.85116577 25.19264221 C-29.46781191 25.25609415 -26.08462392 25.32432233 -22.70141602 25.39489746 C-19.24242712 25.46586672 -15.78332052 25.53051196 -12.32421875 25.59570312 C-5.54935317 25.72466255 1.22534341 25.86050875 8 26 C7.67 20.39 7.34 14.78 7 9 C6.01 8.505 6.01 8.505 5 8 C5 7.34 5 6.68 5 6 C4.175 5.34 3.35 4.68 2.5 4 C1.675 3.34 0.85 2.68 0 2 C0 1.34 0 0.68 0 0 Z " fill="#645583" transform="translate(900,86)"/>
<path d="M0 0 C1.87978345 -0.04136876 3.75925098 -0.10244803 5.63769531 -0.18457031 C17.57197133 -0.69724736 26.29564667 0.02857102 35.78564453 7.77783203 C38.10107422 10.62475586 38.10107422 10.62475586 38.58056641 14.33691406 C38.10107422 17.62475586 38.10107422 17.62475586 36.10107422 19.62475586 C35.60607422 15.16975586 35.60607422 15.16975586 35.10107422 10.62475586 C33.98732422 10.50100586 32.87357422 10.37725586 31.72607422 10.24975586 C28.10107422 9.62475586 28.10107422 9.62475586 26.10107422 7.62475586 C26.10107422 6.63475586 26.10107422 5.64475586 26.10107422 4.62475586 C24.12360819 3.8939532 22.12034933 3.23053839 20.10107422 2.62475586 C19.44107422 2.95475586 18.78107422 3.28475586 18.10107422 3.62475586 C15.66371987 3.62922875 13.26067619 3.57353268 10.82763672 3.46850586 C10.10748383 3.44252319 9.38733093 3.41654053 8.64535522 3.38977051 C5.56060661 3.27840081 2.47638361 3.15473684 -0.60791016 3.03149414 C-2.85841387 2.94336053 -5.10909299 2.86199705 -7.35986328 2.78100586 C-8.05477875 2.75083374 -8.74969421 2.72066162 -9.46566772 2.6895752 C-12.78588405 2.57115127 -15.72708901 2.56713925 -18.89892578 3.62475586 C-18.89892578 2.96475586 -18.89892578 2.30475586 -18.89892578 1.62475586 C-13.71868237 -0.96536585 -5.75265755 0.09867082 0 0 Z " fill="#605082" transform="translate(254.89892578125,82.375244140625)"/>
<path d="M0 0 C1.71120781 0.0001133 1.71120781 0.0001133 3.45698547 0.00022888 C5.28848396 0.00797081 5.28848396 0.00797081 7.15698242 0.01586914 C8.41508224 0.01728409 9.67318207 0.01869904 10.96940613 0.02015686 C14.30173646 0.02479966 17.63399749 0.03377311 20.96630859 0.04486084 C24.37165734 0.05512036 27.77701327 0.05966418 31.18237305 0.06469727 C37.85491815 0.07571709 44.52743066 0.09244839 51.19995117 0.11352539 C51.69495117 1.10352539 51.69495117 1.10352539 52.19995117 2.11352539 C51.50726135 2.11130478 50.81457153 2.10908417 50.10089111 2.10679626 C42.89856481 2.08469169 35.69624813 2.0695971 28.49389648 2.05859375 C25.80508266 2.05412593 23.11629236 2.0471642 20.42749023 2.03808594 C16.56517867 2.02597168 12.70290325 2.02028594 8.84057617 2.01586914 C7.63628967 2.01070786 6.43200317 2.00554657 5.19122314 2.00022888 C4.07036316 2.00015335 2.94950317 2.00007782 1.79467773 2 C0.8087262 1.99777939 -0.17722534 1.99555878 -1.1930542 1.99327087 C-3.56848004 2.10284367 -5.52964584 2.44409967 -7.80004883 3.11352539 C-9.13338216 3.44685872 -10.46671549 3.78019206 -11.80004883 4.11352539 C-11.47004883 3.12352539 -11.14004883 2.13352539 -10.80004883 1.11352539 C-7.13473311 0.26830724 -3.75811902 -0.00833286 0 0 Z " fill="#605083" transform="translate(845.800048828125,82.886474609375)"/>
<path d="M0 0 C0.33 0 0.66 0 1 0 C1.93165372 5.46621918 2.10456319 10.68546842 2.02734375 16.22265625 C2.01470367 17.9954408 2.00234226 19.76822736 1.99023438 21.54101562 C1.96539883 24.30808916 1.93734891 27.07505587 1.90405273 29.84204102 C1.8737707 32.53141949 1.85605886 35.22066129 1.83984375 37.91015625 C1.82638412 38.73218033 1.8129245 39.55420441 1.79905701 40.40113831 C1.77897488 45.0240083 2.25071902 48.64647748 4 53 C4.33 53.99 4.66 54.98 5 56 C3.02 56.495 3.02 56.495 1 57 C0.25869874 53.65604777 -0.14461968 50.51191517 -0.22119141 47.08959961 C-0.24436432 46.14189194 -0.26753723 45.19418427 -0.29141235 44.21775818 C-0.3112619 43.20617142 -0.33111145 42.19458466 -0.3515625 41.15234375 C-0.37471527 40.10349503 -0.39786804 39.0546463 -0.42172241 37.97401428 C-0.4692565 35.76096201 -0.51450297 33.54785958 -0.55761719 31.3347168 C-0.62482642 27.94625145 -0.70258576 24.5581384 -0.78125 21.16992188 C-0.82615862 19.01824238 -0.8704504 16.86654991 -0.9140625 14.71484375 C-0.93796051 13.70123276 -0.96185852 12.68762177 -0.98648071 11.64329529 C-1.0033493 10.69873978 -1.0202179 9.75418427 -1.03759766 8.78100586 C-1.05456696 7.95225449 -1.07153625 7.12350311 -1.08901978 6.26963806 C-1.00151103 4.03852499 -0.6252434 2.137357 0 0 Z " fill="#5B4D80" transform="translate(482,145)"/>
<path d="M0 0 C0.66 0 1.32 0 2 0 C2.01981934 0.57443848 2.03963867 1.14887695 2.06005859 1.74072266 C2.15592024 4.36923833 2.26534874 6.99702491 2.375 9.625 C2.4059375 10.52863281 2.436875 11.43226563 2.46875 12.36328125 C2.68448482 17.28922641 3.23826945 21.34502091 5 26 C5 26.99 5 27.98 5 29 C5.99 29.33 6.98 29.66 8 30 C8.12375 30.5775 8.2475 31.155 8.375 31.75 C9.46318807 35.66747706 12.41995401 38.05997264 15.8515625 40.1015625 C16.47804688 40.43929687 17.10453125 40.77703125 17.75 41.125 C21 43 21 43 22 46 C14.64664672 44.34549551 9.31780004 39.32074675 5.1875 33.1875 C-0.81842421 22.47422979 -0.33124671 11.94941822 0 0 Z " fill="#5F4F81" transform="translate(806,117)"/>
<path d="M0 0 C0.9583374 0.00523682 1.9166748 0.01047363 2.90405273 0.01586914 C4.45576172 0.02070313 4.45576172 0.02070313 6.03881836 0.02563477 C7.12743164 0.03401367 8.21604492 0.04239258 9.33764648 0.05102539 C10.97636719 0.05779297 10.97636719 0.05779297 12.64819336 0.06469727 C15.35723144 0.07652713 18.06616248 0.09300996 20.77514648 0.11352539 C20.77514648 0.77352539 20.77514648 1.43352539 20.77514648 2.11352539 C14.50514648 1.78352539 8.23514648 1.45352539 1.77514648 1.11352539 C1.77514648 1.77352539 1.77514648 2.43352539 1.77514648 3.11352539 C0.78514648 3.44352539 -0.20485352 3.77352539 -1.22485352 4.11352539 C-1.13806588 6.405916 -1.02990078 8.69750609 -0.91235352 10.98852539 C-0.8543457 12.26469727 -0.79633789 13.54086914 -0.73657227 14.85571289 C-0.56770508 15.93079102 -0.39883789 17.00586914 -0.22485352 18.11352539 C0.76514648 18.77352539 1.75514648 19.43352539 2.77514648 20.11352539 C2.77514648 20.77352539 2.77514648 21.43352539 2.77514648 22.11352539 C3.76514648 22.11352539 4.75514648 22.11352539 5.77514648 22.11352539 C6.10514648 23.43352539 6.43514648 24.75352539 6.77514648 26.11352539 C3.36759377 24.18472197 0.03367013 22.28587449 -3.22485352 20.11352539 C-3.58129883 18.15820312 -3.58129883 18.15820312 -3.55297852 15.79711914 C-3.54524414 14.52771484 -3.54524414 14.52771484 -3.53735352 13.23266602 C-3.51672852 12.34772461 -3.49610352 11.4627832 -3.47485352 10.55102539 C-3.46969727 9.6622168 -3.46454102 8.7734082 -3.45922852 7.85766602 C-3.36542602 0.17172425 -3.36542602 0.17172425 0 0 Z " fill="#615184" transform="translate(809.224853515625,200.886474609375)"/>
<path d="M0 0 C2.61947061 3.92920591 2.17103224 7.15148259 2.01171875 11.69140625 C1.97773735 12.98122658 1.97773735 12.98122658 1.94306946 14.29710388 C1.89308836 16.12049067 1.83811978 17.94374651 1.77856445 19.7668457 C1.68864624 22.52731069 1.61340628 25.28785364 1.54101562 28.04882812 C1.49045564 29.82554587 1.43904925 31.60223977 1.38671875 33.37890625 C1.36373215 34.1928334 1.34074554 35.00676056 1.31706238 35.84535217 C1.12501821 41.59484623 0.63424127 47.28296005 0 53 C-0.33 53 -0.66 53 -1 53 C-0.99274902 52.10933838 -0.98549805 51.21867676 -0.97802734 50.30102539 C-0.9468928 43.44030546 -1.00933124 36.6015441 -1.2890625 29.74609375 C-1.31595154 29.06294098 -1.34284058 28.37978821 -1.37054443 27.67593384 C-1.48159452 24.88379989 -1.59479514 22.09191361 -1.72363281 19.30053711 C-1.81803255 17.22016718 -1.89838903 15.13962827 -1.9765625 13.05859375 C-2.02893066 11.84486084 -2.08129883 10.63112793 -2.13525391 9.38061523 C-1.99554488 5.88864612 -1.26805567 3.2400028 0 0 Z " fill="#5E5080" transform="translate(770,124)"/>
<path d="M0 0 C13.53 0 27.06 0 41 0 C43 5 43 5 42 8 C41.68699951 7.18958252 41.37399902 6.37916504 41.05151367 5.54418945 C39.12123665 2.57453005 39.12123665 2.57453005 35.0793457 2.34057617 C33.4452645 2.29945508 31.81036175 2.28529411 30.17578125 2.29296875 C28.88367989 2.27028679 28.88367989 2.27028679 27.56547546 2.24714661 C24.81421967 2.20415897 22.06405862 2.19542126 19.3125 2.1875 C17.44723629 2.16436419 15.58199879 2.13900077 13.71679688 2.11132812 C9.14443402 2.04836679 4.57275828 2.01611795 0 2 C0 1.34 0 0.68 0 0 Z " fill="#5E5577" transform="translate(85,37)"/>
<path d="M0 0 C0.33 0 0.66 0 1 0 C2.75548094 12.84455856 2.75548094 12.84455856 -0.125 17.25 C-5.59779199 20.58126469 -9.97495683 21.29048594 -16.3359375 21.23046875 C-17.53230331 21.22978142 -17.53230331 21.22978142 -18.75283813 21.2290802 C-20.43550102 21.22606762 -22.11816136 21.21821117 -23.80078125 21.20581055 C-26.35947703 21.18761042 -28.91780884 21.18530075 -31.4765625 21.18554688 C-33.11719059 21.18062858 -34.75781625 21.1747989 -36.3984375 21.16796875 C-37.15595306 21.16685593 -37.91346863 21.1657431 -38.69393921 21.16459656 C-43.22385422 21.12468472 -47.52929542 20.73873106 -52 20 C-52 19.67 -52 19.34 -52 19 C-51.44733963 18.99413376 -50.89467926 18.98826752 -50.32527161 18.98222351 C-44.56604053 18.91822178 -38.80736474 18.83378484 -33.04858398 18.73754883 C-30.90022102 18.70432254 -28.75177125 18.67628347 -26.60327148 18.65356445 C-23.51248224 18.61997669 -20.42248688 18.56765779 -17.33203125 18.51171875 C-15.89426079 18.50213387 -15.89426079 18.50213387 -14.42744446 18.49235535 C-9.51889637 18.38446582 -5.94129035 18.27562343 -2 15 C-0.58365167 12.16730334 -0.6536995 9.52533562 -0.4375 6.375 C-0.35371094 5.18648437 -0.26992188 3.99796875 -0.18359375 2.7734375 C-0.09271484 1.40058594 -0.09271484 1.40058594 0 0 Z " fill="#63557F" transform="translate(883,182)"/>
<path d="M0 0 C1.35106087 0.0001133 1.35106087 0.0001133 2.72941589 0.00022888 C3.69825211 0.00539017 4.66708832 0.01055145 5.6652832 0.01586914 C7.15714897 0.01799156 7.15714897 0.01799156 8.67915344 0.02015686 C11.85815428 0.02575779 15.03708488 0.03831043 18.21606445 0.05102539 C20.37036031 0.05604027 22.52465727 0.0606032 24.67895508 0.06469727 C29.9621822 0.07572751 35.24536831 0.09246653 40.52856445 0.11352539 C40.19856445 0.77352539 39.86856445 1.43352539 39.52856445 2.11352539 C38.29291748 2.13334473 37.05727051 2.15316406 35.78417969 2.17358398 C31.17883696 2.24993113 26.57379823 2.33860296 21.96875 2.4309082 C19.97955346 2.469078 17.99029071 2.50395137 16.00097656 2.53540039 C13.13363056 2.58131236 10.26673558 2.63926286 7.3996582 2.69946289 C6.0758036 2.7167897 6.0758036 2.7167897 4.72520447 2.73446655 C-0.36200848 2.85475239 -4.64499294 3.48277715 -9.47143555 5.11352539 C-9.47143555 7.42352539 -9.47143555 9.73352539 -9.47143555 12.11352539 C-11.53393555 10.36352539 -11.53393555 10.36352539 -13.47143555 8.11352539 C-13.22143555 5.86352539 -13.22143555 5.86352539 -12.47143555 4.11352539 C-11.81143555 4.11352539 -11.15143555 4.11352539 -10.47143555 4.11352539 C-9.99706055 3.63915039 -9.52268555 3.16477539 -9.03393555 2.67602539 C-6.34461257 -0.01329758 -3.60141302 -0.01008799 0 0 Z " fill="#635581" transform="translate(253.471435546875,110.886474609375)"/>
<path d="M0 0 C0.66 0 1.32 0 2 0 C1.938125 1.051875 1.87625 2.10375 1.8125 3.1875 C2.0521708 8.06080636 3.60940487 10.35188725 6.6875 14 C8.31861958 16.48551555 8.24293723 18.08475321 8 21 C8.66 21 9.32 21 10 21 C10.598125 21.78375 11.19625 22.5675 11.8125 23.375 C14.16515911 26.19819093 15.65874061 26.73573969 19 28 C19.33 28.99 19.66 29.98 20 31 C13.06712763 29.05012965 7.72564156 23.72856143 4.1875 17.625 C-1.85270958 5.64695728 -1.85270958 5.64695728 0 0 Z " fill="#61507E" transform="translate(316,108)"/>
<path d="M0 0 C1.5625 1.25 1.5625 1.25 3 3 C2.68920898 4.83007812 2.68920898 4.83007812 2 7 C1.94197226 8.90538839 1.93844584 10.81278521 1.97265625 12.71875 C1.98490234 13.81574219 1.99714844 14.91273438 2.00976562 16.04296875 C2.04492283 18.34771913 2.08398567 20.65241324 2.12695312 22.95703125 C2.13791016 24.05402344 2.14886719 25.15101563 2.16015625 26.28125 C2.17699463 27.28220703 2.19383301 28.28316406 2.21118164 29.31445312 C1.99559399 32.05603017 1.40704263 33.6654543 0 36 C-0.99 35.67 -1.98 35.34 -3 35 C-2.67854004 34.48791992 -2.35708008 33.97583984 -2.02587891 33.44824219 C-0.65518024 30.17709364 -0.67305315 27.37082827 -0.5859375 23.828125 C-0.56657135 23.1457074 -0.5472052 22.46328979 -0.5272522 21.76019287 C-0.46768902 19.59025392 -0.42116554 17.42026123 -0.375 15.25 C-0.33679869 13.77471703 -0.2977457 12.29945585 -0.2578125 10.82421875 C-0.16200765 7.21634582 -0.07789084 3.60830917 0 0 Z " fill="#5F4F80" transform="translate(413,161)"/>
<path d="M0 0 C0.99 0 1.98 0 3 0 C2.649375 0.78375 2.29875 1.5675 1.9375 2.375 C1.628125 3.24125 1.31875 4.1075 1 5 C1.33 5.66 1.66 6.32 2 7 C1.54625 7.474375 1.0925 7.94875 0.625 8.4375 C-0.94029597 10.90585133 -1.3479177 12.2074774 -1.875 15 C-3.03843769 21.00775154 -5.5304372 26.42934498 -8 32 C-9.01598179 28.87450543 -8.98504461 27.10845344 -7.890625 24.0234375 C-7.50221436 22.89977783 -7.50221436 22.89977783 -7.10595703 21.75341797 C-6.82349121 20.96854004 -6.54102539 20.18366211 -6.25 19.375 C-5.68900416 17.76079854 -5.12910086 16.14621695 -4.5703125 14.53125 C-4.29864258 13.75394531 -4.02697266 12.97664062 -3.74707031 12.17578125 C-2.36711529 8.156775 -1.16986127 4.08425251 0 0 Z " fill="#615481" transform="translate(35,150)"/>
<path d="M0 0 C0.8741826 2.99303676 1.09654642 5.59117704 1.02734375 8.703125 C1.01509766 9.60160156 1.00285156 10.50007813 0.99023438 11.42578125 C0.95536833 13.29305182 0.91637605 15.16025039 0.87304688 17.02734375 C0.803851 22.73396855 1.36178033 27.52641899 3 33 C3.66 33 4.32 33 5 33 C4.67 33.66 4.34 34.32 4 35 C3.34 35 2.68 35 2 35 C2 34.34 2 33.68 2 33 C1.34 32.67 0.68 32.34 0 32 C-3.56832014 26.12276684 -3.05480591 20.04397474 -2.6875 13.4375 C-2.65205078 12.58736328 -2.61660156 11.73722656 -2.58007812 10.86132812 C-2.53689453 10.03955078 -2.49371094 9.21777344 -2.44921875 8.37109375 C-2.41143311 7.62786865 -2.37364746 6.88464355 -2.3347168 6.11889648 C-1.96286289 3.76490663 -1.16331858 2.06685564 0 0 Z " fill="#5B4B7D" transform="translate(350,76)"/>
<path d="M0 0 C3.91503309 3.91503309 4.91667277 10.14214087 6.625 15.3125 C7.04523438 16.54935547 7.46546875 17.78621094 7.8984375 19.06054688 C8.29546875 20.25357422 8.6925 21.44660156 9.1015625 22.67578125 C9.46588379 23.76802002 9.83020508 24.86025879 10.20556641 25.9855957 C10.95211874 28.81831903 11.16400237 31.09081387 11 34 C9 33 9 33 7.875 30.3125 C7.01110926 27.0420565 6.83986009 24.36293818 7 21 C6.35289062 20.75636719 5.70578125 20.51273438 5.0390625 20.26171875 C3 19 3 19 2.4609375 17.08203125 C2.43257812 16.33308594 2.40421875 15.58414063 2.375 14.8125 C2.17336313 11.75843905 1.84234665 9.0517109 0.9375 6.125 C0 3 0 3 0 0 Z " fill="#60507E" transform="translate(152,122)"/>
<path d="M0 0 C0.99 0.495 0.99 0.495 2 1 C3.83981281 1.07308095 5.68229492 1.08361873 7.5234375 1.0625 C8.626875 1.05476562 9.7303125 1.04703125 10.8671875 1.0390625 C13.19791764 1.01310782 15.52864681 0.98706674 17.859375 0.9609375 C18.96539062 0.95320312 20.07140625 0.94546875 21.2109375 0.9375 C22.22462402 0.92589844 23.23831055 0.91429687 24.28271484 0.90234375 C26.70151532 0.98927279 28.69402329 1.30167739 31 2 C31 1.34 31 0.68 31 0 C31.66 0 32.32 0 33 0 C32.67 1.32 32.34 2.64 32 4 C21.77 4 11.54 4 1 4 C0.67 2.68 0.34 1.36 0 0 Z " fill="#5C4D79" transform="translate(150,227)"/>
<path d="M0 0 C2.18679146 3.28018718 3.25768653 6.50297589 4.41796875 10.22265625 C4.75022209 11.27458412 4.75022209 11.27458412 5.08918762 12.34776306 C5.55468672 13.82717678 6.01765897 15.30738764 6.47827148 16.78833008 C7.18683966 19.06038261 7.90838137 21.32804094 8.63085938 23.59570312 C9.08152311 25.03360557 9.53141953 26.47174878 9.98046875 27.91015625 C10.19809372 28.59038345 10.41571869 29.27061066 10.63993835 29.97145081 C12.11458622 34.77082757 12.11458622 34.77082757 11 37 C10.01 37 9.02 37 8 37 C8.0928125 35.5459375 8.0928125 35.5459375 8.1875 34.0625 C8.19701337 29.36289293 6.63088526 25.3543053 5 21 C4.27954236 19.0187415 3.59218657 17.02330411 3 15 C3.33 14.34 3.66 13.68 4 13 C3.34 12.67 2.68 12.34 2 12 C1.2986716 9.67684969 0.63514826 7.34210921 0 5 C-0.62469505 3.64649406 -1.2716331 2.30065517 -2 1 C-1.34 0.67 -0.68 0.34 0 0 Z " fill="#5E5081" transform="translate(130,51)"/>
<path d="M0 0 C1.078125 1.828125 1.078125 1.828125 2 4 C1.07470849 6.03564133 0.06011943 8.03120677 -1 10 C-1.56915601 11.95952283 -2.01191494 13.92780942 -2.4609375 15.91796875 C-3.02471217 18.09544629 -3.78468371 20.10241612 -4.625 22.1875 C-5.82465595 25.24390989 -6.31149438 27.6773933 -6 31 C-6.99 31 -7.98 31 -9 31 C-7.64250679 20.20861456 -4.313789 9.9584278 0 0 Z " fill="#625183" transform="translate(21,195)"/>
<path d="M0 0 C0.66 0 1.32 0 2 0 C2.33 1.65 2.66 3.3 3 5 C3.99 5.33 4.98 5.66 6 6 C6.1953125 8.01822917 6.390625 10.03645833 6.5859375 12.0546875 C6.86374749 14.22668245 6.86374749 14.22668245 9 16 C9 16.66 9 17.32 9 18 C9.33 19.0725 9.66 20.145 10 21.25 C10.92510508 24.71914406 11.17363535 27.44047535 11 31 C8.42716814 28.42716814 7.93557125 26.18316109 6.8359375 22.71484375 C6.23652344 20.83635742 6.23652344 20.83635742 5.625 18.91992188 C5.20833216 17.59244828 4.79166551 16.26497432 4.375 14.9375 C3.95105294 13.60595026 3.52657998 12.27456783 3.1015625 10.94335938 C0 1.1704165 0 1.1704165 0 0 Z " fill="#5D4C7D" transform="translate(118,125)"/>
<path d="M0 0 C1.76462683 3.08809695 2 4.23312136 2 8 C1.34 8 0.68 8 0 8 C0.33 8.99 0.66 9.98 1 11 C0.0625 13.6875 0.0625 13.6875 -1 16 C-1.66 16 -2.32 16 -3 16 C-3.61387394 18.89397715 -4.10214778 21.7533399 -4.5 24.6875 C-5 28 -5 28 -6 30 C-6 31.32 -6 32.64 -6 34 C-6.66 34 -7.32 34 -8 34 C-9.17630356 29.8189145 -8.75439928 27.27221917 -7.3828125 23.18359375 C-7.02316406 22.08982422 -6.66351563 20.99605469 -6.29296875 19.86914062 C-5.71482422 18.17047852 -5.71482422 18.17047852 -5.125 16.4375 C-4.37678474 14.18647012 -3.62935571 11.93517871 -2.8828125 9.68359375 C-2.54652832 8.68900146 -2.21024414 7.69440918 -1.86376953 6.66967773 C-1.14746269 4.45576725 -0.52650007 2.26502617 0 0 Z " fill="#5D4E7E" transform="translate(69,43)"/>
<path d="M0 0 C0.66 0.33 1.32 0.66 2 1 C1.76812988 1.75095947 1.53625977 2.50191895 1.29736328 3.27563477 C0.23915765 6.70435852 -0.81793071 10.13342575 -1.875 13.5625 C-2.23980469 14.74392578 -2.60460937 15.92535156 -2.98046875 17.14257812 C-4.70748855 22.7475424 -6.42381049 28.35060497 -8 34 C-8.66 33.34 -9.32 32.68 -10 32 C-9.66083005 28.81180248 -9.01406317 26.04218951 -8 23 C-7.34 23 -6.68 23 -6 23 C-6.061875 21.989375 -6.12375 20.97875 -6.1875 19.9375 C-5.97850435 15.54859143 -4.84530552 12.96398964 -3 9 C-1.94105703 6.01874164 -0.96344894 3.0133403 0 0 Z " fill="#594A7A" transform="translate(83,107)"/>
<path d="M0 0 C9.9 0 19.8 0 30 0 C31.33333333 4.66666667 32.66666667 9.33333333 34 14 C33.34 14.66 32.68 15.32 32 16 C31.3299166 13.87607494 30.66403203 11.75082476 30 9.625 C29.62875 8.44164062 29.2575 7.25828125 28.875 6.0390625 C28 3 28 3 28 1 C18.76 1 9.52 1 0 1 C0 0.67 0 0.34 0 0 Z " fill="#61557E" transform="translate(110,188)"/>
<path d="M0 0 C0.99 0.33 1.98 0.66 3 1 C2.2884375 1.8353125 2.2884375 1.8353125 1.5625 2.6875 C-1.71331122 7.53570061 -1.12391668 13.17633856 -1.0625 18.8125 C-1.05798828 19.60076172 -1.05347656 20.38902344 -1.04882812 21.20117188 C-1.03711312 23.13414761 -1.01917998 25.06708393 -1 27 C-2.32 26.34 -3.64 25.68 -5 25 C-4.9397287 21.95629957 -4.85260043 18.91732588 -4.75 15.875 C-4.73582031 15.0190625 -4.72164062 14.163125 -4.70703125 13.28125 C-4.48854178 7.60052378 -3.62201471 4.41885794 0 0 Z " fill="#59497A" transform="translate(518,114)"/>
<path d="M0 0 C0.66 0 1.32 0 2 0 C0.28554834 7.88647763 -2.04801813 15.52459541 -4.5625 23.1875 C-5.01991577 24.60518677 -5.01991577 24.60518677 -5.48657227 26.05151367 C-5.78104248 26.93556885 -6.0755127 27.81962402 -6.37890625 28.73046875 C-6.77444702 29.92772583 -6.77444702 29.92772583 -7.17797852 31.14916992 C-8 33 -8 33 -10 34 C-10 32.35 -10 30.7 -10 29 C-9.34 29 -8.68 29 -8 29 C-7.7834375 27.14375 -7.7834375 27.14375 -7.5625 25.25 C-6.95629162 20.45926986 -5.79416273 16.48540683 -4 12 C-3.24976446 9.44919917 -3 7.69979128 -3 5 C-2.34 5 -1.68 5 -1 5 C-0.67 3.35 -0.34 1.7 0 0 Z " fill="#5C4E7D" transform="translate(94,72)"/>
<path d="M0 0 C0.66 0.33 1.32 0.66 2 1 C2 7.6 2 14.2 2 21 C-4.93 21 -11.86 21 -19 21 C-19 20.67 -19 20.34 -19 20 C-17.17662109 19.90912109 -17.17662109 19.90912109 -15.31640625 19.81640625 C-13.73175772 19.73201668 -12.14712298 19.6473679 -10.5625 19.5625 C-9.35883789 19.50352539 -9.35883789 19.50352539 -8.13085938 19.44335938 C-4.24760439 19.5945704 -4.24760439 19.5945704 -1 18 C-0.84417697 16.65984779 -0.74955858 15.31241097 -0.68359375 13.96484375 C-0.64169922 13.15595703 -0.59980469 12.34707031 -0.55664062 11.51367188 C-0.51732422 10.66353516 -0.47800781 9.81339844 -0.4375 8.9375 C-0.39431641 8.08349609 -0.35113281 7.22949219 -0.30664062 6.34960938 C-0.20023298 4.23327963 -0.09958269 2.11666187 0 0 Z " fill="#60537F" transform="translate(441,49)"/>
<path d="M0 0 C1.15867248 3.41296043 0.82764405 5.5107447 -0.1875 8.9375 C-0.60902344 10.37802734 -0.60902344 10.37802734 -1.0390625 11.84765625 C-1.35617188 12.88792969 -1.67328125 13.92820312 -2 15 C-2.33773437 16.13308594 -2.67546875 17.26617187 -3.0234375 18.43359375 C-4.95770147 24.83993421 -6.91200646 31.04458389 -10 37 C-11.56346872 33.87306255 -10.1987065 31.702747 -9.19921875 28.41796875 C-9.00278275 27.76677567 -8.80634674 27.11558258 -8.60395813 26.44465637 C-8.18608436 25.06419765 -7.76469315 23.68479959 -7.34008789 22.30639648 C-6.69393463 20.20839268 -6.05791091 18.10753898 -5.42382812 16.00585938 C-2.05739157 4.92248257 -2.05739157 4.92248257 0 0 Z " fill="#5A4E78" transform="translate(59,75)"/>
<path d="M0 0 C0.66 0.66 1.32 1.32 2 2 C-1.60233918 7.66081871 -1.60233918 7.66081871 -4.125 9.8125 C-6.97118853 13.13305328 -7.22934136 16.78202013 -8 21 C-8.3626932 22.52381517 -8.73685678 24.04496784 -9.125 25.5625 C-9.41375 26.696875 -9.7025 27.83125 -10 29 C-10.33 29 -10.66 29 -11 29 C-11.84756402 19.88868673 -8.83162608 10.85417203 -3.25 3.6875 C-2.18556487 2.441932 -1.10924408 1.20583555 0 0 Z " fill="#635581" transform="translate(326,49)"/>
<path d="M0 0 C1.31212371 3.93637114 0.38269282 5.70360744 -0.87109375 9.63671875 C-1.0722731 10.27615921 -1.27345245 10.91559967 -1.48072815 11.57441711 C-2.12476177 13.6148257 -2.78094233 15.65109096 -3.4375 17.6875 C-3.876457 19.07070803 -4.31461784 20.45416899 -4.75195312 21.83789062 C-5.82541481 25.22824326 -6.9098037 28.61498632 -8 32 C-8.66 31.01 -9.32 30.02 -10 29 C-9.1000218 24.7455576 -7.56379388 20.98015455 -5.7890625 17.02734375 C-4.46443623 13.62397229 -3.63200222 10.08940999 -2.74609375 6.55078125 C-2.05175406 4.17693927 -1.18159651 2.16541506 0 0 Z " fill="#564778" transform="translate(55,198)"/>
<path d="M0 0 C5.84988823 2.5648538 10.35663045 8.24678392 13 14 C12.6875 16.3125 12.6875 16.3125 12 18 C12 17.34 12 16.68 12 16 C10.68 15.67 9.36 15.34 8 15 C8 13.68 8 12.36 8 11 C7.01 10.67 6.02 10.34 5 10 C4.32060826 8.00428677 3.65438441 6.00405227 3 4 C2.01 3.34 1.02 2.68 0 2 C0 1.34 0 0.68 0 0 Z M3 9 C3.66 9.66 4.32 10.32 5 11 C4.34 11 3.68 11 3 11 C3 10.34 3 9.68 3 9 Z M1 11 C3 12 3 12 3 12 Z " fill="#625085" transform="translate(592,91)"/>
<path d="M0 0 C7.19069045 -0.8616064 13.20115949 -1.1876475 19.22753906 3.12133789 C25.56839247 8.13678494 25.56839247 8.13678494 27 11 C24.9375 10.9375 24.9375 10.9375 22 10 C21.01719945 8.8538687 20.06195493 7.68390429 19.125 6.5 C16.0978468 3.1884163 13.60911247 2.5069948 9.15380859 2.15234375 C6.09742541 2.02103987 3.05946305 1.97243727 0 2 C0 1.34 0 0.68 0 0 Z " fill="#5C5173" transform="translate(412,37)"/>
<path d="M0 0 C0.66 0.33 1.32 0.66 2 1 C0.84965035 9.54545455 0.84965035 9.54545455 0 12 C-0.99 12.495 -0.99 12.495 -2 13 C-3.11425064 16.52770849 -3.99306569 20.0941133 -4.90234375 23.6796875 C-5.91499417 26.74286492 -6.4983651 28.07566546 -9 30 C-6.19378492 16.94413408 -6.19378492 16.94413408 -3.76171875 10.921875 C-2.34229674 7.34056407 -1.19494549 3.66110957 0 0 Z " fill="#5F5180" transform="translate(45,119)"/>
<path d="M0 0 C1.72182952 3.44365905 -0.32608765 6.93028712 -1.40625 10.46875 C-2.27889743 12.97525142 -2.27889743 12.97525142 -1 15 C1.64 15 4.28 15 7 15 C7.33 15.66 7.66 16.32 8 17 C4.04 17 0.08 17 -4 17 C-4.98138508 13.07445966 -4.93746297 11.74985189 -4 8 C-3.814375 7.236875 -3.62875 6.47375 -3.4375 5.6875 C-3.293125 5.130625 -3.14875 4.57375 -3 4 C-2.34 4 -1.68 4 -1 4 C-0.67 2.68 -0.34 1.36 0 0 Z " fill="#4E406B" transform="translate(73,141)"/>
<path d="M0 0 C0.99 0.495 0.99 0.495 2 1 C2 1.99 2 2.98 2 4 C2.66 4 3.32 4 4 4 C4 5.32 4 6.64 4 8 C4.66 8.33 5.32 8.66 6 9 C6.268125 9.61875 6.53625 10.2375 6.8125 10.875 C8.35468207 13.63469422 10.31482369 14.41643448 13 16 C13.33 16.99 13.66 17.98 14 19 C14.99 19.33 15.98 19.66 17 20 C17.33 20.99 17.66 21.98 18 23 C11.30420422 20.66344626 6.82758214 16.26416714 3.375 10.09765625 C0 2.80113636 0 2.80113636 0 0 Z " fill="#60527E" transform="translate(484,203)"/>
<path d="M0 0 C10.56 1.98 21.12 3.96 32 6 C30 8 30 8 27.375 8.125 C26.59125 8.08375 25.8075 8.0425 25 8 C25 7.34 25 6.68 25 6 C24.01 6.33 23.02 6.66 22 7 C21.67 6.67 21.34 6.34 21 6 C15.40253548 4.62744165 9.70230163 3.79832223 4 3 C2.66082739 2.69096017 1.32346746 2.37057089 0 2 C0 1.34 0 0.68 0 0 Z " fill="#5E517C" transform="translate(384,116)"/>
<path d="M0 0 C1.31352023 0.30818356 2.62579572 0.62167665 3.9375 0.9375 C5.03384766 1.19853516 5.03384766 1.19853516 6.15234375 1.46484375 C8 2 8 2 9 3 C12.25843529 3.54080028 15.52682882 3.96606118 18.80078125 4.40234375 C21.61708733 4.92846686 23.55738682 5.55855667 26 7 C23.44199363 8.27900319 22.38456004 7.85216413 19.60546875 7.29296875 C18.73212891 7.11830078 17.85878906 6.94363281 16.95898438 6.76367188 C16.04439453 6.57353516 15.12980469 6.38339844 14.1875 6.1875 C12.83301758 5.91969727 12.83301758 5.91969727 11.45117188 5.64648438 C7.11959866 4.76489306 3.03526755 3.86958937 -1 2 C-0.67 1.34 -0.34 0.68 0 0 Z " fill="#5B4D7C" transform="translate(340,139)"/>
<path d="M0 0 C1.5778125 1.175625 1.5778125 1.175625 3.1875 2.375 C8.6865263 5.87257889 14.62905687 6.34930916 21 7 C20.34 7.66 19.68 8.32 19 9 C16.03125 8.9765625 16.03125 8.9765625 12.5 8.625 C11.3346875 8.51414063 10.169375 8.40328125 8.96875 8.2890625 C7.9890625 8.19367188 7.009375 8.09828125 6 8 C5.34 8 4.68 8 4 8 C2.7109375 6.46875 2.7109375 6.46875 1.375 4.5 C0.70597656 3.52546875 0.70597656 3.52546875 0.0234375 2.53125 C-0.31429687 2.0259375 -0.65203125 1.520625 -1 1 C-0.67 0.67 -0.34 0.34 0 0 Z " fill="#635380" transform="translate(841,135)"/>
<path d="M0 0 C0.33 0.66 0.66 1.32 1 2 C-0.2065625 2.433125 -0.2065625 2.433125 -1.4375 2.875 C-4.1326468 3.73262568 -4.1326468 3.73262568 -5 6 C-7.33333333 6.33333333 -9.66666667 6.66666667 -12 7 C-12.33 7.66 -12.66 8.32 -13 9 C-13.66 8.01 -14.32 7.02 -15 6 C-10.0778687 3.36634013 -5.42096702 1.35524176 0 0 Z " fill="#615282" transform="translate(347,38)"/>
<path d="M0 0 C1.3308911 2.66178221 1.11268993 4.68739396 1.09765625 7.6640625 C1.09443359 8.78554687 1.09121094 9.90703125 1.08789062 11.0625 C1.07951172 12.238125 1.07113281 13.41375 1.0625 14.625 C1.05798828 15.80835938 1.05347656 16.99171875 1.04882812 18.2109375 C1.03701467 21.14067507 1.02054258 24.07031272 1 27 C0.01 27 -0.98 27 -2 27 C-2.22299652 8.63995354 -2.22299652 8.63995354 -1 1 C-0.67 0.67 -0.34 0.34 0 0 Z " fill="#51436C" transform="translate(771,166)"/>
<path d="M0 0 C0.66 0.33 1.32 0.66 2 1 C-2.41212912 7.43435497 -8.55510972 10.95265517 -16 13 C-16 12.34 -16 11.68 -16 11 C-14.80375 10.443125 -13.6075 9.88625 -12.375 9.3125 C-9.47877771 7.87979429 -7.06374934 6.3688144 -4.625 4.25 C-2 2 -2 2 0 2 C0 1.34 0 0.68 0 0 Z " fill="#5E4D7D" transform="translate(438,216)"/>
<path d="M0 0 C1.98 0 3.96 0 6 0 C7.09651823 3.41139003 6.94215473 6.20655581 6.5625 9.75 C6.46066406 10.73484375 6.35882812 11.7196875 6.25390625 12.734375 C6.12822266 13.85585937 6.12822266 13.85585937 6 15 C5.67 15 5.34 15 5 15 C4.67 10.71 4.34 6.42 4 2 C2.35 2 0.7 2 -1 2 C-0.67 1.34 -0.34 0.68 0 0 Z " fill="#594E73" transform="translate(596,201)"/>
<path d="M0 0 C5.46864457 1.01591421 10.76390013 2.07091057 16 4 C13 6 13 6 9.64453125 5.5390625 C8.37996094 5.23742187 7.11539062 4.93578125 5.8125 4.625 C4.54019531 4.32851562 3.26789063 4.03203125 1.95703125 3.7265625 C0.98121094 3.48679688 0.00539063 3.24703125 -1 3 C-0.67 2.01 -0.34 1.02 0 0 Z " fill="#605081" transform="translate(390,149)"/>
<path d="M0 0 C0.66 0 1.32 0 2 0 C1.43447641 3.28003681 0.67167078 4.97321527 -2 7 C-5.1875 8.1875 -5.1875 8.1875 -8 9 C-7.34 7.68 -6.68 6.36 -6 5 C-5.34 5 -4.68 5 -4 5 C-3.67 3.68 -3.34 2.36 -3 1 C-2.01 1.33 -1.02 1.66 0 2 C0 1.34 0 0.68 0 0 Z " fill="#5D4C84" transform="translate(601,217)"/>
<path d="M0 0 C2.49551158 2.49551158 3.07575992 4.66076626 4.1875 8 C4.55230469 9.0725 4.91710937 10.145 5.29296875 11.25 C6 14 6 14 5 16 C4.34 16 3.68 16 3 16 C2.30178583 13.89936424 1.61675528 11.79434263 0.9375 9.6875 C0.55464844 8.51574219 0.17179687 7.34398438 -0.22265625 6.13671875 C-1 3 -1 3 0 0 Z " fill="#5C4E7E" transform="translate(110,95)"/>
<path d="M0 0 C5.94 0.99 5.94 0.99 12 2 C12 2.99 12 3.98 12 5 C12.99 5.33 13.98 5.66 15 6 C15 7.65 15 9.3 15 11 C14.484375 10.236875 13.96875 9.47375 13.4375 8.6875 C9.52117908 4.36950514 4.67134918 2.85929533 -1 2 C-0.67 1.34 -0.34 0.68 0 0 Z " fill="#62547F" transform="translate(868,170)"/>
<path d="M0 0 C4.74425326 -0.23142699 8.47831116 0.60238709 13 2 C14.66246041 2.35371498 16.32774271 2.69595322 18 3 C18 3.66 18 4.32 18 5 C11.44074057 4.61020794 6.05473373 3.57886807 0 1 C0 0.67 0 0.34 0 0 Z " fill="#625081" transform="translate(828,163)"/>
<path d="M0 0 C1.74949772 2.62424658 2.65389981 4.55727216 3.625 7.5 C3.88539063 8.2734375 4.14578125 9.046875 4.4140625 9.84375 C5 12 5 12 5 15 C4.34 15 3.68 15 3 15 C0.5705484 11.3558226 0.83820425 9.28758728 1 5 C0.34 5 -0.32 5 -1 5 C-0.67 3.35 -0.34 1.7 0 0 Z " fill="#5F5081" transform="translate(170,177)"/>
<path d="M0 0 C0.33 0.99 0.66 1.98 1 3 C-0.423125 3.8971875 -0.423125 3.8971875 -1.875 4.8125 C-5.13964197 6.81562526 -5.13964197 6.81562526 -7 10 C-7.66 10 -8.32 10 -9 10 C-7.6834994 5.81113445 -4.97532335 0 0 0 Z " fill="#635386" transform="translate(497,92)"/>
<path d="M0 0 C6.6 0 13.2 0 20 0 C18.68 1.32 17.36 2.64 16 4 C13.02144422 3.79664479 10.60943389 3.44212446 7.75 2.75 C7.00492187 2.58886719 6.25984375 2.42773438 5.4921875 2.26171875 C3.65685532 1.86171045 1.82770005 1.43354745 0 1 C0 0.67 0 0.34 0 0 Z " fill="#403685" transform="translate(82,156)"/>
<path d="M0 0 C2.55803184 3.83704776 4.34505724 7.75712791 3.625 12.4375 C3.41875 12.953125 3.2125 13.46875 3 14 C2.87625 13.360625 2.7525 12.72125 2.625 12.0625 C2.41875 11.381875 2.2125 10.70125 2 10 C1.34 9.67 0.68 9.34 0 9 C-0.44921875 7.1875 -0.44921875 7.1875 -0.6875 5 C-0.77386719 4.278125 -0.86023438 3.55625 -0.94921875 2.8125 C-0.96597656 2.214375 -0.98273438 1.61625 -1 1 C-0.67 0.67 -0.34 0.34 0 0 Z " fill="#574975" transform="translate(148,107)"/>
<path d="M0 0 C0.33 0 0.66 0 1 0 C1 4.95 1 9.9 1 15 C0.34 15 -0.32 15 -1 15 C-1.91457003 9.43842552 -2.32086397 5.324335 0 0 Z " fill="#6A628C" transform="translate(293,96)"/>
<path d="M0 0 C0.66 0.33 1.32 0.66 2 1 C1.67 2.216875 1.34 3.43375 1 4.6875 C0.19677787 7.87210604 -0.20641973 10.6972843 0 14 C-0.99 14 -1.98 14 -3 14 C-2.40380045 9.13103697 -1.43023178 4.67209049 0 0 Z " fill="#534870" transform="translate(15,212)"/>
<path d="M0 0 C0.33 0 0.66 0 1 0 C0.52060632 4.71403788 0.03165952 8.66579301 -2 13 C-2.99 11.68 -3.98 10.36 -5 9 C-4.360625 8.071875 -3.72125 7.14375 -3.0625 6.1875 C-0.91377907 3.15780057 -0.91377907 3.15780057 0 0 Z " fill="#614F82" transform="translate(447,196)"/>
<path d="M0 0 C3.71134205 3.1994328 5.42930118 6.3705719 7 11 C6.6875 13.4375 6.6875 13.4375 6 15 C5.71125 14.05125 5.4225 13.1025 5.125 12.125 C4.23174891 8.94788422 4.23174891 8.94788422 2 7 C0.96838392 5.01612292 -0.03523618 3.01723344 -1 1 C-0.67 0.67 -0.34 0.34 0 0 Z " fill="#625180" transform="translate(762,97)"/>
<path d="M0 0 C0.33 0 0.66 0 1 0 C1.08090971 1.62418745 1.13914995 3.24951745 1.1875 4.875 C1.22230469 5.77992187 1.25710938 6.68484375 1.29296875 7.6171875 C1.19628906 8.40351562 1.09960938 9.18984375 1 10 C0.01 10.66 -0.98 11.32 -2 12 C-2.28571429 3.42857143 -2.28571429 3.42857143 0 0 Z " fill="#615285" transform="translate(647,86)"/>
<path d="M0 0 C0.33 0 0.66 0 1 0 C0.5547115 5.27315333 -0.08373163 10.01770224 -2 15 C-2.66 14.01 -3.32 13.02 -4 12 C-3.07260067 7.826703 -1.6676707 3.93093808 0 0 Z " fill="#5D4D7E" transform="translate(49,215)"/>
<path d="M0 0 C1.65 0.99 3.3 1.98 5 3 C4.74438677 5.3431213 4.40729228 7.67843403 4 10 C3.01 10.495 3.01 10.495 2 11 C1.34 7.37 0.68 3.74 0 0 Z " fill="#5F527F" transform="translate(147,216)"/>
<path d="M0 0 C1.5625 1.8125 1.5625 1.8125 3 4 C2.67 4.99 2.34 5.98 2 7 C2.66 7.33 3.32 7.66 4 8 C3.34 9.98 2.68 11.96 2 14 C-0.28062828 10.57905758 -0.21925007 9.31812778 -0.125 5.3125 C-0.10695313 4.31863281 -0.08890625 3.32476562 -0.0703125 2.30078125 C-0.04710937 1.54152344 -0.02390625 0.78226563 0 0 Z " fill="#614F8A" transform="translate(482,134)"/>
<path d="M0 0 C0.66 0 1.32 0 2 0 C0.25740319 10.55808656 0.25740319 10.55808656 -3 15 C-4.57156655 11.8568669 -3.11705576 9.634536 -2.0625 6.375 C-1.68222656 5.18648438 -1.30195312 3.99796875 -0.91015625 2.7734375 C-0.60980469 1.85820313 -0.30945312 0.94296875 0 0 Z " fill="#62557E" transform="translate(52,97)"/>
<path d="M0 0 C0.93423645 3.01031744 1.04449911 3.86650268 0 7 C-0.9590625 7.2165625 -0.9590625 7.2165625 -1.9375 7.4375 C-4.20311706 7.80104993 -4.20311706 7.80104993 -5.25 10.0625 C-5.4975 10.701875 -5.745 11.34125 -6 12 C-5.54300722 6.97307937 -3.00758252 3.85103739 0 0 Z " fill="#5D517E" transform="translate(815,96)"/>
<path d="M0 0 C1.99609375 0.05078125 1.99609375 0.05078125 4.4375 0.3125 C5.64212891 0.43044922 5.64212891 0.43044922 6.87109375 0.55078125 C9 1 9 1 11 3 C6.56398104 4.23222749 6.56398104 4.23222749 3.875 3.125 C3.25625 2.75375 2.6375 2.3825 2 2 C1.01 1.67 0.02 1.34 -1 1 C-0.67 0.67 -0.34 0.34 0 0 Z " fill="#645382" transform="translate(737,84)"/>
<path d="M0 0 C0.0825 0.61875 0.165 1.2375 0.25 1.875 C0.79394438 4.17972859 0.79394438 4.17972859 3 5.0625 C3.66 5.371875 4.32 5.68125 5 6 C5.33 6.99 5.66 7.98 6 9 C3.50638429 7.79618552 1.31856917 6.54571278 -1 5 C-1.6875 2.875 -1.6875 2.875 -2 1 C-1.34 0.67 -0.68 0.34 0 0 Z " fill="#5D4C7B" transform="translate(316,214)"/>
<path d="M0 0 C1.9451 2.91765 2.45276317 4.62537285 3 8 C3.66 8 4.32 8 5 8 C5 9.65 5 11.3 5 13 C4.01 13.495 4.01 13.495 3 14 C2.49307308 12.4188708 1.99473557 10.83498617 1.5 9.25 C1.2215625 8.36828125 0.943125 7.4865625 0.65625 6.578125 C0 4 0 4 0 0 Z " fill="#584874" transform="translate(105,81)"/>
<path d="M0 0 C0.99 0 1.98 0 3 0 C3.3449145 1.33038449 3.67516582 2.66457061 4 4 C4.3403125 5.299375 4.3403125 5.299375 4.6875 6.625 C4.790625 7.40875 4.89375 8.1925 5 9 C4.34 9.66 3.68 10.32 3 11 C2.01 7.37 1.02 3.74 0 0 Z " fill="#5A4A75" transform="translate(139,193)"/>
<path d="M0 0 C1.33333333 0.66666667 2.66666667 1.33333333 4 2 C5.051875 2.474375 6.10375 2.94875 7.1875 3.4375 C10 5 10 5 11 8 C6.40378078 6.5129879 3.53027653 4.20187872 0 1 C0 0.67 0 0.34 0 0 Z " fill="#5C4E77" transform="translate(325,131)"/>
<path d="M0 0 C3.85658398 2.15078722 7.54319097 4.23455278 11 7 C10.67 7.99 10.34 8.98 10 10 C9.44570313 9.50628906 8.89140625 9.01257813 8.3203125 8.50390625 C7.59585937 7.86324219 6.87140625 7.22257813 6.125 6.5625 C5.40570313 5.92441406 4.68640625 5.28632813 3.9453125 4.62890625 C2.09249509 2.94985535 2.09249509 2.94985535 0 2 C0 1.34 0 0.68 0 0 Z " fill="#594C79" transform="translate(427,126)"/>
<path d="M0 0 C2.49505962 2.49505962 2.35948376 3.67328888 2.625 7.125 C2.69976562 8.03507813 2.77453125 8.94515625 2.8515625 9.8828125 C2.92503906 10.93082031 2.92503906 10.93082031 3 12 C1 11 1 11 0.33203125 9.00390625 C0.16058594 8.19824219 -0.01085937 7.39257812 -0.1875 6.5625 C-0.36667969 5.75941406 -0.54585938 4.95632812 -0.73046875 4.12890625 C-1 2 -1 2 0 0 Z " fill="#5F4F7E" transform="translate(445,146)"/>
<path d="M0 0 C0.66 0.66 1.32 1.32 2 2 C1.625 5.125 1.625 5.125 1 8 C0.34 8 -0.32 8 -1 8 C-1.33 8.99 -1.66 9.98 -2 11 C-2.66 10.67 -3.32 10.34 -4 10 C-2.68 6.7 -1.36 3.4 0 0 Z " fill="#5E517E" transform="translate(25,182)"/>
<path d="M0 0 C2.72647685 2.35468455 3.98756342 4.5408417 5 8 C4.546875 10.16015625 4.546875 10.16015625 4 12 C2.33333333 8.66666667 0.66666667 5.33333333 -1 2 C-0.67 1.34 -0.34 0.68 0 0 Z " fill="#62507E" transform="translate(911,163)"/>
<path d="M0 0 C1.65 0 3.3 0 5 0 C7.125 4.625 7.125 4.625 6 8 C5.566875 7.195625 5.13375 6.39125 4.6875 5.5625 C3.19525998 2.72153646 3.19525998 2.72153646 0 2 C0 1.34 0 0.68 0 0 Z " fill="#5C4E7A" transform="translate(121,37)"/>
<path d="M0 0 C1.4540625 0.0309375 1.4540625 0.0309375 2.9375 0.0625 C2.9375 0.7225 2.9375 1.3825 2.9375 2.0625 C1.2875 2.0625 -0.3625 2.0625 -2.0625 2.0625 C-2.3925 3.3825 -2.7225 4.7025 -3.0625 6.0625 C-3.7225 6.0625 -4.3825 6.0625 -5.0625 6.0625 C-3.98897059 0.08140756 -3.98897059 0.08140756 0 0 Z " fill="#5D5277" transform="translate(75.0625,36.9375)"/>
<path d="M0 0 C1.33333333 2.66666667 2.66666667 5.33333333 4 8 C2.68 8.33 1.36 8.66 0 9 C0 6.03 0 3.06 0 0 Z " fill="#5F5087" transform="translate(483,193)"/>
<path d="M0 0 C0.33 0 0.66 0 1 0 C1.309375 1.093125 1.61875 2.18625 1.9375 3.3125 C2.58337897 5.55407994 3.2623117 7.7869351 4 10 C3.34 10 2.68 10 2 10 C0.61061923 8.03852126 -0.7260411 6.03833424 -2 4 C-1.34 2.68 -0.68 1.36 0 0 Z " fill="#52476E" transform="translate(516,190)"/>
<path d="M0 0 C2.31 0.33 4.62 0.66 7 1 C7 1.66 7 2.32 7 3 C7.66 3.33 8.32 3.66 9 4 C6.03 3.67 3.06 3.34 0 3 C0 2.01 0 1.02 0 0 Z " fill="#5F5284" transform="translate(379,147)"/>
<path d="M0 0 C0.66 0.33 1.32 0.66 2 1 C-3.14285714 6.57142857 -3.14285714 6.57142857 -7 7 C-4.66666667 4.66666667 -2.33333333 2.33333333 0 0 Z " fill="#5F5079" transform="translate(220,89)"/>
<path d="M0 0 C2.21399303 3.79541663 3.00980198 7.75629421 4 12 C0.7661562 9.18342636 -0.66714367 7.32713231 -1 3 C-0.67 2.01 -0.34 1.02 0 0 Z " fill="#554B73" transform="translate(134,63)"/>
<path d="M0 0 C0.66 0.33 1.32 0.66 2 1 C2.40729228 3.32156597 2.74438677 5.6568787 3 8 C2.34 8 1.68 8 1 8 C-1.125 3.375 -1.125 3.375 0 0 Z " fill="#625383" transform="translate(181,213)"/>
<path d="M0 0 C3.68754757 0.49831724 5.60490662 1.10067643 8 4 C6.68 4.33 5.36 4.66 4 5 C2.68 3.35 1.36 1.7 0 0 Z " fill="#5F5183" transform="translate(408,155)"/>
<path d="M0 0 C2.97 0.33 5.94 0.66 9 1 C7.515 2.485 7.515 2.485 6 4 C3.3125 3.6875 3.3125 3.6875 1 3 C0.67 2.01 0.34 1.02 0 0 Z " fill="#5E4B7F" transform="translate(877,145)"/>
<path d="M0 0 C0.66 0 1.32 0 2 0 C2.33 1.65 2.66 3.3 3 5 C3.99 5.33 4.98 5.66 6 6 C5.67 6.99 5.34 7.98 5 9 C4.34 9 3.68 9 3 9 C2.01 6.03 1.02 3.06 0 0 Z " fill="#635680" transform="translate(118,125)"/>
<path d="M0 0 C1.32 0.66 2.64 1.32 4 2 C3.38125 2.0825 2.7625 2.165 2.125 2.25 C-0.18437567 2.81258459 -0.18437567 2.81258459 -1.25 5.0625 C-1.4975 5.701875 -1.745 6.34125 -2 7 C-2.66 6.67 -3.32 6.34 -4 6 C-2.68 4.02 -1.36 2.04 0 0 Z " fill="#655085" transform="translate(353,69)"/>
<path d="M0 0 C1.67542976 0.28604898 3.34385343 0.61781233 5 1 C5.33 2.32 5.66 3.64 6 5 C5.01 5 4.02 5 3 5 C3 4.01 3 3.02 3 2 C1.68 1.67 0.36 1.34 -1 1 C-0.67 0.67 -0.34 0.34 0 0 Z " fill="#5C4D79" transform="translate(98,68)"/>
<path d="M0 0 C0 3 0 3 -1.3125 4.38671875 C-2.875 5.59114583 -4.4375 6.79557292 -6 8 C-4.52307692 2.33846154 -4.52307692 2.33846154 -1.875 0.625 C-0.946875 0.315625 -0.946875 0.315625 0 0 Z " fill="#574A77" transform="translate(908,216)"/>
<path d="M0 0 C3.36591866 1.44253657 5.51047079 3.33264727 8 6 C7.67 6.66 7.34 7.32 7 8 C5.8274869 7.04882866 4.66212985 6.08882991 3.5 5.125 C2.8503125 4.59132813 2.200625 4.05765625 1.53125 3.5078125 C1.0259375 3.01023437 0.520625 2.51265625 0 2 C0 1.34 0 0.68 0 0 Z " fill="#5F507F" transform="translate(592,91)"/>
<path d="M0 0 C0.66 0 1.32 0 2 0 C2.66 1.65 3.32 3.3 4 5 C3.01 5.66 2.02 6.32 1 7 C0 6 0 6 -0.0625 2.9375 C-0.041875 1.968125 -0.02125 0.99875 0 0 Z " fill="#463A8E" transform="translate(314,83)"/>
<path d="" fill="#FFFFFF" transform="translate(0,0)"/>
<path d="" fill="#FFFFFF" transform="translate(0,0)"/>
<path d="" fill="#FFFFFF" transform="translate(0,0)"/>
<path d="" fill="#FFFFFF" transform="translate(0,0)"/>
<path d="" fill="#FFFFFF" transform="translate(0,0)"/>
<path d="" fill="#FFFFFF" transform="translate(0,0)"/>
<path d="" fill="#FFFFFF" transform="translate(0,0)"/>
<path d="" fill="#FFFFFF" transform="translate(0,0)"/>
<path d="" fill="#FFFFFF" transform="translate(0,0)"/>
<path d="" fill="#FFFFFF" transform="translate(0,0)"/>
<path d="" fill="#FFFFFF" transform="translate(0,0)"/>
<path d="" fill="#FFFFFF" transform="translate(0,0)"/>
<path d="" fill="#FFFFFF" transform="translate(0,0)"/>
<path d="" fill="#FFFFFF" transform="translate(0,0)"/>
<path d="" fill="#FFFFFF" transform="translate(0,0)"/>
<path d="" fill="#FFFFFF" transform="translate(0,0)"/>
<path d="" fill="#FFFFFF" transform="translate(0,0)"/>
<path d="" fill="#FFFFFF" transform="translate(0,0)"/>
<path d="" fill="#FFFFFF" transform="translate(0,0)"/>
<path d="" fill="#FFFFFF" transform="translate(0,0)"/>
<path d="" fill="#FFFFFF" transform="translate(0,0)"/>
<path d="" fill="#FFFFFF" transform="translate(0,0)"/>
<path d="" fill="#FFFFFF" transform="translate(0,0)"/>
<path d="" fill="#FFFFFF" transform="translate(0,0)"/>
<path d="" fill="#FFFFFF" transform="translate(0,0)"/>
<path d="" fill="#FFFFFF" transform="translate(0,0)"/>
<path d="" fill="#FFFFFF" transform="translate(0,0)"/>
<path d="" fill="#FFFFFF" transform="translate(0,0)"/>
<path d="" fill="#FFFFFF" transform="translate(0,0)"/>
<path d="" fill="#FFFFFF" transform="translate(0,0)"/>
<path d="" fill="#FFFFFF" transform="translate(0,0)"/>
<path d="" fill="#FFFFFF" transform="translate(0,0)"/>
<path d="" fill="#FFFFFF" transform="translate(0,0)"/>
<path d="" fill="#FFFFFF" transform="translate(0,0)"/>
<path d="" fill="#FFFFFF" transform="translate(0,0)"/>
<path d="" fill="#FFFFFF" transform="translate(0,0)"/>
<path d="" fill="#FFFFFF" transform="translate(0,0)"/>
<path d="" fill="#FFFFFF" transform="translate(0,0)"/>
<path d="" fill="#FFFFFF" transform="translate(0,0)"/>
<path d="" fill="#FFFFFF" transform="translate(0,0)"/>
<path d="" fill="#FFFFFF" transform="translate(0,0)"/>
<path d="" fill="#FFFFFF" transform="translate(0,0)"/>
<path d="" fill="#FFFFFF" transform="translate(0,0)"/>
<path d="" fill="#FFFFFF" transform="translate(0,0)"/>
<path d="" fill="#FFFFFF" transform="translate(0,0)"/>
<path d="" fill="#FFFFFF" transform="translate(0,0)"/>
<path d="" fill="#FFFFFF" transform="translate(0,0)"/>
<path d="" fill="#FFFFFF" transform="translate(0,0)"/>
<path d="" fill="#FFFFFF" transform="translate(0,0)"/>
<path d="" fill="#FFFFFF" transform="translate(0,0)"/>
<path d="" fill="#FFFFFF" transform="translate(0,0)"/>
<path d="" fill="#FFFFFF" transform="translate(0,0)"/>
<path d="" fill="#FFFFFF" transform="translate(0,0)"/>
<path d="" fill="#FFFFFF" transform="translate(0,0)"/>
<path d="" fill="#FFFFFF" transform="translate(0,0)"/>
<path d="" fill="#FFFFFF" transform="translate(0,0)"/>
<path d="" fill="#FFFFFF" transform="translate(0,0)"/>
<path d="" fill="#FFFFFF" transform="translate(0,0)"/>
<path d="" fill="#FFFFFF" transform="translate(0,0)"/>
<path d="" fill="#FFFFFF" transform="translate(0,0)"/>
<path d="" fill="#FFFFFF" transform="translate(0,0)"/>
</svg>
