<?xml version="1.0" encoding="UTF-8"?>
<svg version="1.1" xmlns="http://www.w3.org/2000/svg" width="1024" height="1024">
<path d="M0 0 C0.83487946 -0.00100708 1.66975891 -0.00201416 2.52993774 -0.00305176 C87.91538986 0.06545406 179.99136307 22.58421635 249.0625 75.25 C249.7225 74.92 250.3825 74.59 251.0625 74.25 C251.3925 75.24 251.7225 76.23 252.0625 77.25 C254.05332303 78.80074636 256.03524324 80.21999364 258.125 81.625 C263.60914944 85.42838551 268.89157565 89.40532157 274.0625 93.625 C274.65297119 94.10501465 275.24344238 94.5850293 275.85180664 95.07958984 C277.93446128 96.78859092 279.99929488 98.51755225 282.0625 100.25 C282.55591888 100.66083832 283.04933777 101.07167664 283.55770874 101.4949646 C292.14477219 108.65867116 300.28215146 116.1503804 308.15991211 124.08666992 C309.88498477 125.82254731 311.62061991 127.5473509 313.35742188 129.27148438 C320.05241645 135.95857789 326.17715727 142.83269756 332.0625 150.25 C332.99708811 151.35199053 333.9384654 152.44831212 334.890625 153.53515625 C350.33178601 171.24268121 363.0695173 191.10127342 375.0625 211.25 C375.67714111 212.27311279 375.67714111 212.27311279 376.30419922 213.31689453 C390.11615635 236.48771159 400.17746622 261.85866254 409.0625 287.25 C409.62860214 288.82693212 410.19497911 290.40376563 410.76171875 291.98046875 C415.40758129 305.14894265 418.7741785 318.69013623 422.0625 332.25 C422.30387695 333.23178223 422.54525391 334.21356445 422.79394531 335.22509766 C426.40018167 350.15305889 428.26052869 365.15237475 429.80737305 380.40600586 C429.88503403 381.16793243 429.96269501 381.92985901 430.04270935 382.71487427 C430.18783629 384.15426248 430.32942847 385.59401291 430.4669342 387.03414917 C430.75658763 389.94479397 431.13313818 392.46191453 432.0625 395.25 C432.17215395 397.80226473 432.22620522 400.32619585 432.23046875 402.87890625 C432.23474884 403.64761551 432.23902893 404.41632477 432.24343872 405.20832825 C432.25353739 407.74310973 432.25346195 410.27770189 432.25 412.8125 C432.24906342 413.68457092 432.24812683 414.55664185 432.24716187 415.45513916 C432.13411951 464.25268437 425.65651867 511.52963824 411.0625 558.25 C410.7020459 559.40935059 410.3415918 560.56870117 409.97021484 561.76318359 C397.33744848 601.76417705 378.18820038 639.74517319 353.31445312 673.53759766 C352.01130315 675.32002627 350.73088815 677.1172692 349.453125 678.91796875 C342.84026795 688.17644964 335.6208646 696.7533918 328.0625 705.25 C326.72762749 706.76948254 325.39394915 708.29001684 324.0625 709.8125 C323.54300781 710.40160156 323.02351562 710.99070312 322.48828125 711.59765625 C321.03334825 713.28378408 319.64259855 715.01226175 318.25 716.75 C317.528125 717.575 316.80625 718.4 316.0625 719.25 C315.4025 719.25 314.7425 719.25 314.0625 719.25 C313.79824219 719.8387793 313.53398438 720.42755859 313.26171875 721.03417969 C312.01881056 723.33072584 310.71243519 724.85833166 308.875 726.703125 C308.25882813 727.321875 307.64265625 727.940625 307.0078125 728.578125 C306.36585938 729.21234375 305.72390625 729.8465625 305.0625 730.5 C304.42054688 731.1496875 303.77859375 731.799375 303.1171875 732.46875 C302.19292969 733.38914062 302.19292969 733.38914062 301.25 734.328125 C300.68667969 734.88918945 300.12335937 735.45025391 299.54296875 736.02832031 C298.0625 737.25 298.0625 737.25 296.0625 737.25 C296.0625 737.91 296.0625 738.57 296.0625 739.25 C294.76953125 740.58984375 294.76953125 740.58984375 292.875 742.1875 C291.77671875 743.11949219 291.77671875 743.11949219 290.65625 744.0703125 C289.8003125 744.78960938 288.944375 745.50890625 288.0625 746.25 C287.0828125 747.09304688 286.103125 747.93609375 285.09375 748.8046875 C260.76935518 769.69809399 234.18433641 787.87174289 206.0625 803.25 C205.29196289 803.67974121 204.52142578 804.10948242 203.72753906 804.55224609 C182.91841606 816.14997083 160.74284601 825.03737738 138.0625 832.25 C137.02528809 832.5809668 135.98807617 832.91193359 134.91943359 833.25292969 C67.67700322 854.3577021 -5.71850482 857.92985888 -74.9375 845.25 C-75.90268555 845.07774902 -76.86787109 844.90549805 -77.86230469 844.72802734 C-118.03439326 837.43074926 -158.30039957 823.81353274 -194.11376953 804.22851562 C-196.68593829 802.84842829 -199.30933208 801.58200852 -201.9375 800.3125 C-214.13792107 794.26256592 -225.7534753 786.99813652 -236.9375 779.25 C-237.88012695 778.60490479 -237.88012695 778.60490479 -238.84179688 777.94677734 C-249.01841446 770.97399956 -258.71294498 763.57736082 -268.19482422 755.68847656 C-269.7098666 754.43789801 -271.24578987 753.21270021 -272.78515625 751.9921875 C-289.37074603 738.83378595 -305.29655867 723.46139708 -318.9375 707.25 C-319.84629689 706.20324533 -320.75659904 705.15779662 -321.66796875 704.11328125 C-359.88184284 660.19134057 -388.62655369 608.65659151 -405.42700195 552.90380859 C-405.72952881 551.9133252 -406.03205566 550.9228418 -406.34375 549.90234375 C-406.60478516 549.02570068 -406.86582031 548.14905762 -407.13476562 547.24584961 C-407.75587848 545.06458366 -407.75587848 545.06458366 -409.9375 544.25 C-410.23510742 542.50097656 -410.23510742 542.50097656 -410.35546875 540.140625 C-410.88239163 533.66142517 -412.34533494 527.43394526 -413.77651978 521.10925293 C-430.3796395 447.14591273 -427.25829737 369.41053829 -403.9375 297.25 C-403.55577637 296.06374023 -403.17405273 294.87748047 -402.78076172 293.65527344 C-397.16364643 276.37786511 -390.67362612 259.68754917 -382.9375 243.25 C-382.50356934 242.32171387 -382.06963867 241.39342773 -381.62255859 240.43701172 C-371.44344204 218.84993452 -359.14044276 198.4231863 -344.9375 179.25 C-344.12876559 178.14463415 -343.32016527 177.03917018 -342.51171875 175.93359375 C-338.22455918 170.13593237 -333.7690067 164.50055714 -329.16796875 158.94921875 C-327.71741084 157.19381504 -326.28158736 155.42609467 -324.86328125 153.64453125 C-315.8325979 142.34365764 -305.75768512 131.9954844 -295.5625 121.75 C-294.92111084 121.10393799 -294.27972168 120.45787598 -293.61889648 119.79223633 C-289.22159191 115.4096821 -284.63801545 111.30298341 -279.9375 107.25 C-278.78113171 106.22816763 -277.62613461 105.204781 -276.47265625 104.1796875 C-257.74743095 87.65175538 -237.57409156 73.31776802 -216.1875 60.4375 C-215.19492187 59.83953613 -214.20234375 59.24157227 -213.1796875 58.62548828 C-200.32659949 50.98237082 -187.22436105 44.23751772 -173.5 38.3125 C-172.80951569 38.01285339 -172.11903137 37.71320679 -171.40762329 37.40447998 C-150.01311503 28.1339864 -128.41673961 20.48394814 -105.9375 14.25 C-104.61637207 13.8789917 -104.61637207 13.8789917 -103.26855469 13.50048828 C-92.4840904 10.50622858 -81.58362784 8.35800625 -70.5625 6.4375 C-68.67942139 6.10842651 -68.67942139 6.10842651 -66.75830078 5.77270508 C-61.40780776 4.87247609 -56.3764896 4.13047853 -50.9375 4.25 C-50.6075 3.59 -50.2775 2.93 -49.9375 2.25 C-48.80054688 2.18941406 -47.66359375 2.12882812 -46.4921875 2.06640625 C-44.93228827 1.9818334 -43.37239264 1.89719433 -41.8125 1.8125 C-41.07128906 1.77318359 -40.33007812 1.73386719 -39.56640625 1.69335938 C-35.98278575 1.4976154 -32.40460331 1.28746798 -28.8269043 1.00048828 C-19.20847292 0.23334434 -9.64364921 0.00818922 0 0 Z M-243.9375 109.25 C-244.74574219 109.87777344 -245.55398438 110.50554687 -246.38671875 111.15234375 C-255.75314497 118.52783879 -265.14475172 126.14046023 -273.42578125 134.734375 C-275.06661687 136.3794505 -276.78745027 137.87623733 -278.5625 139.375 C-284.00347785 143.97334853 -288.69716507 149.15832879 -293.4296875 154.46875 C-295.10066002 156.32191579 -296.7935836 158.15552308 -298.5078125 159.96875 C-306.31059771 168.24925676 -313.19769135 177.08982937 -319.9375 186.25 C-320.4442627 186.93723145 -320.95102539 187.62446289 -321.47314453 188.33251953 C-346.9960261 223.16364837 -367.12093283 261.99704018 -379.9375 303.25 C-380.31358398 304.45930176 -380.68966797 305.66860352 -381.07714844 306.91455078 C-399.11995338 365.89017347 -404.80019934 428.16123447 -394.9375 489.25 C-394.75558105 490.40274414 -394.57366211 491.55548828 -394.38623047 492.74316406 C-382.4668256 566.00649445 -349.96721782 633.66415117 -300.9375 689.25 C-300.31488281 689.96164307 -299.69226563 690.67328613 -299.05078125 691.40649414 C-292.90965393 698.34004783 -286.44728083 704.92639512 -279.89990234 711.47290039 C-278.06707731 713.30791722 -276.2424299 715.1508125 -274.41796875 716.99414062 C-267.56420716 723.88072996 -260.58272014 730.24106314 -252.9375 736.25 C-251.60829447 737.34580615 -250.28242934 738.44568497 -248.9609375 739.55078125 C-233.21827656 752.59088494 -216.51281119 763.82463747 -198.9375 774.25 C-197.74181396 774.95938721 -197.74181396 774.95938721 -196.52197266 775.68310547 C-168.26689474 792.24804917 -136.12256137 805.8662375 -104.26416016 813.67431641 C-101.64160348 814.32321343 -99.0307428 815.01202216 -96.41796875 815.69921875 C-72.70894565 821.79880373 -48.3521694 825.51315238 -23.9375 827.25 C-22.83172607 827.33459473 -22.83172607 827.33459473 -21.70361328 827.42089844 C45.22660168 832.44252167 117.96976821 820.92914055 178.0625 790.25 C178.96887207 789.79399414 179.87524414 789.33798828 180.80908203 788.86816406 C194.60846576 781.91030715 208.05789779 774.60372228 221.0625 766.25 C222.08601562 765.6003125 223.10953125 764.950625 224.1640625 764.28125 C238.52704869 754.9433306 252.19300582 744.54778872 265.0625 733.25 C266.16078125 732.30060547 266.16078125 732.30060547 267.28125 731.33203125 C269.22015361 729.65087872 271.14220384 727.95236931 273.0625 726.25 C273.77889648 725.61771484 274.49529297 724.98542969 275.23339844 724.33398438 C281.73525897 718.54564491 287.96815572 712.5275538 294.125 706.375 C295.05376953 705.45847656 295.98253906 704.54195312 296.93945312 703.59765625 C302.34410314 698.20438445 307.34436472 692.65126306 312.11254883 686.68798828 C313.67980517 684.72847635 315.27183074 682.81547745 316.92578125 680.9296875 C323.7536756 673.11082284 329.79141857 664.87873997 335.64990234 656.31396484 C336.94079517 654.42782452 338.24450817 652.55128005 339.55078125 650.67578125 C384.33121503 585.69344192 407.35318749 505.17759352 407.25 426.5 C407.24939575 425.64483795 407.2487915 424.7896759 407.24816895 423.90859985 C407.17496861 385.55653536 401.25503833 348.63144905 390.8125 311.75 C390.30058105 309.94136475 390.30058105 309.94136475 389.77832031 308.09619141 C388.05039029 301.89226355 388.05039029 301.89226355 385.0625 296.25 C384.92585937 295.55519531 384.78921875 294.86039062 384.6484375 294.14453125 C379.21270795 267.29202725 360.68520311 224.87270311 341.0625 205.25 C340.10464305 203.56234727 339.14794569 201.87401308 338.20019531 200.18066406 C336.32809966 197.00372577 334.14085695 194.07772599 331.9375 191.125 C331.45885498 190.47901855 330.98020996 189.83303711 330.48706055 189.16748047 C329.01787783 187.19067396 327.54155713 185.21942642 326.0625 183.25 C325.61503418 182.65251953 325.16756836 182.05503906 324.70654297 181.43945312 C319.9046343 175.04649647 314.9844567 168.84141783 309.55859375 162.95703125 C308.0625 161.25 308.0625 161.25 307.0625 159.25 C306.4025 159.25 305.7425 159.25 305.0625 159.25 C304.84134521 158.70432373 304.62019043 158.15864746 304.39233398 157.59643555 C302.64081333 154.5059518 300.2864146 152.18811836 297.78515625 149.70703125 C297.25917343 149.17913498 296.73319061 148.65123871 296.19126892 148.10734558 C295.07487687 146.98959418 293.95596166 145.87435797 292.8347168 144.76147461 C291.15510969 143.09242051 289.48624589 141.41317827 287.81835938 139.73242188 C281.2068341 133.11273233 274.39187173 127.07401001 267.0625 121.25 C265.96057722 120.31533201 264.86425309 119.37396016 263.77734375 118.421875 C250.45069337 106.80088592 235.89574332 96.85582607 220.95117188 87.44189453 C219.27885991 86.38653944 217.61531087 85.3173266 215.953125 84.24609375 C169.38397111 54.73997641 115.62270745 35.72525677 61.0625 28.25 C59.99080566 28.09901855 58.91911133 27.94803711 57.81494141 27.79248047 C-43.21562378 14.17384823 -145.91796245 41.34567463 -243.9375 109.25 Z " fill="#000000" transform="translate(507.9375,85.75)"/>
<path d="M0 0 C1.83111328 -0.02416992 1.83111328 -0.02416992 3.69921875 -0.04882812 C12.39826346 -0.05343079 20.33440154 1.14435661 28.75 3.3125 C29.85384033 3.59468384 29.85384033 3.59468384 30.97998047 3.88256836 C53.82923165 10.16013817 71.52442625 24.79725995 88.96875 40.140625 C110.3541309 58.81509151 134.0073888 68.91237663 162.75 67.3125 C187.18289614 64.65197485 206.93951561 50.88717134 225.42382812 35.65600586 C256.82298693 9.83392849 287.05251451 -2.91048789 328.37060547 0.53076172 C332.61579091 1.07762849 336.65632421 2.08389985 340.75 3.3125 C341.94496094 3.64121094 343.13992188 3.96992188 344.37109375 4.30859375 C364.9456492 10.49594705 381.84592023 22.72619147 397.7890625 36.74609375 C400.59148185 39.25387875 400.59148185 39.25387875 403.1484375 41.03515625 C403.67695312 41.45667969 404.20546875 41.87820313 404.75 42.3125 C404.75 42.9725 404.75 43.6325 404.75 44.3125 C405.31460938 44.57546875 405.87921875 44.8384375 406.4609375 45.109375 C408.93949637 46.41209878 411.10634977 47.92197768 413.375 49.5625 C432.13845304 62.73509858 450.69115935 68.49429994 473.75 67.3125 C475.42047688 66.9988188 477.08777638 66.66732606 478.75 66.3125 C483.58681486 65.85149108 487.44287267 65.57724088 491.75 68 C494.73144877 71.44730014 495.8162571 73.7223296 495.625 78.3125 C494.20112906 83.19434324 492.13359714 85.55010974 487.6875 88 C465.34883581 96.25967416 441.05641773 90.14068008 420.2265625 80.71875 C412.41320986 76.99003507 405.5442502 72.66116505 398.75 67.3125 C397.94304688 66.68601562 397.13609375 66.05953125 396.3046875 65.4140625 C392.16249131 62.15091759 388.1259226 58.78414482 384.1328125 55.34033203 C360.92948356 35.40517532 335.40911538 21.19527598 303.75 23.3125 C280.06942614 25.86590309 261.09918869 36.81552435 242.75 51.3125 C241.84701172 52.0230957 241.84701172 52.0230957 240.92578125 52.74804688 C239.75448747 53.66982664 238.5835831 54.59210146 237.41308594 55.51489258 C234.53031018 57.78709741 231.64335514 60.05377989 228.75 62.3125 C228.15896484 62.77543457 227.56792969 63.23836914 226.95898438 63.71533203 C202.39465228 82.81139578 172.72933543 94.6720271 141.15966797 91.01220703 C114.6285692 87.05497493 92.93172104 74.57688293 73.40625 56.66796875 C54.61717588 40.00648096 31.65233575 24.41083226 5.75 23.3125 C4.87601562 23.2609375 4.00203125 23.209375 3.1015625 23.15625 C-22.34658714 22.33754277 -44.03541491 33.72652477 -63.25 49.3125 C-64.17425781 50.055 -65.09851563 50.7975 -66.05078125 51.5625 C-70.36820201 55.06142276 -74.62023202 58.62698044 -78.83374023 62.25024414 C-84.31896926 66.95222688 -89.92342442 71.45572264 -95.6875 75.8125 C-96.68076294 76.5691394 -96.68076294 76.5691394 -97.6940918 77.34106445 C-107.02203565 84.3125 -107.02203565 84.3125 -112.8125 84.3125 C-117.04452105 83.0813666 -118.66785313 81.88193833 -121.25 78.3125 C-122.58236746 74.31539762 -122.6522125 71.47587163 -121.26953125 67.4765625 C-118.51488978 63.16077993 -115.02293473 60.63963502 -110.9375 57.625 C-109.30057835 56.38438225 -107.66386169 55.14349398 -106.02734375 53.90234375 C-105.2163623 53.29374512 -104.40538086 52.68514648 -103.56982422 52.05810547 C-100.35183137 49.63665221 -97.16935563 47.17213239 -94 44.6875 C-93.43740479 44.24833252 -92.87480957 43.80916504 -92.29516602 43.35668945 C-88.8097774 40.61289426 -85.44240968 37.76322123 -82.1105957 34.83544922 C-58.57505969 14.18350469 -31.86013687 -0.08305562 0 0 Z " fill="#000000" transform="translate(324.25,362.6875)"/>
<path d="M0 0 C0.95132813 0.53238281 1.90265625 1.06476562 2.8828125 1.61328125 C10.84534448 6.40268481 17.85314567 12.44658026 24.99658203 18.35107422 C51.7293477 40.35364543 76.85491884 51.94495889 112 50 C135.22562841 47.38290112 154.8765261 32.88951807 172.42260742 18.59741211 C199.9930006 -3.79440573 230.29514928 -18.01522606 266.65698242 -14.5378418 C293.92517436 -11.51168559 315.87829093 2.56007704 336.49462891 19.82006836 C338.00818715 21.08734035 338.00818715 21.08734035 340 22 C340 22.66 340 23.32 340 24 C340.80050781 24.34804688 340.80050781 24.34804688 341.6171875 24.703125 C344.71932185 26.39149976 347.37237195 28.55816735 350.125 30.75 C366.43222211 43.36642641 384.42171597 50.19684217 405.1875 50.1875 C406.11643066 50.19031982 407.04536133 50.19313965 408.00244141 50.19604492 C413.10063716 50.16624392 417.86208697 49.84176731 422.875 48.8125 C428.02080568 47.77746633 430.5529474 48.16145579 435 51 C437.72047581 53.72047581 438.82100497 56.15160691 439 60 C437.68507822 64.40885539 436.22049518 67.82710682 432.07421875 70.15625 C411.55092238 78.50470954 385.88657956 74.88164724 365.93359375 66.71484375 C349.63344035 59.73595135 336.30042992 49.46845925 322.70703125 38.21875 C299.34553645 19.07108904 276.0575987 6.70165775 245 9 C221.75144545 11.51760081 202.91234811 23.9623239 185 38 C153.74679233 62.48180056 123.34973271 77.99356709 82.33984375 73.5703125 C56.93569562 70.07903911 34.50495249 56.73841277 15.54296875 40.09448242 C-6.60009695 20.79988387 -30.75096905 7.27018664 -60.82177734 8.83154297 C-85.20535038 10.71729341 -104.6913605 23.84072914 -123.57226562 38.16064453 C-133.82700678 45.93007533 -144.17640964 53.57151183 -154.8125 60.8125 C-155.54734619 61.32248535 -156.28219238 61.8324707 -157.03930664 62.35791016 C-160.99065043 65.00741379 -164.10789773 66.80061301 -169 67 C-172.7761663 65.71610346 -174.72320596 64.29808589 -177.4375 61.375 C-179.20653298 57.55388876 -179.56404252 55.3234861 -178.83203125 51.21875 C-176.034231 43.75794932 -166.66016458 39.83869834 -160.19458008 35.89599609 C-155.2333297 32.84898291 -150.64704437 29.57052177 -146.07324219 25.96386719 C-101.97223728 -8.77341002 -52.89333161 -29.63977917 0 0 Z " fill="#000000" transform="translate(381,605)"/>
<path d="M0 0 C3.30712055 2.61044287 6.52638427 5.30793525 9.734375 8.0390625 C34.59008545 28.95956575 60.03942066 37.96770322 92.734375 35.9765625 C97.9481007 35.29950954 102.8131352 33.80702365 107.734375 31.9765625 C108.75015625 31.61433594 109.7659375 31.25210938 110.8125 30.87890625 C125.7726419 25.10241167 138.09228973 16.04378854 150.390625 5.98828125 C178.79706994 -17.16754354 209.77089986 -31.32382453 247.21728516 -27.7890625 C274.21304436 -24.18567686 296.96183184 -9.4115791 317.58691406 7.49511719 C341.91231114 27.43459066 364.4373727 38.09481963 396.734375 35.9765625 C398.40533584 35.66546963 400.0729785 35.3352414 401.734375 34.9765625 C406.41724495 34.47977108 409.83453889 34.56754609 414.171875 36.5390625 C417.42087177 39.62957162 418.20687543 41.53049466 418.734375 45.9765625 C417.63352512 50.53722629 416.01892506 53.13364775 412.234375 55.7890625 C407.28195453 58.53540476 402.30871694 59.34442063 396.734375 59.9765625 C395.6721875 60.110625 394.61 60.2446875 393.515625 60.3828125 C365.62879928 63.19707932 336.85167301 52.82110049 315.296875 35.2421875 C313.13265068 33.42235938 311.00126523 31.56705881 308.875 29.703125 C283.11099105 7.13154307 255.57564144 -6.01341411 220.734375 -4.0234375 C198.64501896 -1.4867356 180.3810947 11.57632811 163.50390625 24.9921875 C141.89741921 42.12975875 119.71902732 56.7173058 91.734375 59.9765625 C90.69925781 60.09902344 89.66414063 60.22148438 88.59765625 60.34765625 C57.37750219 63.39811762 26.94691885 51.10137158 2.734375 31.9765625 C0.0464946 29.74532926 -2.58726312 27.45232206 -5.2265625 25.1640625 C-29.26469265 4.60971932 -55.45367662 -6.32244314 -87.265625 -4.0234375 C-108.76984122 -1.48905727 -126.48669887 10.06316112 -143.265625 22.9765625 C-144.28398437 23.7603125 -145.30234375 24.5440625 -146.3515625 25.3515625 C-147.39570313 26.1559375 -148.43984375 26.9603125 -149.515625 27.7890625 C-181.29574321 52.2657352 -181.29574321 52.2657352 -189.265625 52.9765625 C-193.07939158 51.67988186 -194.99497622 50.27497013 -197.703125 47.2890625 C-199.41667543 43.65633558 -199.52098547 41.86517607 -199.015625 38.00390625 C-197.13471113 32.91956093 -193.33181384 30.09370367 -188.890625 27.2890625 C-187.81941406 26.59425781 -186.74820313 25.89945313 -185.64453125 25.18359375 C-185.08523926 24.82088379 -184.52594727 24.45817383 -183.94970703 24.08447266 C-181.1999472 22.27548308 -178.50831152 20.3863135 -175.828125 18.4765625 C-175.26029297 18.07219971 -174.69246094 17.66783691 -174.10742188 17.2512207 C-169.53031311 13.95695876 -165.06800852 10.52372949 -160.60742188 7.07397461 C-143.79649676 -5.90433754 -126.85075525 -16.69818221 -106.8125 -24.078125 C-104.32121155 -24.95063108 -104.32121155 -24.95063108 -102.265625 -26.0234375 C-100.38868116 -26.27793836 -98.51120971 -26.53094703 -96.62890625 -26.7421875 C-94.80348514 -26.9594277 -92.98516527 -27.23684746 -91.171875 -27.5390625 C-56.68998327 -31.81481708 -26.98361878 -20.92674939 0 0 Z " fill="#000000" transform="translate(401.265625,506.0234375)"/>
<path d="" fill="#000000" transform="translate(0,0)"/>
<path d="" fill="#000000" transform="translate(0,0)"/>
<path d="" fill="#000000" transform="translate(0,0)"/>
<path d="M0 0 C2 1 2 1 2 1 Z " fill="#000000" transform="translate(369,915)"/>
<path d="M0 0 C2 1 2 1 2 1 Z " fill="#000000" transform="translate(593,904)"/>
<path d="M0 0 C2 1 2 1 2 1 Z " fill="#000000" transform="translate(625,896)"/>
<path d="M0 0 C2 1 2 1 2 1 Z " fill="#000000" transform="translate(374,888)"/>
<path d="M0 0 C2 1 2 1 2 1 Z " fill="#000000" transform="translate(354,880)"/>
<path d="M0 0 C2 1 2 1 2 1 Z " fill="#000000" transform="translate(801,787)"/>
<path d="M0 0 C2 1 2 1 2 1 Z " fill="#000000" transform="translate(760,677)"/>
<path d="M0 0 C2 1 2 1 2 1 Z " fill="#000000" transform="translate(739,669)"/>
<path d="M0 0 C2 1 2 1 2 1 Z " fill="#000000" transform="translate(736,668)"/>
<path d="M0 0 C2 1 2 1 2 1 Z " fill="#000000" transform="translate(528,640)"/>
<path d="" fill="#000000" transform="translate(0,0)"/>
<path d="M0 0 C2 1 2 1 2 1 Z " fill="#000000" transform="translate(118,579)"/>
<path d="M0 0 C2 1 2 1 2 1 Z " fill="#000000" transform="translate(762,538)"/>
<path d="" fill="#000000" transform="translate(0,0)"/>
<path d="" fill="#000000" transform="translate(0,0)"/>
<path d="" fill="#000000" transform="translate(0,0)"/>
<path d="" fill="#000000" transform="translate(0,0)"/>
<path d="M0 0 C2 1 2 1 2 1 Z " fill="#000000" transform="translate(640,502)"/>
<path d="M0 0 C2 1 2 1 2 1 Z " fill="#000000" transform="translate(628,502)"/>
<path d="M0 0 C2 1 2 1 2 1 Z " fill="#000000" transform="translate(788,455)"/>
<path d="M0 0 C2 1 2 1 2 1 Z " fill="#000000" transform="translate(792,429)"/>
<path d="M0 0 C2 1 2 1 2 1 Z " fill="#000000" transform="translate(784,429)"/>
<path d="M0 0 C2 1 2 1 2 1 Z " fill="#000000" transform="translate(481,429)"/>
<path d="M0 0 C2 1 2 1 2 1 Z " fill="#000000" transform="translate(471,429)"/>
<path d="" fill="#000000" transform="translate(0,0)"/>
<path d="" fill="#000000" transform="translate(0,0)"/>
<path d="M0 0 C2 1 2 1 2 1 Z " fill="#000000" transform="translate(848,294)"/>
<path d="M0 0 C2 1 2 1 2 1 Z " fill="#000000" transform="translate(802,235)"/>
<path d="M0 0 C2 1 2 1 2 1 Z " fill="#000000" transform="translate(483,85)"/>
<path d="" fill="#000000" transform="translate(0,0)"/>
<path d="" fill="#000000" transform="translate(0,0)"/>
<path d="" fill="#000000" transform="translate(0,0)"/>
<path d="" fill="#000000" transform="translate(0,0)"/>
<path d="" fill="#000000" transform="translate(0,0)"/>
<path d="" fill="#000000" transform="translate(0,0)"/>
<path d="" fill="#000000" transform="translate(0,0)"/>
<path d="" fill="#000000" transform="translate(0,0)"/>
<path d="" fill="#000000" transform="translate(0,0)"/>
<path d="" fill="#000000" transform="translate(0,0)"/>
<path d="" fill="#000000" transform="translate(0,0)"/>
<path d="" fill="#000000" transform="translate(0,0)"/>
<path d="" fill="#000000" transform="translate(0,0)"/>
<path d="" fill="#000000" transform="translate(0,0)"/>
<path d="" fill="#000000" transform="translate(0,0)"/>
<path d="" fill="#000000" transform="translate(0,0)"/>
<path d="" fill="#000000" transform="translate(0,0)"/>
<path d="" fill="#000000" transform="translate(0,0)"/>
<path d="" fill="#000000" transform="translate(0,0)"/>
<path d="" fill="#000000" transform="translate(0,0)"/>
<path d="" fill="#000000" transform="translate(0,0)"/>
<path d="" fill="#000000" transform="translate(0,0)"/>
<path d="" fill="#000000" transform="translate(0,0)"/>
<path d="" fill="#000000" transform="translate(0,0)"/>
<path d="" fill="#000000" transform="translate(0,0)"/>
<path d="" fill="#000000" transform="translate(0,0)"/>
<path d="" fill="#000000" transform="translate(0,0)"/>
<path d="" fill="#000000" transform="translate(0,0)"/>
<path d="" fill="#000000" transform="translate(0,0)"/>
<path d="" fill="#000000" transform="translate(0,0)"/>
<path d="" fill="#000000" transform="translate(0,0)"/>
<path d="" fill="#000000" transform="translate(0,0)"/>
<path d="" fill="#000000" transform="translate(0,0)"/>
<path d="" fill="#000000" transform="translate(0,0)"/>
<path d="" fill="#000000" transform="translate(0,0)"/>
<path d="" fill="#000000" transform="translate(0,0)"/>
<path d="" fill="#000000" transform="translate(0,0)"/>
<path d="" fill="#000000" transform="translate(0,0)"/>
<path d="" fill="#000000" transform="translate(0,0)"/>
<path d="" fill="#000000" transform="translate(0,0)"/>
<path d="" fill="#000000" transform="translate(0,0)"/>
<path d="" fill="#000000" transform="translate(0,0)"/>
<path d="" fill="#000000" transform="translate(0,0)"/>
<path d="" fill="#000000" transform="translate(0,0)"/>
<path d="" fill="#000000" transform="translate(0,0)"/>
<path d="" fill="#000000" transform="translate(0,0)"/>
<path d="" fill="#000000" transform="translate(0,0)"/>
<path d="" fill="#000000" transform="translate(0,0)"/>
<path d="" fill="#000000" transform="translate(0,0)"/>
<path d="" fill="#000000" transform="translate(0,0)"/>
<path d="" fill="#000000" transform="translate(0,0)"/>
<path d="" fill="#000000" transform="translate(0,0)"/>
<path d="" fill="#000000" transform="translate(0,0)"/>
<path d="" fill="#000000" transform="translate(0,0)"/>
<path d="" fill="#000000" transform="translate(0,0)"/>
<path d="" fill="#000000" transform="translate(0,0)"/>
<path d="" fill="#000000" transform="translate(0,0)"/>
<path d="" fill="#000000" transform="translate(0,0)"/>
<path d="" fill="#000000" transform="translate(0,0)"/>
<path d="" fill="#000000" transform="translate(0,0)"/>
<path d="" fill="#000000" transform="translate(0,0)"/>
<path d="" fill="#000000" transform="translate(0,0)"/>
<path d="" fill="#000000" transform="translate(0,0)"/>
<path d="" fill="#000000" transform="translate(0,0)"/>
<path d="" fill="#000000" transform="translate(0,0)"/>
<path d="" fill="#000000" transform="translate(0,0)"/>
<path d="" fill="#000000" transform="translate(0,0)"/>
<path d="" fill="#000000" transform="translate(0,0)"/>
<path d="" fill="#000000" transform="translate(0,0)"/>
<path d="" fill="#000000" transform="translate(0,0)"/>
<path d="" fill="#000000" transform="translate(0,0)"/>
<path d="" fill="#000000" transform="translate(0,0)"/>
<path d="" fill="#000000" transform="translate(0,0)"/>
<path d="" fill="#000000" transform="translate(0,0)"/>
<path d="" fill="#000000" transform="translate(0,0)"/>
<path d="" fill="#000000" transform="translate(0,0)"/>
<path d="" fill="#000000" transform="translate(0,0)"/>
<path d="" fill="#000000" transform="translate(0,0)"/>
<path d="" fill="#000000" transform="translate(0,0)"/>
<path d="" fill="#000000" transform="translate(0,0)"/>
<path d="" fill="#000000" transform="translate(0,0)"/>
<path d="" fill="#000000" transform="translate(0,0)"/>
<path d="" fill="#000000" transform="translate(0,0)"/>
<path d="" fill="#000000" transform="translate(0,0)"/>
<path d="" fill="#000000" transform="translate(0,0)"/>
<path d="" fill="#000000" transform="translate(0,0)"/>
<path d="" fill="#000000" transform="translate(0,0)"/>
<path d="" fill="#000000" transform="translate(0,0)"/>
<path d="" fill="#000000" transform="translate(0,0)"/>
<path d="" fill="#000000" transform="translate(0,0)"/>
<path d="" fill="#000000" transform="translate(0,0)"/>
<path d="" fill="#000000" transform="translate(0,0)"/>
<path d="" fill="#000000" transform="translate(0,0)"/>
<path d="" fill="#000000" transform="translate(0,0)"/>
<path d="" fill="#000000" transform="translate(0,0)"/>
<path d="" fill="#000000" transform="translate(0,0)"/>
<path d="" fill="#000000" transform="translate(0,0)"/>
<path d="" fill="#000000" transform="translate(0,0)"/>
<path d="" fill="#000000" transform="translate(0,0)"/>
<path d="" fill="#000000" transform="translate(0,0)"/>
<path d="" fill="#000000" transform="translate(0,0)"/>
<path d="" fill="#000000" transform="translate(0,0)"/>
<path d="" fill="#000000" transform="translate(0,0)"/>
<path d="" fill="#000000" transform="translate(0,0)"/>
<path d="" fill="#000000" transform="translate(0,0)"/>
<path d="" fill="#000000" transform="translate(0,0)"/>
<path d="" fill="#000000" transform="translate(0,0)"/>
<path d="" fill="#000000" transform="translate(0,0)"/>
<path d="" fill="#000000" transform="translate(0,0)"/>
<path d="" fill="#000000" transform="translate(0,0)"/>
<path d="" fill="#000000" transform="translate(0,0)"/>
<path d="" fill="#000000" transform="translate(0,0)"/>
<path d="" fill="#000000" transform="translate(0,0)"/>
<path d="" fill="#000000" transform="translate(0,0)"/>
<path d="" fill="#000000" transform="translate(0,0)"/>
<path d="" fill="#000000" transform="translate(0,0)"/>
<path d="" fill="#000000" transform="translate(0,0)"/>
<path d="" fill="#000000" transform="translate(0,0)"/>
<path d="" fill="#000000" transform="translate(0,0)"/>
<path d="" fill="#000000" transform="translate(0,0)"/>
<path d="" fill="#000000" transform="translate(0,0)"/>
<path d="" fill="#000000" transform="translate(0,0)"/>
<path d="" fill="#000000" transform="translate(0,0)"/>
<path d="" fill="#000000" transform="translate(0,0)"/>
<path d="" fill="#000000" transform="translate(0,0)"/>
<path d="" fill="#000000" transform="translate(0,0)"/>
<path d="" fill="#000000" transform="translate(0,0)"/>
<path d="" fill="#000000" transform="translate(0,0)"/>
<path d="" fill="#000000" transform="translate(0,0)"/>
<path d="" fill="#000000" transform="translate(0,0)"/>
<path d="" fill="#000000" transform="translate(0,0)"/>
<path d="" fill="#000000" transform="translate(0,0)"/>
<path d="" fill="#000000" transform="translate(0,0)"/>
<path d="" fill="#000000" transform="translate(0,0)"/>
<path d="" fill="#000000" transform="translate(0,0)"/>
<path d="" fill="#000000" transform="translate(0,0)"/>
<path d="" fill="#000000" transform="translate(0,0)"/>
<path d="" fill="#000000" transform="translate(0,0)"/>
<path d="" fill="#000000" transform="translate(0,0)"/>
<path d="" fill="#000000" transform="translate(0,0)"/>
<path d="" fill="#000000" transform="translate(0,0)"/>
<path d="" fill="#000000" transform="translate(0,0)"/>
<path d="" fill="#000000" transform="translate(0,0)"/>
<path d="" fill="#000000" transform="translate(0,0)"/>
<path d="" fill="#000000" transform="translate(0,0)"/>
<path d="" fill="#000000" transform="translate(0,0)"/>
<path d="" fill="#000000" transform="translate(0,0)"/>
<path d="" fill="#000000" transform="translate(0,0)"/>
<path d="" fill="#000000" transform="translate(0,0)"/>
<path d="" fill="#000000" transform="translate(0,0)"/>
<path d="" fill="#000000" transform="translate(0,0)"/>
<path d="" fill="#000000" transform="translate(0,0)"/>
<path d="" fill="#000000" transform="translate(0,0)"/>
<path d="" fill="#000000" transform="translate(0,0)"/>
<path d="" fill="#000000" transform="translate(0,0)"/>
<path d="" fill="#000000" transform="translate(0,0)"/>
<path d="" fill="#000000" transform="translate(0,0)"/>
<path d="" fill="#000000" transform="translate(0,0)"/>
<path d="" fill="#000000" transform="translate(0,0)"/>
<path d="" fill="#000000" transform="translate(0,0)"/>
<path d="" fill="#000000" transform="translate(0,0)"/>
<path d="" fill="#000000" transform="translate(0,0)"/>
<path d="" fill="#000000" transform="translate(0,0)"/>
<path d="" fill="#000000" transform="translate(0,0)"/>
<path d="" fill="#000000" transform="translate(0,0)"/>
<path d="" fill="#000000" transform="translate(0,0)"/>
<path d="" fill="#000000" transform="translate(0,0)"/>
<path d="" fill="#000000" transform="translate(0,0)"/>
<path d="" fill="#000000" transform="translate(0,0)"/>
<path d="" fill="#000000" transform="translate(0,0)"/>
<path d="" fill="#000000" transform="translate(0,0)"/>
<path d="" fill="#000000" transform="translate(0,0)"/>
<path d="" fill="#000000" transform="translate(0,0)"/>
<path d="" fill="#000000" transform="translate(0,0)"/>
<path d="" fill="#000000" transform="translate(0,0)"/>
<path d="" fill="#000000" transform="translate(0,0)"/>
<path d="" fill="#000000" transform="translate(0,0)"/>
<path d="" fill="#000000" transform="translate(0,0)"/>
<path d="" fill="#000000" transform="translate(0,0)"/>
<path d="" fill="#000000" transform="translate(0,0)"/>
<path d="" fill="#000000" transform="translate(0,0)"/>
<path d="" fill="#000000" transform="translate(0,0)"/>
<path d="" fill="#000000" transform="translate(0,0)"/>
<path d="" fill="#000000" transform="translate(0,0)"/>
<path d="" fill="#000000" transform="translate(0,0)"/>
<path d="" fill="#000000" transform="translate(0,0)"/>
<path d="" fill="#000000" transform="translate(0,0)"/>
<path d="" fill="#000000" transform="translate(0,0)"/>
<path d="" fill="#000000" transform="translate(0,0)"/>
<path d="" fill="#000000" transform="translate(0,0)"/>
<path d="" fill="#000000" transform="translate(0,0)"/>
<path d="" fill="#000000" transform="translate(0,0)"/>
<path d="" fill="#000000" transform="translate(0,0)"/>
<path d="" fill="#000000" transform="translate(0,0)"/>
<path d="" fill="#000000" transform="translate(0,0)"/>
<path d="" fill="#000000" transform="translate(0,0)"/>
<path d="" fill="#000000" transform="translate(0,0)"/>
<path d="" fill="#000000" transform="translate(0,0)"/>
<path d="" fill="#000000" transform="translate(0,0)"/>
<path d="" fill="#000000" transform="translate(0,0)"/>
<path d="" fill="#000000" transform="translate(0,0)"/>
<path d="" fill="#000000" transform="translate(0,0)"/>
<path d="" fill="#000000" transform="translate(0,0)"/>
<path d="" fill="#000000" transform="translate(0,0)"/>
<path d="" fill="#000000" transform="translate(0,0)"/>
<path d="" fill="#000000" transform="translate(0,0)"/>
<path d="" fill="#000000" transform="translate(0,0)"/>
<path d="" fill="#000000" transform="translate(0,0)"/>
<path d="" fill="#000000" transform="translate(0,0)"/>
<path d="" fill="#000000" transform="translate(0,0)"/>
<path d="" fill="#000000" transform="translate(0,0)"/>
<path d="" fill="#000000" transform="translate(0,0)"/>
<path d="" fill="#000000" transform="translate(0,0)"/>
<path d="" fill="#000000" transform="translate(0,0)"/>
<path d="" fill="#000000" transform="translate(0,0)"/>
<path d="" fill="#000000" transform="translate(0,0)"/>
<path d="" fill="#000000" transform="translate(0,0)"/>
<path d="" fill="#000000" transform="translate(0,0)"/>
</svg>
