<?xml version="1.0" encoding="UTF-8"?>
<svg version="1.1" xmlns="http://www.w3.org/2000/svg" width="512" height="385">
<path d="M0 0 C0.71939758 -0.01139008 1.43879517 -0.02278015 2.17999268 -0.03451538 C9.67138779 -0.14479376 17.16372699 -0.19251446 24.65576172 -0.23535156 C28.20508054 -0.25764158 31.75335034 -0.29944343 35.30224609 -0.35839844 C39.60050167 -0.42964162 43.89776908 -0.46620384 48.1965847 -0.47846985 C49.82846315 -0.48883892 51.46031355 -0.51118841 53.09185219 -0.54606628 C67.43326519 -0.83687036 67.43326519 -0.83687036 72.50390625 3.64892578 C73.32227715 4.58014755 73.32227715 4.58014755 74.15718079 5.53018188 C77.39420287 9.1448994 81.6222413 10.06603831 86.31616211 10.42871094 C89.48266207 10.48678279 92.63319584 10.41742886 95.79956055 10.34960938 C105.81260924 10.18728581 115.78260457 10.29952278 125.79154778 10.63559341 C150.50072776 11.4400942 175.21559507 11.37723208 199.93505859 11.35498047 C205.02263563 11.35045581 210.11017694 11.35038635 215.19775391 11.35498047 C241.68829599 11.37886299 268.17964684 11.32174289 294.66800117 10.95260239 C297.06319004 10.9207768 299.4584455 10.89357587 301.8537426 10.87134171 C305.16230895 10.83898108 308.47008146 10.78798868 311.77832031 10.73193359 C312.73891169 10.72593517 313.69950306 10.71993675 314.68920326 10.71375656 C321.13081686 10.57634268 326.59367237 9.29282053 332.67456055 7.22460938 C333.82956055 6.91523437 334.98456055 6.60585937 336.17456055 6.28710938 C338.80648681 5.44719474 338.80648681 5.44719474 339.98706055 3.16210938 C340.32737305 2.20304688 340.32737305 2.20304688 340.67456055 1.22460938 C342.5880339 -0.68886398 346.0408236 0.06662011 348.57421875 0.04760742 C349.29636063 0.04103622 350.0185025 0.03446503 350.76252747 0.0276947 C353.16679992 0.00789466 355.57100932 -0.00372355 357.9753418 -0.01367188 C358.79792166 -0.0177474 359.62050152 -0.02182293 360.46800804 -0.02602196 C364.83251064 -0.0469239 369.19698154 -0.06120046 373.56152344 -0.07055664 C378.04567246 -0.08155289 382.52931582 -0.11586096 387.01328754 -0.15572834 C390.47858009 -0.18205211 393.94375593 -0.19026296 397.40913963 -0.19383812 C399.05995232 -0.19867362 400.71076087 -0.21019966 402.36147499 -0.22887611 C420.32846958 -0.41930939 433.99717922 4.26359385 447.3503418 16.73632812 C455.14884533 25.08531426 461.78541266 36.65816299 461.80878162 48.30881596 C461.81323947 49.34108155 461.81769731 50.37334715 461.82229024 51.43689352 C461.8220137 53.13574254 461.8220137 53.13574254 461.82173157 54.86891174 C461.82540826 56.07329972 461.82908494 57.27768769 461.83287305 58.51857227 C461.84199247 61.86317771 461.84660796 65.2077341 461.84926236 68.5523473 C461.85316893 72.15920912 461.86274708 75.76605678 461.87147522 79.37290955 C461.89123056 88.08475299 461.90130505 96.79659757 461.91020301 105.50845781 C461.91458779 109.61286218 461.91995414 113.71726527 461.92519188 117.82166862 C461.94220389 131.46911762 461.95669723 145.11656581 461.96394062 158.76402378 C461.96585046 162.30500349 461.9677708 165.8459832 461.96972656 169.38696289 C461.9702103 170.26703744 461.97069404 171.14711199 461.97119244 172.05385547 C461.97948963 186.30490102 462.00482141 200.55586255 462.03730724 214.80687142 C462.07040092 229.44410348 462.0883915 244.08129288 462.09158486 258.71856254 C462.09374791 266.93437691 462.10246644 275.15006878 462.12804604 283.36584663 C462.14978468 290.3640736 462.15778798 297.36214831 462.14807925 304.36040521 C462.14354354 307.9284093 462.14537767 311.49609946 462.1648407 315.06406021 C462.18580011 318.93997637 462.17545799 322.81546342 462.16230774 326.69142151 C462.17876161 328.36684795 462.17876161 328.36684795 462.19554788 330.07612139 C462.07395045 344.96274331 455.16710845 357.18994044 445.1628418 367.90039062 C434.86755153 377.51687055 421.27510178 383.46615536 407.18281269 383.48187828 C406.47004812 383.48538436 405.75728354 383.48889043 405.02292004 383.49250275 C402.64624837 383.50177028 400.26982425 383.49690555 397.8931427 383.49203491 C396.16720989 383.49577352 394.44127877 383.50037588 392.71535033 383.50576556 C387.9812442 383.517985 383.24720879 383.51773633 378.51309049 383.51537681 C373.40385755 383.51496837 368.2946472 383.52601037 363.1854248 383.53549194 C353.17843692 383.55209734 343.17147259 383.55760129 333.16447208 383.5587167 C325.02880549 383.55966743 316.89314666 383.56377898 308.75748253 383.57011795 C285.68417299 383.58772942 262.61088205 383.59695702 239.53756575 383.595457 C238.29395323 383.59537709 237.05034071 383.59529718 235.76904297 383.59521484 C234.52390943 383.59513308 233.27877589 383.59505132 231.99591102 383.59496708 C211.81990755 383.5941543 191.64397875 383.61329025 171.46799687 383.64149158 C150.74437809 383.67022946 130.02079572 383.68403136 109.29715651 383.68230402 C97.66527922 383.68164042 86.0334802 383.68711991 74.40162086 383.70866013 C64.49732261 383.72688382 54.59313812 383.73120947 44.68883035 383.71764128 C39.63809501 383.71111757 34.58757783 383.71097294 29.53686333 383.72834778 C24.90722763 383.74410988 20.27798252 383.74118284 15.64835616 383.72377951 C13.97946345 383.72071652 12.31054136 383.72431543 10.64168332 383.73549967 C-7.95792678 383.85182775 -23.13963827 378.92690052 -36.8137207 365.93554688 C-40.68977071 361.75206522 -43.68554083 357.26930114 -46.32543945 352.22460938 C-46.65745715 351.62558322 -46.98947485 351.02655706 -47.3315537 350.40937859 C-50.66434057 343.82872789 -50.89968549 337.99546789 -50.86029053 330.70896912 C-50.86935275 329.47116843 -50.87841498 328.23336774 -50.88775182 326.95805794 C-50.90861196 323.54292251 -50.91170583 320.12863308 -50.90697432 316.71349466 C-50.90615482 313.02204516 -50.92826652 309.33071924 -50.94720459 305.639328 C-50.98036117 298.41412654 -50.99142087 291.18905565 -50.9936541 283.96378445 C-50.99555848 278.08597098 -51.00379608 272.20820037 -51.0164566 266.33040047 C-51.05166748 249.64199402 -51.07013704 232.95369024 -51.06713471 216.26524638 C-51.06697488 215.36649193 -51.06681506 214.46773748 -51.06665039 213.54174805 C-51.06648687 212.64188764 -51.06632335 211.74202723 -51.06615487 210.81489832 C-51.06453041 196.24408442 -51.10277706 181.67368468 -51.15920386 167.1029905 C-51.21677149 152.11863446 -51.2442783 137.13447999 -51.24082875 122.15001065 C-51.23950451 113.74675026 -51.25033066 105.34392381 -51.29354095 96.94076347 C-51.33011066 89.78344865 -51.33854175 82.6267643 -51.31150326 75.46939611 C-51.29851435 71.82345523 -51.29794421 68.17872116 -51.33291626 64.53289795 C-51.51157318 44.66347097 -50.09523843 30.05645902 -35.66918945 15.33398438 C-25.30944216 6.01021181 -14.02127636 0.20422056 0 0 Z M-12.8293457 39.63867188 C-20.47881043 48.17867131 -20.47574227 58.30121053 -20.45915222 69.0974884 C-20.46141778 70.18263865 -20.46368333 71.26778889 -20.46601754 72.38582247 C-20.47234036 76.01674733 -20.47152928 79.6476347 -20.47070312 83.27856445 C-20.47369568 85.88402861 -20.47709843 88.48949232 -20.48088074 91.09495544 C-20.48917361 97.43473477 -20.49193496 103.77450479 -20.49249312 110.11428908 C-20.49296891 115.26945362 -20.49502682 120.4246151 -20.49819374 125.57977867 C-20.50699649 140.20754911 -20.51161369 154.83531222 -20.51086327 169.46308533 C-20.51082331 170.2510411 -20.51078335 171.03899686 -20.51074219 171.85083008 C-20.51070131 172.63975199 -20.51066043 173.42867391 -20.51061831 174.24150255 C-20.51021191 187.02510386 -20.51978075 199.80867571 -20.53388055 212.5922685 C-20.54825627 225.73006467 -20.55515008 238.86784647 -20.55428678 252.0056507 C-20.55395523 259.37682985 -20.5566839 266.74797811 -20.56746483 274.11915016 C-20.57754057 281.05238851 -20.57722226 287.98556068 -20.5699482 294.91880226 C-20.56890286 297.46083674 -20.57126222 300.0028753 -20.57730865 302.5449028 C-20.58503857 306.02027148 -20.58037695 309.4954155 -20.57267761 312.97077942 C-20.57782118 313.97186841 -20.58296474 314.97295741 -20.58826417 316.00438243 C-20.54167444 325.54943869 -19.73809156 334.71632826 -13.32543945 342.22460938 C-5.47231842 349.37826214 2.09545278 351.34709144 12.61903858 351.35324383 C13.29692638 351.35499687 13.97481418 351.3567499 14.67324403 351.35855606 C16.94321943 351.36320548 19.21313048 351.36075329 21.48310852 351.35832214 C23.12766849 351.36019065 24.77222802 351.36249151 26.41678685 351.36518747 C30.93508825 351.37130698 35.45337115 351.37117169 39.97167575 351.36999309 C44.8450015 351.36978912 49.7183213 351.37530746 54.59164429 351.38005066 C64.13901859 351.38835856 73.68638672 351.39110556 83.23376433 351.39166304 C90.99384312 351.39213812 98.75391988 351.3941925 106.51399803 351.39736366 C128.51263304 351.40617055 150.51126317 351.41078297 172.50989995 351.41003319 C173.69595426 351.40999323 174.88200856 351.40995328 176.10400391 351.40991211 C177.2915054 351.40987123 178.47900689 351.40983035 179.70249327 351.40978823 C198.95012266 351.40938173 218.19773249 351.41895219 237.44535623 351.43305048 C257.20611788 351.44741048 276.96686999 351.45432087 296.72763699 351.4534567 C307.82283586 351.4531246 318.91801422 351.4558772 330.01320839 351.46663475 C339.45943938 351.47573479 348.90564056 351.47791907 358.35187403 351.47112533 C363.17116069 351.46785765 367.99039016 351.46781242 372.8096714 351.47647858 C377.22319665 351.48433346 381.63661924 351.48292247 386.05014195 351.47419444 C387.64499824 351.47265723 389.23986215 351.47448395 390.83470944 351.48005452 C402.86252475 351.5192765 413.94739736 351.49014982 423.1784668 342.81054688 C430.64016193 334.48017678 430.82427523 324.92042581 430.80827332 314.389328 C430.81053887 313.29615951 430.81280443 312.20299102 430.81513864 311.07669622 C430.82147009 307.41269234 430.82064982 303.74872554 430.81982422 300.0847168 C430.82281624 297.45807345 430.82621887 294.83143054 430.83000183 292.20478821 C430.83830002 285.80972774 430.8410563 279.41467649 430.84161421 273.01961108 C430.84208977 267.82007765 430.8441465 262.62054726 430.84731483 257.42101479 C430.85611916 242.67159549 430.86073456 227.92218346 430.85998436 213.17276152 C430.8599444 212.37800364 430.85990445 211.58324575 430.85986328 210.7644043 C430.8598224 209.96867334 430.85978152 209.17294239 430.8597394 208.35309837 C430.859333 195.45882708 430.86890164 182.56458499 430.88300165 169.67032214 C430.8973732 156.42295128 430.9042714 143.17559466 430.90340787 129.9282158 C430.90307617 122.49389653 430.90581149 115.05960788 430.91658592 107.62529564 C430.92570118 101.29536301 430.92785776 94.9654749 430.9210765 88.63553854 C430.91781645 85.40809633 430.91882763 82.18075697 430.92642975 78.95331955 C430.93414866 75.44908419 430.9295053 71.94507224 430.92179871 68.44084167 C430.92951405 66.9221429 430.92951405 66.9221429 430.93738526 65.37276334 C430.88786065 55.16620021 429.45537965 46.37271809 422.26049805 38.72070312 C415.11018657 32.31601236 406.96923145 31.10137639 397.73008251 31.09597492 C397.05219471 31.09422188 396.37430692 31.09246885 395.67587706 31.09066269 C393.40590166 31.08601327 391.13599062 31.08846546 388.86601257 31.09089661 C387.2214526 31.0890281 385.57689307 31.08672724 383.93233424 31.08403128 C379.41403284 31.07791177 374.89574994 31.07804706 370.37744534 31.07922566 C365.50411959 31.07942963 360.63079979 31.07391129 355.75747681 31.06916809 C346.21010251 31.06086019 336.66273438 31.05811319 327.11535677 31.05755571 C319.35527797 31.05708063 311.59520121 31.05502625 303.83512306 31.05185509 C281.83648805 31.0430482 259.83785793 31.03843578 237.83922114 31.03918556 C236.65316684 31.03922552 235.46711253 31.03926547 234.24511719 31.03930664 C233.0576157 31.03934752 231.87011421 31.0393884 230.64662782 31.03943052 C211.39899843 31.03983702 192.1513886 31.03026656 172.90376487 31.01616827 C153.14300321 31.00180827 133.3822511 30.99489788 113.6214841 30.99576205 C102.52628523 30.99609415 91.43110687 30.99334155 80.3359127 30.982584 C70.88968172 30.97348396 61.44348053 30.97129968 51.99724706 30.97809342 C47.1779604 30.9813611 42.35873093 30.98140633 37.53944969 30.97274017 C33.12592445 30.96488529 28.71250185 30.96629628 24.29897914 30.97502431 C22.70412286 30.97656152 21.10925895 30.9747348 19.51441165 30.96916423 C7.48659634 30.92994225 -3.59827627 30.95906893 -12.8293457 39.63867188 Z " fill="#000000" transform="translate(50.325439453125,-0.224609375)"/>
<path d="M0 0 C2.01676539 -0.00202537 4.03353006 -0.00494065 6.05029297 -0.00869751 C10.25951163 -0.01309906 14.4685382 -0.00676008 18.67773438 0.00732422 C24.04372453 0.02441466 29.40926435 0.01456179 34.77523804 -0.00339317 C38.93452277 -0.01428986 43.09370264 -0.0107578 47.25299072 -0.0030098 C49.23032689 -0.00102402 51.20767292 -0.00340927 53.18499756 -0.01044846 C72.54035758 -0.06424947 88.29891128 2.7763972 103.51171875 15.765625 C115.41638029 27.7592601 121.46662448 42.20681531 121.58398438 59.02539062 C121.57689453 60.24162109 121.56980469 61.45785156 121.5625 62.7109375 C121.58248047 63.94650391 121.60246094 65.18207031 121.62304688 66.45507812 C121.62033326 71.48341301 121.57873335 75.36945499 119.53515625 80.00390625 C114.4181999 85.08768946 110.02289531 86.89843506 102.86973572 86.89964294 C101.8258085 86.90794454 101.8258085 86.90794454 100.76079184 86.91641384 C98.44684549 86.92994292 96.1339924 86.91509474 93.82006836 86.90014648 C92.15391077 86.90393247 90.48775633 86.90943482 88.8216095 86.91651917 C84.30923388 86.93045355 79.79724042 86.91931872 75.28488612 86.90280795 C70.55780552 86.88893418 65.83074658 86.8954201 61.10365295 86.89894104 C53.1672654 86.90164106 45.23102926 86.88818459 37.29467773 86.86499023 C28.12361409 86.83837265 18.95280343 86.83663709 9.78171438 86.8483786 C0.95198837 86.85916277 -7.87764627 86.85296487 -16.70736504 86.83882332 C-20.46202191 86.83306999 -24.21661177 86.83314104 -27.97126961 86.83788872 C-32.39301019 86.84266587 -36.8144742 86.8325263 -41.23616219 86.81093407 C-42.85748359 86.80537642 -44.47883164 86.80489152 -46.10015488 86.80988693 C-48.31598182 86.81585721 -50.53096806 86.8033024 -52.74671936 86.78611755 C-54.60524332 86.78247271 -54.60524332 86.78247271 -56.50131321 86.77875423 C-60.88486307 86.28459533 -64.27730638 84.88987122 -67.51953125 81.86328125 C-74.67231381 72.50964251 -72.93540329 58.36631551 -71.59082031 46.99511719 C-69.05177105 32.979293 -60.2474077 19.82563731 -48.875 11.3984375 C-46.40128192 9.87534503 -43.85228957 8.56185093 -41.25 7.2734375 C-40.61449219 6.93957031 -39.97898437 6.60570312 -39.32421875 6.26171875 C-26.64302845 -0.09133337 -13.84237591 -0.04927822 0 0 Z " fill="#000102" transform="translate(133.875,211.6015625)"/>
<path d="M0 0 C12.24986506 9.13489938 20.06962896 21.30349127 22.68359375 36.375 C24.59844487 52.26117224 20.33201225 67.37222653 10.6171875 80.12890625 C2.04168379 89.53636181 -10.13770862 96.97903508 -23.05200195 98.19287109 C-39.49372253 98.79876364 -52.9678395 97.04498709 -66 86 C-66.70640625 85.40445313 -67.4128125 84.80890625 -68.140625 84.1953125 C-78.25038576 74.89587607 -83.78367073 62.31998956 -85.37890625 48.78515625 C-85.97800591 33.15058773 -80.78091002 19.68558836 -70.8125 7.8125 C-51.91122402 -12.35519313 -22.87282603 -14.00501915 0 0 Z " fill="#000102" transform="translate(190,93)"/>
<path d="M0 0 C1.20792206 -0.0098568 1.20792206 -0.0098568 2.44024658 -0.01991272 C5.10778906 -0.03963636 7.77527517 -0.05130838 10.44287109 -0.0612793 C11.35562176 -0.06535482 12.26837242 -0.06943035 13.2087822 -0.07362938 C18.04315718 -0.09448961 22.87750381 -0.10878957 27.71191406 -0.11816406 C32.69175956 -0.12920742 37.67115562 -0.16358344 42.65084267 -0.20333576 C46.49088335 -0.22955828 50.33081807 -0.23786106 54.1709404 -0.24144554 C56.0056498 -0.24629967 57.84035484 -0.25788001 59.67497635 -0.27648354 C72.49151285 -0.39833179 81.58488485 0.23129784 91.36474609 9.30981445 C95.97664329 14.29734128 98.16261923 19.68736196 98.26708984 26.44262695 C98.2909375 27.25086914 98.31478516 28.05911133 98.33935547 28.8918457 C98.38192063 30.56607545 98.41338818 32.24062853 98.43310547 33.9152832 C98.63028473 39.70226527 99.7135958 44.37821871 103.09130859 49.17700195 C105.69154908 51.04010517 105.69154908 51.04010517 108.09130859 52.17700195 C108.09130859 52.83700195 108.09130859 53.49700195 108.09130859 54.17700195 C58.26130859 54.17700195 8.43130859 54.17700195 -42.90869141 54.17700195 C-40.90869141 52.17700195 -40.90869141 52.17700195 -38.03369141 51.05200195 C-33.84126827 48.53654807 -32.51367379 45.72364779 -30.90869141 41.17700195 C-30.42998396 38.04284844 -30.40550111 34.96805399 -30.40869141 31.80200195 C-30.14679449 22.56256366 -29.11323643 15.34600314 -22.65869141 8.30200195 C-15.98810957 2.20647028 -8.89226579 0.03143891 0 0 Z " fill="#42A4F3" transform="translate(124.90869140625,243.822998046875)"/>
<path d="M0 0 C1.04577713 -0.00571014 2.09155426 -0.01142029 3.16902161 -0.01730347 C4.88961037 -0.01898026 4.88961037 -0.01898026 6.6449585 -0.02069092 C7.85334885 -0.02565582 9.0617392 -0.03062073 10.30674744 -0.03573608 C13.62306589 -0.0478461 16.93932127 -0.05530347 20.25565434 -0.05974674 C22.3289956 -0.06267959 24.40233137 -0.06678485 26.47566986 -0.07125092 C32.96673343 -0.08492479 39.45778439 -0.0945914 45.94886136 -0.09845281 C53.43400791 -0.10293033 60.91897156 -0.12046432 68.40406251 -0.1494534 C74.19442181 -0.17109784 79.98472977 -0.18115859 85.77512908 -0.18249393 C89.2311416 -0.18354019 92.68698215 -0.18940939 96.14295197 -0.20731354 C100.00175319 -0.22691547 103.86032749 -0.22249423 107.71917725 -0.21600342 C108.8581395 -0.2252182 109.99710175 -0.23443298 111.170578 -0.243927 C117.85392752 -0.20871545 123.44820507 0.06283611 128.68304443 4.67559814 C133.14540852 10.69209593 133.66112764 14.69078485 132.94085693 22.14044189 C131.48560475 26.94452741 128.58183814 29.93571911 124.1769104 32.32316589 C119.46439452 34.0455872 114.46388349 33.69259599 109.50726318 33.65802002 C108.26902802 33.6650293 107.03079285 33.67203857 105.7550354 33.67926025 C102.37457548 33.69380606 98.99510035 33.69045798 95.6146965 33.67774391 C92.06788616 33.66757721 88.52111629 33.67701973 84.9743042 33.68328857 C79.01939387 33.69055437 73.06468235 33.68100553 67.10980225 33.66192627 C60.23695092 33.64015937 53.36457433 33.64721151 46.4917345 33.66923189 C40.57811594 33.68741655 34.66463982 33.68992932 28.75100231 33.67947721 C25.22461866 33.67325903 21.69845774 33.67236011 18.17208862 33.68562317 C14.23935669 33.6993829 10.30715136 33.68028186 6.37445068 33.65802002 C4.63335526 33.67016541 4.63335526 33.67016541 2.85708618 33.68255615 C-3.66399384 33.61423107 -7.79148928 33.10137177 -13.05914307 29.14044189 C-17.17293225 23.835819 -18.60939354 19.85349765 -18.05914307 13.14044189 C-16.16010479 7.32395895 -13.55282114 4.06261108 -8.05914307 1.14044189 C-5.07809605 0.14675956 -3.11217414 0.01017398 0 0 Z " fill="#000000" transform="translate(316.05914306640625,264.85955810546875)"/>
<path d="M0 0 C1.07101959 -0.0071553 2.14203918 -0.01431061 3.24551392 -0.02168274 C4.42062531 -0.02437164 5.59573669 -0.02706055 6.80645752 -0.02983093 C8.66293411 -0.03968773 8.66293411 -0.03968773 10.55691528 -0.04974365 C14.66255941 -0.06949347 18.76816447 -0.08114471 22.87384033 -0.09111023 C24.28866851 -0.09515864 25.7034965 -0.09927558 27.11832428 -0.10346031 C33.76636164 -0.12250829 40.41438792 -0.13673968 47.06244731 -0.14507228 C54.72932625 -0.1548412 62.39591622 -0.18115304 70.06269336 -0.22157317 C75.99317756 -0.25176331 81.92357907 -0.26654392 87.85413861 -0.26985329 C91.3940471 -0.27220066 94.93364674 -0.28111951 98.4734726 -0.30631447 C102.42570679 -0.33399051 106.37756278 -0.32975514 110.32989502 -0.32279968 C111.49690948 -0.33560974 112.66392395 -0.3484198 113.86630249 -0.36161804 C120.42705974 -0.31952551 124.50641726 0.20601488 129.82696533 4.14717102 C133.51329417 7.92802111 134.13057913 11.02845971 134.32696533 16.14717102 C134.14326712 21.26538331 133.3969312 24.28774846 129.82696533 28.14717102 C125.18210017 32.4436713 121.84932279 33.26517615 115.65429688 33.29434204 C114.60859024 33.30149734 113.56288361 33.30865265 112.48548889 33.31602478 C111.34359604 33.31871368 110.20170319 33.32140259 109.02520752 33.32417297 C107.21481239 33.33402977 107.21481239 33.33402977 105.36784363 33.34408569 C101.36983999 33.36381224 97.37187644 33.37548348 93.37384033 33.38545227 C91.99463125 33.38950172 90.61542237 33.3936187 89.23621368 33.39780235 C82.75529975 33.41684317 76.27439712 33.43107642 69.79346061 33.43941432 C62.32526001 33.44918242 54.85735614 33.47549509 47.38926005 33.51591522 C41.608208 33.54612519 35.82724077 33.56088781 30.04611135 33.56419533 C26.59728512 33.56654029 23.14877628 33.57542768 19.7000351 33.60065651 C15.84869503 33.62837648 11.99774216 33.62409116 8.14630127 33.61714172 C7.01250534 33.62995178 5.87870941 33.64276184 4.71055603 33.65596008 C-1.68944246 33.61391561 -6.9184217 33.05889383 -12.17303467 29.14717102 C-16.34218124 23.90901251 -17.72030891 19.8239168 -17.17303467 13.14717102 C-15.36310855 7.87477755 -12.93851085 4.20196345 -8.17303467 1.14717102 C-5.16332231 0.14393357 -3.14622655 0.01442542 0 0 Z " fill="#000000" transform="translate(315.17303466796875,179.8528289794922)"/>
<path d="M0 0 C1.0879184 -0.0071553 2.17583679 -0.01431061 3.29672241 -0.02168274 C4.4957016 -0.02437164 5.69468079 -0.02706055 6.92999268 -0.02983093 C8.18861115 -0.03640213 9.44722961 -0.04297333 10.74398804 -0.04974365 C14.9247917 -0.07079297 19.10559576 -0.08114782 23.28643799 -0.09111023 C24.72574126 -0.09515766 26.16504435 -0.09927458 27.60434723 -0.10346031 C34.36718224 -0.12251504 41.13000633 -0.13674465 47.89286304 -0.14507228 C55.69786094 -0.15484186 63.50257503 -0.18115258 71.30747294 -0.22157317 C77.34068057 -0.25174525 83.37380691 -0.26654224 89.40708852 -0.26985329 C93.01013477 -0.27220287 96.61287793 -0.28115044 100.2158432 -0.30631447 C104.23792846 -0.33395121 108.25938098 -0.32976079 112.28155518 -0.32279968 C113.47243744 -0.33560974 114.6633197 -0.3484198 115.89028931 -0.36161804 C122.1952255 -0.3217887 126.10086793 -0.14232717 130.86456299 4.14717102 C134.49289962 7.96647274 135.17456757 11.02996108 135.36456299 16.14717102 C135.17456757 21.26438096 134.49289962 24.3278693 130.86456299 28.14717102 C125.23133654 33.20405405 119.65924655 32.71474301 112.34503174 32.66474915 C111.08582916 32.67175842 109.82662659 32.6787677 108.52926636 32.68598938 C105.08702206 32.70417312 101.64525909 32.69717615 98.20300674 32.68447304 C94.59432972 32.67431946 90.98569287 32.68374524 87.37701416 32.6900177 C81.31777577 32.69728729 75.25873264 32.68772465 69.19952393 32.6686554 C62.20227631 32.64688777 55.20549495 32.65393965 48.20825863 32.67596102 C42.1919173 32.69413481 36.17571603 32.69666373 30.15935612 32.68620634 C26.56983362 32.6799822 22.98053001 32.67910575 19.39102173 32.69235229 C15.38843338 32.70609247 11.38664409 32.6870291 7.38409424 32.66474915 C6.19949615 32.67284607 5.01489807 32.68094299 3.79440308 32.68928528 C-4.24023979 32.60640279 -7.5588721 31.43374418 -13.44793701 26.02217102 C-15.90414516 21.8375201 -16.31623083 17.96080637 -16.13543701 13.14717102 C-14.48938889 7.24076304 -11.93946656 4.62242644 -7.13543701 1.14717102 C-4.60220738 -0.1194438 -2.83671464 0.01277375 0 0 Z " fill="#000000" transform="translate(314.13543701171875,94.85282897949219)"/>
<path d="M0 0 C4.47429651 3.97715245 7.3515363 7.82375563 8.37109375 13.81640625 C8.68036723 21.03000122 7.72364327 26.21686201 2.828125 31.625 C-1.90135667 36.4535284 -6.25801234 38.68165306 -12.984375 39 C-19.05944662 38.84654351 -23.52138641 37.16357907 -27.9296875 32.94140625 C-33.44089487 26.75128202 -34.70716048 22.22624647 -34.5390625 13.88671875 C-33.87208987 7.96201503 -31.55072112 4.55516696 -26.9765625 0.84375 C-18.34072635 -5.19848519 -9.01261844 -6.44805222 0 0 Z " fill="#43A3F1" transform="translate(172.171875,120.375)"/>
<path d="M0 0 C0 0.99 0 1.98 0 3 C-1.66666667 4.66666667 -3.33333333 6.33333333 -5 8 C-9.21683503 14.30517238 -8.4348039 21.20732132 -8.43945312 28.50195312 C-8.56190254 34.97488263 -9.42768376 38.60956654 -13 44 C-13 44.99 -13 45.98 -13 47 C31.55 47 76.1 47 122 47 C121.01 46.34 120.02 45.68 119 45 C119.33 43.68 119.66 42.36 120 41 C121.175625 42.2065625 121.175625 42.2065625 122.375 43.4375 C124.71982856 45.98690417 124.71982856 45.98690417 127 47 C127 47.66 127 48.32 127 49 C77.17 49 27.34 49 -24 49 C-22 47 -22 47 -19.125 45.875 C-14.93257687 43.35954612 -13.60498239 40.54664583 -12 36 C-11.52129256 32.86584649 -11.4968097 29.79105204 -11.5 26.625 C-11.22932725 17.07595994 -10.14987446 9.94248274 -3.25 2.875 C-2.18118936 1.90049618 -1.10297027 0.93566579 0 0 Z " fill="#5FA9E3" transform="translate(106,249)"/>
<path d="M0 0 C1.31388451 -0.00810448 1.31388451 -0.00810448 2.65431213 -0.01637268 C5.51802475 -0.02877106 8.38071507 -0.01243829 11.24438477 0.00561523 C13.24455315 0.00546014 15.24472183 0.00396938 17.24488831 0.00120544 C21.41990574 -0.00017421 25.59457779 0.01231467 29.76953125 0.03515625 C35.12876555 0.06366879 40.48743205 0.06076293 45.84670925 0.04806614 C49.96872341 0.04112715 54.09060534 0.04887565 58.21260262 0.06132317 C60.189825 0.06584595 62.16706151 0.06616727 64.1442852 0.06225777 C66.89727056 0.05935974 69.64945895 0.07577981 72.40234375 0.09765625 C73.63269852 0.09090378 73.63269852 0.09090378 74.88790894 0.08401489 C77.15159607 0.11402893 77.15159607 0.11402893 80.74829102 0.50170898 C81.73829102 1.98670898 81.73829102 1.98670898 82.74829102 3.50170898 C82.0910907 3.34035965 81.43389038 3.17901031 80.7567749 3.01277161 C77.03271527 2.38015141 73.37781475 2.33814632 69.61254883 2.32470703 C68.8069754 2.31813583 68.00140198 2.31156464 67.17141724 2.30479431 C64.51474908 2.2851408 61.85813724 2.27341659 59.20141602 2.26342773 C58.2904995 2.25935221 57.37958298 2.25527668 56.44106293 2.25107765 C51.6196465 2.23025095 46.79825825 2.21593446 41.97680664 2.20654297 C37.0127128 2.19548459 32.04906791 2.16108148 27.0851326 2.12137127 C23.25367431 2.09515408 19.42232225 2.08684662 15.59078217 2.08326149 C13.76165484 2.07840889 11.93253183 2.06683296 10.10349274 2.0482235 C-3.11538423 1.77762388 -3.11538423 1.77762388 -15.25170898 6.50170898 C-16.24170898 6.83170898 -17.23170898 7.16170898 -18.25170898 7.50170898 C-18.25170898 6.51170898 -18.25170898 5.52170898 -18.25170898 4.50170898 C-12.01979672 1.25070745 -7.00330499 -0.08399766 0 0 Z " fill="#000415" transform="translate(123.251708984375,242.498291015625)"/>
<path d="M0 0 C0 0.99 0 1.98 0 3 C-1.66666667 4.66666667 -3.33333333 6.33333333 -5 8 C-9.21683503 14.30517238 -8.4348039 21.20732132 -8.43945312 28.50195312 C-8.56190254 34.97488263 -9.42768376 38.60956654 -13 44 C-13 44.99 -13 45.98 -13 47 C-16.82320557 48.42258812 -19.91281305 49.24042276 -24 49 C-22 47 -22 47 -19.125 45.875 C-14.93257687 43.35954612 -13.60498239 40.54664583 -12 36 C-11.52129256 32.86584649 -11.4968097 29.79105204 -11.5 26.625 C-11.22932725 17.07595994 -10.14987446 9.94248274 -3.25 2.875 C-2.18118936 1.90049618 -1.10297027 0.93566579 0 0 Z " fill="#509BD8" transform="translate(106,249)"/>
<path d="M0 0 C0.66 0.33 1.32 0.66 2 1 C1.67902344 1.79535156 1.35804687 2.59070313 1.02734375 3.41015625 C-0.44740354 8.56336067 -0.39054851 13.59134526 -0.47851562 18.92382812 C-0.65541704 24.33010803 -1.55706882 28.15973902 -4 33 C-4.5625 31.0625 -4.5625 31.0625 -5 29 C-4.67 28.67 -4.34 28.34 -4 28 C-3.87901073 26.43669133 -3.82041303 24.86845135 -3.7890625 23.30078125 C-3.76070313 22.33849609 -3.73234375 21.37621094 -3.703125 20.38476562 C-3.65154272 18.35629253 -3.60712796 16.32762295 -3.5703125 14.29882812 C-3.39238778 8.72756019 -3.01987248 4.73974637 0 0 Z " fill="#010B20" transform="translate(96,259)"/>
<path d="M0 0 C1.49739583 1.26953125 2.99479167 2.5390625 4.4921875 3.80859375 C6.00594079 5.0878152 6.00594079 5.0878152 8 6 C8 6.66 8 7.32 8 8 C-2.89 8 -13.78 8 -25 8 C-25 7.67 -25 7.34 -25 7 C-15.76 6.67 -6.52 6.34 3 6 C2.01 5.34 1.02 4.68 0 4 C0 2.68 0 1.36 0 0 Z " fill="#5BA4E1" transform="translate(225,290)"/>
<path d="M0 0 C0.66 0.33 1.32 0.66 2 1 C0.02 1.99 0.02 1.99 -2 3 C-1.01 4.32 -0.02 5.64 1 7 C-2.61973402 8.31626692 -5.09567131 9 -9 9 C-7.48328036 4.44984107 -3.83108947 2.49942736 0 0 Z " fill="#479CE0" transform="translate(150,118)"/>
<path d="M0 0 C1.9375 0.8125 1.9375 0.8125 4 2 C5.22716023 5.6814807 5.18406814 9.10410762 5.1875 12.9375 C5.19974609 13.65357422 5.21199219 14.36964844 5.22460938 15.10742188 C5.23515333 18.89973108 5.12309215 21.78599094 3 25 C2.34 24.67 1.68 24.34 1 24 C1.32355469 23.47277344 1.64710938 22.94554687 1.98046875 22.40234375 C3.27846969 19.34383579 3.30099805 16.87889617 3.3125 13.5625 C3.32925781 12.45003906 3.34601563 11.33757812 3.36328125 10.19140625 C2.96541205 6.69614672 1.93089288 4.88869726 0 2 C0 1.34 0 0.68 0 0 Z " fill="#031227" transform="translate(176,124)"/>
<path d="M0 0 C1.1171875 3.7421875 1.1171875 3.7421875 0.0625 6.0625 C-0.288125 6.701875 -0.63875 7.34125 -1 8 C-1 8.99 -1 9.98 -1 11 C-4.82320557 12.42258812 -7.91281305 13.24042276 -12 13 C-10 11 -10 11 -7.125 9.875 C-2.95548433 7.3732906 -1.77623536 4.39879463 0 0 Z " fill="#4A90CF" transform="translate(94,285)"/>
<path d="M0 0 C4.20626034 1.50223584 5.73900021 4.28550034 8 8 C7.01 7.67 6.02 7.34 5 7 C5 6.34 5 5.68 5 5 C3.35 4.67 1.7 4.34 0 4 C0 2.68 0 1.36 0 0 Z " fill="#4B97D4" transform="translate(170,120)"/>
<path d="M0 0 C0.66 0.33 1.32 0.66 2 1 C0.90344712 2.31886772 -0.20253423 3.62990057 -1.3125 4.9375 C-1.92738281 5.66839844 -2.54226562 6.39929688 -3.17578125 7.15234375 C-5 9 -5 9 -8 10 C-8 8 -8 8 -6.0625 6 C-5.381875 5.34 -4.70125 4.68 -4 4 C-3.67 3.34 -3.34 2.68 -3 2 C-2.01 2 -1.02 2 0 2 C0 1.34 0 0.68 0 0 Z " fill="#4F95CD" transform="translate(176,147)"/>
<path d="M0 0 C-2.5652659 1.71017726 -4.87960965 2.90417811 -7.6875 4.125 C-8.49574219 4.47820312 -9.30398437 4.83140625 -10.13671875 5.1953125 C-10.75160156 5.46085938 -11.36648437 5.72640625 -12 6 C-12 5.01 -12 4.02 -12 3 C-4.71428571 -0.42857143 -4.71428571 -0.42857143 0 0 Z " fill="#021127" transform="translate(117,244)"/>
<path d="M0 0 C1.49739583 1.26953125 2.99479167 2.5390625 4.4921875 3.80859375 C6.00594079 5.0878152 6.00594079 5.0878152 8 6 C8 6.66 8 7.32 8 8 C4.65902615 7.40339753 2.45699871 6.36924875 0 4 C0 2.68 0 1.36 0 0 Z " fill="#4B96D2" transform="translate(225,290)"/>
<path d="M0 0 C0.99 0.33 1.98 0.66 3 1 C1.35 3.64 -0.3 6.28 -2 9 C-2.66 8.01 -3.32 7.02 -4 6 C-3.34 6 -2.68 6 -2 6 C-1.855625 5.195625 -1.71125 4.39125 -1.5625 3.5625 C-1 1 -1 1 0 0 Z " fill="#000C20" transform="translate(141,122)"/>
<path d="" fill="#FFFFFF" transform="translate(0,0)"/>
<path d="" fill="#FFFFFF" transform="translate(0,0)"/>
<path d="" fill="#FFFFFF" transform="translate(0,0)"/>
<path d="" fill="#FFFFFF" transform="translate(0,0)"/>
<path d="" fill="#FFFFFF" transform="translate(0,0)"/>
<path d="" fill="#FFFFFF" transform="translate(0,0)"/>
<path d="" fill="#FFFFFF" transform="translate(0,0)"/>
<path d="" fill="#FFFFFF" transform="translate(0,0)"/>
<path d="" fill="#FFFFFF" transform="translate(0,0)"/>
<path d="" fill="#FFFFFF" transform="translate(0,0)"/>
<path d="" fill="#FFFFFF" transform="translate(0,0)"/>
<path d="" fill="#FFFFFF" transform="translate(0,0)"/>
<path d="" fill="#FFFFFF" transform="translate(0,0)"/>
<path d="" fill="#FFFFFF" transform="translate(0,0)"/>
<path d="" fill="#FFFFFF" transform="translate(0,0)"/>
<path d="" fill="#FFFFFF" transform="translate(0,0)"/>
<path d="" fill="#FFFFFF" transform="translate(0,0)"/>
<path d="" fill="#FFFFFF" transform="translate(0,0)"/>
<path d="" fill="#FFFFFF" transform="translate(0,0)"/>
<path d="" fill="#FFFFFF" transform="translate(0,0)"/>
<path d="" fill="#FFFFFF" transform="translate(0,0)"/>
<path d="" fill="#FFFFFF" transform="translate(0,0)"/>
<path d="" fill="#FFFFFF" transform="translate(0,0)"/>
<path d="" fill="#FFFFFF" transform="translate(0,0)"/>
<path d="" fill="#FFFFFF" transform="translate(0,0)"/>
<path d="" fill="#FFFFFF" transform="translate(0,0)"/>
<path d="" fill="#FFFFFF" transform="translate(0,0)"/>
<path d="" fill="#FFFFFF" transform="translate(0,0)"/>
<path d="" fill="#FFFFFF" transform="translate(0,0)"/>
<path d="" fill="#FFFFFF" transform="translate(0,0)"/>
<path d="" fill="#FFFFFF" transform="translate(0,0)"/>
<path d="" fill="#FFFFFF" transform="translate(0,0)"/>
<path d="" fill="#FFFFFF" transform="translate(0,0)"/>
<path d="" fill="#FFFFFF" transform="translate(0,0)"/>
<path d="" fill="#FFFFFF" transform="translate(0,0)"/>
<path d="" fill="#000000" transform="translate(0,0)"/>
</svg>
