<?xml version="1.0" encoding="UTF-8"?>
<!DOCTYPE svg PUBLIC "-//W3C//DTD SVG 1.1//EN" "http://www.w3.org/Graphics/SVG/1.1/DTD/svg11.dtd">
<svg xmlns="http://www.w3.org/2000/svg" version="1.1" width="512px" height="512px" style="shape-rendering:geometricPrecision; text-rendering:geometricPrecision; image-rendering:optimizeQuality; fill-rule:evenodd; clip-rule:evenodd" xmlns:xlink="http://www.w3.org/1999/xlink">
<g><path style="opacity:0.993" fill="#000000" d="M 511.5,111.5 C 511.5,207.5 511.5,303.5 511.5,399.5C 505.32,425.179 489.32,441.013 463.5,447C 324.833,447.667 186.167,447.667 47.5,447C 21.6262,440.959 5.62625,425.126 -0.5,399.5C -0.5,303.5 -0.5,207.5 -0.5,111.5C 5.62625,85.8744 21.6262,70.0411 47.5,64C 186.167,63.3333 324.833,63.3333 463.5,64C 489.32,69.9874 505.32,85.8208 511.5,111.5 Z M 151.5,149.5 C 187.433,148.936 207.766,166.436 212.5,202C 210.139,229.351 195.806,246.684 169.5,254C 138.068,256.88 117.568,243.38 108,213.5C 104.494,179.852 118.994,158.519 151.5,149.5 Z M 313.5,159.5 C 352.835,159.333 392.168,159.5 431.5,160C 443.343,161.847 448.176,168.68 446,180.5C 443.399,187.053 438.566,190.553 431.5,191C 392.5,191.667 353.5,191.667 314.5,191C 300.773,188.374 296.273,180.541 301,167.5C 302.833,165.667 304.667,163.833 306.5,162C 309.004,161.302 311.337,160.469 313.5,159.5 Z M 309.5,245.5 C 351.501,245.333 393.501,245.5 435.5,246C 445.892,250.296 449.058,257.796 445,268.5C 442.313,272.194 438.813,274.694 434.5,276C 393.5,276.667 352.5,276.667 311.5,276C 299.964,271.76 296.464,263.927 301,252.5C 303.441,249.546 306.275,247.213 309.5,245.5 Z M 113.5,277.5 C 144.168,277.333 174.835,277.5 205.5,278C 231.886,283.386 248.053,299.219 254,325.5C 256.22,334.972 255.887,344.306 253,353.5C 250.876,357.313 247.709,359.813 243.5,361C 186.442,361.988 129.442,361.654 72.5,360C 65.6248,355.41 62.6248,348.91 63.5,340.5C 64.7286,306.961 81.3953,285.961 113.5,277.5 Z M 311.5,330.5 C 352.501,330.333 393.501,330.5 434.5,331C 444.689,334.216 448.523,341.05 446,351.5C 444.073,356.428 440.573,359.594 435.5,361C 393.5,361.667 351.5,361.667 309.5,361C 298.531,355.426 296.031,347.259 302,336.5C 304.843,333.837 308.009,331.837 311.5,330.5 Z"/></g>
</svg>
